<?xml version="1.0" encoding="UTF-8" standalone="no"?>
<!-- Created with Inkscape (http://www.inkscape.org/) -->

<svg
   version="1.1"
   id="svg1"
   width="296"
   height="171"
   viewBox="0 0 296 171"
   sodipodi:docname="BatlineArt.svg"
   inkscape:version="1.3 (0e150ed6c4, 2023-07-21)"
   xmlns:inkscape="http://www.inkscape.org/namespaces/inkscape"
   xmlns:sodipodi="http://sodipodi.sourceforge.net/DTD/sodipodi-0.dtd"
   xmlns="http://www.w3.org/2000/svg"
   xmlns:svg="http://www.w3.org/2000/svg">
  <defs
     id="defs1" />
  <sodipodi:namedview
     id="namedview1"
     pagecolor="#ffffff"
     bordercolor="#111111"
     borderopacity="1"
     inkscape:showpageshadow="0"
     inkscape:pageopacity="0"
     inkscape:pagecheckerboard="1"
     inkscape:deskcolor="#d1d1d1"
     inkscape:zoom="4.0506757"
     inkscape:cx="148"
     inkscape:cy="85.541284"
     inkscape:window-width="1920"
     inkscape:window-height="991"
     inkscape:window-x="-9"
     inkscape:window-y="-9"
     inkscape:window-maximized="1"
     inkscape:current-layer="g1" />
  <g
     inkscape:groupmode="layer"
     inkscape:label="Image"
     id="g1">
    <path
       style="fill:#000000"
       d="m 177.46246,136.04005 c -4.36582,-6.5853 -16.49772,-9.05996 -24.47199,-4.99179 -2.14077,1.09214 -4.1744,2.44214 -4.51918,3 -0.34477,0.55786 -1.27531,1.01429 -2.06785,1.01429 -1.0061,0 -1.44098,-1.16648 -1.44098,-3.86514 0,-8.06292 -6.95105,-11.95289 -15.5147,-8.6824 -2.43563,0.93018 -5.53717,3.0089 -6.8923,4.61939 -3.81657,4.53574 -4.593,3.75449 -4.593,-4.62151 0,-4.79239 -0.55401,-8.62099 -1.51693,-10.48307 -2.91125,-5.62975 -10.86926,-7.5064 -19.266927,-4.54353 -2.21942,0.78306 -4.24746,1.2116 -4.50674,0.95232 -0.25929,-0.25929 -0.24459,-3.29738 0.0327,-6.75131 0.89476,-11.146851 -3.40449,-17.207235 -13.66222,-19.258781 -3.56436,-0.712871 -3.91496,-2.300213 -1.07562,-4.869784 1.10232,-0.997585 2.46524,-3.525875 3.0287,-5.618422 1.52692,-5.67055 -0.62303,-10.096476 -5.93741,-12.22287 -2.27479,-0.91019 -4.80187,-1.654891 -5.61574,-1.654891 -2.280678,0 -1.79931,-1.550585 2.21677,-7.140675 6.38129,-8.882287 5.70525,-19.210896 -1.73508,-26.508985 -3.057737,-2.999275 -3.814544,-5.359361 -1.711454,-5.337119 2.559334,0.02707 15.445504,8.003823 21.043214,13.026094 10.65521,9.559881 18.062377,22.886896 23.804417,42.828974 3.79905,13.194064 5.25224,15.465044 9.89602,15.465044 2.58973,0 4.14678,-0.902083 7.19196,-4.166666 4.20802,-4.511229 5.81438,-5.171292 5.81438,-2.389173 0,2.61335 2.84308,6.222506 4.90172,6.222506 0.98357,0 2.60279,-0.9 3.59828,-2 3.6161,-3.995746 4.68413,-2.639621 3.93206,4.992713 -1.14937,11.664325 -0.12791,11.893375 22.1058,4.956889 29.39808,-9.17163 45.91648,-9.319813 60.88751,-0.54621 5.2152,3.056306 5.28137,5.596606 0.14578,5.596606 -9.81918,0 -21.41811,8.5021 -23.63408,17.32394 -1.1479,4.56982 -1.34937,4.78212 -3.8244,4.03012 -5.09246,-1.54727 -10.67943,-0.90615 -14.53665,1.66812 -3.6335,2.42497 -7.57602,8.37723 -7.57602,11.43798 0,2.52406 -2.35896,1.74683 -4.5,-1.48266 z m 11.57058,-13.01351 c 3.18195,-1.62331 5.55326,-2.05026 9.9787,-1.79665 5.5061,0.31554 5.83067,0.20398 6.30539,-2.16734 1.28336,-6.41055 10.32138,-15.02015 17.93668,-17.08645 2.31476,-0.62808 4.88365,-1.37079 5.70865,-1.65047 2.73915,-0.928586 -8.53452,-5.270432 -16.8206,-6.478141 -7.13801,-1.040375 -9.18073,-0.932749 -18.84266,0.992775 -5.96021,1.18781 -16.61871,3.97375 -23.68555,6.190966 -20.15809,6.32461 -25.37982,5.3796 -24.36933,-4.410236 l 0.52212,-5.058442 -4.1724,0.332434 c -3.20787,0.255585 -4.59909,-0.139047 -6.01816,-1.70711 l -1.84576,-2.039544 -3.61597,2.45711 c -3.80684,2.586815 -8.92295,3.18508 -12.20708,1.427466 -2.6588,-1.422948 -4.16468,-4.749153 -7.83099,-17.29721 C 103.28836,51.504486 94.898413,38.682761 79.594973,28.153714 l -4.78936,-3.295159 1.4927,2.886554 c 3.78291,7.315344 3.24692,16.664661 -1.34673,23.491164 -1.91714,2.849018 -2.49769,4.453135 -1.70016,4.697788 4.34053,1.331528 8.00145,3.789396 9.2551,6.213676 2.03777,3.94062 1.82355,10.799697 -0.45393,14.534648 l -1.90241,3.119833 3.85363,1.154574 c 7.89346,2.36494 13.1612,11.882089 11.49442,20.766798 -0.60251,3.21168 -0.47715,3.52974 1.14378,2.90197 4.860417,-1.88237 11.054747,-1.77413 15.685077,0.27409 3.73108,1.65043 5.09439,2.95767 6.64298,6.36975 1.07166,2.36123 1.95835,6.23629 1.97043,8.61124 l 0.022,4.3181 3.22762,-2.29827 c 2.39512,-1.70548 4.96563,-2.39647 9.966,-2.67902 6.40022,-0.36164 6.89063,-0.22849 9.77238,2.65325 1.6687,1.6687 3.034,3.94206 3.034,5.05191 0,2.95887 1.34197,3.31733 5.12854,1.36989 2.25361,-1.15904 5.6924,-1.73395 10.37146,-1.73395 5.86119,0 7.77277,0.45425 11.75,2.79215 2.6125,1.53569 4.75,3.31129 4.75,3.94578 0,0.6345 1.32677,-0.93848 2.94839,-3.4955 1.84967,-2.91662 4.50376,-5.44261 7.12219,-6.77844 z"
       id="path1" />
  </g>
</svg>
