<?xml version="1.0" encoding="UTF-8" standalone="no"?>
<!-- Created with Inkscape (http://www.inkscape.org/) -->

<svg
   version="1.1"
   id="svg2"
   xml:space="preserve"
   width="50.186901"
   height="12.535669"
   viewBox="0 0 50.186901 12.535669"
   xmlns="http://www.w3.org/2000/svg"
   xmlns:svg="http://www.w3.org/2000/svg"><defs
     id="defs6" /><g
     id="g8"
     transform="matrix(1.3333333,0,0,-1.3333333,-382.16493,872.7598)"><g
       aria-label="E"
       transform="matrix(1,0,0,-1,286.254,645.28)"
       id="text12"
       style="font-size:9.9626px;font-family:CMMI10;-inkscape-font-specification:CMMI10"><path
         d="m 0.46699686,0 q -0.097291,0 -0.097291,-0.13134287 0.004865,-0.0243228 0.0194582,-0.0826974 0.0145937,-0.0632392 0.0389164,-0.097291 0.0291873,-0.0389164 0.0681037,-0.0389164 0.60806884,0 0.84643184,-0.0681037 0.1313429,-0.0437809 0.1897175,-0.26755028 L 2.8992722,-6.1585211 q 0.019458,-0.097291 0.019458,-0.1362075 0,-0.1070201 -0.1216138,-0.1216137 -0.1848529,-0.038916 -0.7150889,-0.038916 -0.097291,0 -0.097291,-0.1313429 0.00486,-0.024323 0.019458,-0.082697 0.014594,-0.063239 0.038916,-0.097291 0.029187,-0.038916 0.068104,-0.038916 h 5.3996512 q 0.1021556,0 0.1021556,0.1313429 l -0.238363,2.0625695 q 0,0.024323 -0.038916,0.058375 -0.034052,0.029187 -0.063239,0.029187 h -0.087562 q -0.1021555,0 -0.1021555,-0.1264783 0.058375,-0.4864551 0.058375,-0.7199535 0,-0.3988932 -0.1362074,-0.617798 Q 6.8687455,-6.2120312 6.6401117,-6.3093222 6.4163423,-6.4066132 6.1390629,-6.430936 5.8666481,-6.4552587 5.4191094,-6.4552587 H 4.2856691 q -0.2724148,0 -0.3599767,0.048646 -0.087562,0.043781 -0.1605302,0.291873 l -0.5983397,2.4079526 h 0.7783281 q 0.5059133,0 0.7637344,-0.068104 0.2578212,-0.072968 0.4086223,-0.2967376 0.1508011,-0.2237693 0.2724148,-0.7102244 0.00973,-0.034052 0.034052,-0.058375 0.029187,-0.029187 0.063239,-0.029187 h 0.092427 q 0.097291,0 0.097291,0.1264783 l -0.6177979,2.4614626 q -0.019458,0.087562 -0.097291,0.087562 h -0.092427 q -0.097291,0 -0.097291,-0.1264784 0.097291,-0.3988931 0.097291,-0.5886106 0,-0.291873 -0.2626857,-0.3697058 Q 4.3440437,-3.35654 3.9062342,-3.35654 H 3.0792606 L 2.403088,-0.64698524 q -0.043781,0.12161377 -0.043781,0.21890478 0,0.0778328 0.3405185,0.0778328 h 1.2064086 q 0.7199535,0 1.1674921,-0.11188466 0.4475387,-0.11188467 0.7394117,-0.3551122 0.2967376,-0.24809208 0.5107779,-0.62752698 0.2140402,-0.379435 0.5205069,-1.104253 0.019458,-0.063239 0.087562,-0.063239 h 0.092427 q 0.038916,0 0.068104,0.034052 0.029187,0.034052 0.029187,0.077833 0,0.019458 -0.00973,0.038916 L 6.0855529,-0.05837461 Q 6.0660947,0 6.0077201,0 Z"
         id="path26" /></g><g
       aria-label="="
       transform="matrix(1,0,0,-1,296.95,645.28)"
       id="text16"
       style="font-size:9.9626px;font-family:CMR10;-inkscape-font-specification:CMR10"><path
         d="m 0.7491408,-1.3231578 q -0.0826974,0 -0.13620742,-0.063239 -0.05351,-0.063239 -0.05351,-0.1362075 0,-0.082697 0.05351,-0.1410719 0.0535101,-0.058375 0.13620742,-0.058375 H 7.004953 q 0.072968,0 0.1264783,0.058375 0.05351,0.058375 0.05351,0.1410719 0,0.072968 -0.05351,0.1362075 -0.05351,0.063239 -0.1264783,0.063239 z m 0,-1.9360911 q -0.0826974,0 -0.13620742,-0.058375 -0.05351,-0.058375 -0.05351,-0.1410719 0,-0.072968 0.05351,-0.1362074 0.0535101,-0.063239 0.13620742,-0.063239 H 7.004953 q 0.072968,0 0.1264783,0.063239 0.05351,0.063239 0.05351,0.1362074 0,0.082697 -0.05351,0.1410719 -0.05351,0.058375 -0.1264783,0.058375 z"
         id="path29" /></g><g
       aria-label="mc"
       transform="matrix(1,0,0,-1,307.466,645.28)"
       id="text20"
       style="font-size:9.9626px;font-family:CMMI10;-inkscape-font-specification:CMMI10"><path
         d="m 0.768599,-0.17025927 q 0,-0.0583746 0.009729,-0.0875619 L 1.5226044,-3.2300616 q 0.072968,-0.2772794 0.072968,-0.4864551 0,-0.4280805 -0.291873,-0.4280805 -0.31133127,0 -0.46213234,0.3745704 -0.15080107,0.3697059 -0.29187304,0.9388583 0,0.029187 -0.0291873,0.048646 -0.0291873,0.014594 -0.0535101,0.014594 H 0.35024765 q -0.0340519,0 -0.0583746,-0.034052 -0.0243227,-0.038916 -0.0243227,-0.068104 0.10702011,-0.432945 0.20431112,-0.7345471 0.10215557,-0.3016022 0.31133125,-0.5496943 0.21404023,-0.248092 0.53023608,-0.248092 0.3745704,0 0.6615789,0.2383629 0.2870085,0.2334985 0.2870085,0.5983398 0.2967375,-0.3891641 0.6956307,-0.6129334 0.3988932,-0.2237693 0.8464318,-0.2237693 0.4718614,0 0.81238,0.2432275 0.3453831,0.238363 0.3453831,0.6810371 0.3064667,-0.432945 0.7150889,-0.6761726 0.4134868,-0.248092 0.8999419,-0.248092 0.5156424,0 0.8269736,0.2821439 0.3161958,0.2772794 0.3161958,0.7929217 0,0.4086223 -0.1848529,0.9875038 -0.1799884,0.5788816 -0.4524032,1.2939705 -0.141072,0.3453831 -0.141072,0.59833974 0,0.29673759 0.2334984,0.29673759 0.3891641,0 0.6469853,-0.41835136 0.2578211,-0.41835135 0.3648413,-0.89507727 0.029187,-0.058375 0.082697,-0.058375 h 0.1167492 q 0.038916,0 0.063239,0.029187 0.029187,0.024323 0.029187,0.058375 0,0.00973 -0.00973,0.029187 -0.1362074,0.56428784 -0.476726,1.0410138 -0.335654,0.47672597 -0.8415672,0.47672597 -0.3502477,0 -0.5983398,-0.23836299 -0.248092,-0.24322753 -0.248092,-0.58861063 0,-0.17512382 0.082697,-0.38916405 0.282144,-0.7491408 0.4669969,-1.3377514 0.1897175,-0.5886107 0.1897175,-1.0361493 0,-0.2772794 -0.1118847,-0.4718614 Q 6.8201,-4.1445972 6.5574143,-4.1445972 q -0.5448297,0 -0.9437228,0.335654 -0.3988932,0.3307895 -0.6907662,0.8804837 -0.019458,0.097291 -0.029187,0.1508011 L 4.2516176,-0.21890478 Q 4.2175656,-0.08269736 4.095952,0.01459365 3.9792027,0.11188467 3.8332662,0.11188467 q -0.1167492,0 -0.2091757,-0.07783282 -0.087562,-0.07783281 -0.087562,-0.20431112 0,-0.0583746 0.00973,-0.0875619 L 4.1835136,-2.7971166 q 0.1021555,-0.4086223 0.1021555,-0.6810371 0,-0.2772794 -0.1167492,-0.4718614 -0.1118846,-0.1945821 -0.3842995,-0.1945821 -0.3648413,0 -0.671308,0.1605302 -0.3064667,0.1605302 -0.5351005,0.4280805 -0.2286339,0.2626857 -0.4183514,0.627527 L 1.483688,-0.21890478 Q 1.449636,-0.08269736 1.3280223,0.01459365 1.2112731,0.11188467 1.0653366,0.11188467 q -0.12161377,0 -0.20917568,-0.07783282 Q 0.768599,-0.04378096 0.768599,-0.17025927 Z"
         id="path32" /><path
         d="m 9.914655,-1.1869504 q 0,0.43294505 0.218905,0.73454719 0.223769,0.30160214 0.637256,0.30160214 0.593475,0 1.138305,-0.27241484 0.549694,-0.27241483 0.895077,-0.75400539 0.02919,-0.029187 0.07783,-0.029187 0.04865,0 0.09729,0.058375 0.05351,0.05351 0.05351,0.1021556 0,0.038916 -0.01946,0.0583746 -0.364842,0.51077782 -0.982639,0.80751541 -0.617798,0.29187304 -1.279377,0.29187304 -0.476726,0 -0.8415676,-0.22376934 Q 9.5449491,-0.34051855 9.3455026,-0.7199535 9.146056,-1.0993884 9.146056,-1.5761144 q 0,-0.671308 0.3745704,-1.3328869 0.3745704,-0.6615789 0.9972326,-1.0750657 0.622663,-0.4183513 1.308564,-0.4183513 0.447539,0 0.802651,0.2189047 0.359977,0.2140403 0.359977,0.6372562 0,0.2724148 -0.16053,0.4669968 -0.155666,0.1897175 -0.423216,0.1897175 -0.16053,0 -0.272415,-0.097291 -0.10702,-0.1021556 -0.10702,-0.2626857 0,-0.2334985 0.170259,-0.3988932 0.17026,-0.1653947 0.398893,-0.1653947 h 0.01946 q -0.11675,-0.1702593 -0.340519,-0.2480921 -0.218905,-0.082697 -0.457268,-0.082697 -0.583746,0 -1.021555,0.5010488 -0.43781,0.4961841 -0.661579,1.1918149 -0.218905,0.6907662 -0.218905,1.2647831 z"
         id="path34" /></g><g
       aria-label="2"
       transform="matrix(1,0,0,-1,320.525,649.394)"
       id="text24"
       style="font-size:6.9738px;font-family:CMR7;-inkscape-font-specification:CMR7"><path
         d="m 1.3382341,-0.5788799 h 2.400649 V 0 H 0.51077638 v -0.5788799 q 0.39159523,-0.40521593 1.06582002,-1.0862511 0.67763,-0.6844404 0.851294,-0.8819406 0.3303021,-0.3711641 0.4596987,-0.6265523 0.1328019,-0.2587934 0.1328019,-0.5073712 0,-0.4052159 -0.2860348,-0.6606041 -0.2826296,-0.2553882 -0.7389231,-0.2553882 -0.3234917,0 -0.6844404,0.1123708 -0.35754346,0.1123708 -0.76616456,0.3405176 v -0.6946559 q 0.41543146,-0.1668536 0.77638006,-0.251983 0.3609487,-0.085129 0.6606042,-0.085129 0.7900008,0 1.259915,0.3950004 0.4699143,0.3950004 0.4699143,1.0556045 0,0.3132762 -0.1191812,0.5959058 -0.1157759,0.2792244 -0.4256469,0.6606041 -0.085129,0.09875 -0.541423,0.5720695 -0.4562936,0.4699143 -1.2871565,1.3178027 z"
         id="path37" /></g></g></svg>
