<?xml version="1.0" encoding="UTF-8" standalone="no"?>
<!-- Created with Inkscape (http://www.inkscape.org/) -->

<svg
   version="1.1"
   id="svg1"
   width="751.65955"
   height="751.65955"
   viewBox="0 0 751.65955 751.65955"
   sodipodi:docname="jackOlantern2.svg"
   inkscape:version="1.3 (0e150ed6c4, 2023-07-21)"
   xmlns:inkscape="http://www.inkscape.org/namespaces/inkscape"
   xmlns:sodipodi="http://sodipodi.sourceforge.net/DTD/sodipodi-0.dtd"
   xmlns="http://www.w3.org/2000/svg"
   xmlns:svg="http://www.w3.org/2000/svg">
  <defs
     id="defs1" />
  <sodipodi:namedview
     id="namedview1"
     pagecolor="#ffffff"
     bordercolor="#111111"
     borderopacity="1"
     inkscape:showpageshadow="0"
     inkscape:pageopacity="0"
     inkscape:pagecheckerboard="1"
     inkscape:deskcolor="#d1d1d1"
     inkscape:zoom="1.0337127"
     inkscape:cx="375.82977"
     inkscape:cy="375.82977"
     inkscape:window-width="1920"
     inkscape:window-height="991"
     inkscape:window-x="-9"
     inkscape:window-y="-9"
     inkscape:window-maximized="1"
     inkscape:current-layer="g1" />
  <g
     inkscape:groupmode="layer"
     inkscape:label="Image"
     id="g1">
    <path
       style="fill:#000000"
       d="M 290.55318,672.01981 C 259.7647,665.82107 221.08059,648.5451 187.10821,625.82222 163.82678,610.25013 134.96667,583.97303 118.92851,563.74466 89.297714,526.37239 70.398084,481.75049 63.776825,433.5319 61.556957,417.36596 60.557775,358.07138 62.202139,340.08509 67.35051,283.77146 82.921119,237.6229 107.98879,204.38147 c 21.85271,-28.97817 51.13895,-48.58028 86.38703,-57.82128 14.42301,-3.78128 41.27011,-7.37909 71.0851,-9.52619 9.61302,-0.69227 9.63275,-0.69935 10.48078,-3.75741 2.10989,-7.60847 3.94937,-21.73013 4.78911,-36.765955 1.02128,-18.286185 2.80672,-25.327471 9.02339,-35.585727 7.15482,-11.806311 22.78561,-24.612255 36.31615,-29.752973 3.95766,-1.503653 6.62318,-1.740644 14.11699,-1.255141 11.61558,0.752541 15.90289,2.758576 19.04669,8.911971 2.71827,5.320492 2.90271,9.660819 0.6498,15.291395 -2.33407,5.833412 -6.13401,8.111341 -16.5142,9.899681 -14.55643,2.50784 -20.42052,5.940949 -25.22462,14.767656 -4.20405,7.724222 -4.71621,17.126145 -1.33523,24.511183 1.38281,3.02045 4.5429,7.48951 7.02242,9.93124 5.00967,4.93332 12.43067,10.34454 14.18661,10.34454 0.6271,0 4.68046,-2.04171 9.00748,-4.53714 20.93564,-12.07376 39.98684,-19.419779 60.35334,-23.271859 17.34086,-3.279816 46.9464,-3.276711 63.15055,0.0066 24.54591,4.973565 43.5445,11.576845 68.26073,23.725145 85.56824,42.05774 137.13035,116.1924 149.16128,214.4602 2.34712,19.1712 2.33673,62.72373 -0.0196,82.21277 -7.49571,61.99582 -28.6197,114.16544 -64.3031,158.8085 -9.11097,11.39862 -33.45936,35.18051 -45.07981,44.03097 -47.17434,35.9293 -99.40953,54.9983 -150.63478,54.99082 -17.92994,-0.003 -26.17205,-1.62547 -46.46809,-9.14944 -7.86383,-2.91521 -16.59574,-5.52684 -19.40425,-5.80363 -5.36461,-0.5287 -6.45772,-0.0982 -22.00244,8.66495 -3.1141,1.75555 -8.629,3.89122 -12.25531,4.74593 -8.81503,2.07769 -25.72309,1.87856 -37.23161,-0.43849 z m 38.65092,-2.41879 c 2.72183,-0.84979 9.15587,-3.97426 14.29787,-6.94327 14.60442,-8.43265 16.9409,-8.30087 47.08825,2.65584 15.18099,5.51736 25.69232,7.0496 43.45232,6.33408 52.27195,-2.10595 106.2477,-24.05102 151.14893,-61.45303 10.30196,-8.58138 30.59663,-29.61778 39.00193,-40.42739 22.20188,-28.55264 40.34884,-64.1781 50.29735,-98.74191 4.89589,-17.00964 9.3326,-40.6447 11.35168,-60.47216 2.34308,-23.00914 1.64269,-63.51022 -1.46586,-84.76596 -7.33999,-50.1895 -26.43329,-95.51246 -55.71548,-132.25531 -7.2273,-9.06871 -27.35131,-29.43694 -36.19031,-36.62951 -41.81816,-34.02878 -92.8923,-56.19996 -140.60742,-61.037413 -9.02062,-0.914528 -14.8561,-0.905295 -25.24484,0.03994 -28.6717,2.608741 -46.6434,8.302521 -75.72403,23.990811 l -11.14804,6.0141 8.08421,3.90534 c 4.44632,2.14795 12.56507,5.34754 18.04167,7.11021 5.47659,1.76267 9.95744,3.67662 9.95744,4.25323 0,2.30476 -4.55269,8.17963 -10.53692,13.59701 -7.03439,6.36807 -19.12045,12.7703 -29.29286,15.51702 -9.51518,2.56926 -40.18188,2.54914 -51.18036,-0.0336 -12.57073,-2.95191 -21.73364,-10.31782 -18.45569,-14.83621 1.75641,-2.42106 8.38787,-15.81999 8.0145,-16.19336 -1.2457,-1.2457 -55.81657,4.57095 -69.61249,7.41992 -20.75148,4.28536 -45.09852,14.58245 -60.25532,25.48379 -14.53484,10.45402 -29.92085,26.60371 -40.81941,42.8455 -6.635976,9.88939 -19.022609,35.60802 -23.392567,48.57047 -10.723184,31.80782 -16.975111,71.52117 -16.952428,107.68484 0.02494,39.75516 2.850516,68.6164 9.15956,93.5582 18.950298,74.91698 72.176285,138.48194 149.718515,178.80083 23.23642,12.08202 50.32361,22.28432 68.32888,25.73584 4.49362,0.86141 9.08936,1.79175 10.21277,2.06742 3.95024,0.96937 23.5452,-0.26766 28.43815,-1.7953 z m -38.3534,-64.19919 c -8.15933,-9.5506 -16.14929,-21.40009 -20.68199,-30.67239 l -4.41481,-9.03114 -3.12314,3.78891 c -4.39441,5.33118 -8.88724,14.25106 -10.35346,20.55532 -0.68584,2.94894 -1.73471,5.3617 -2.33081,5.3617 -2.06515,0 -16.01785,-11.24993 -23.73652,-19.13852 -4.26502,-4.35892 -9.8674,-11.07473 -12.44974,-14.92403 -4.9756,-7.41678 -10.41066,-19.88958 -10.52352,-24.15021 -0.0664,-2.50528 -0.0973,-2.51486 -1.64967,-0.51064 -5.65461,7.30065 -11.17034,22.93562 -12.23463,34.68051 -0.46629,5.14567 -1.12525,7.70247 -1.98515,7.70247 -1.70767,0 -19.33383,-18.57929 -28.58208,-30.12766 -32.97909,-41.18123 -47.32836,-78.96913 -50.02765,-131.74468 -1.2993,-25.40348 5.76266,-57.67481 18.32592,-83.74467 2.97757,-6.17873 6.85584,-13.18724 8.61837,-15.57447 3.76223,-5.0957 6.72254,-5.86977 5.8585,-1.53192 -2.16799,10.88434 -3.17017,27.60956 -3.16684,52.85107 0.003,23.47105 0.34287,30.42598 1.89598,38.8085 2.59076,13.98302 6.25471,26.31087 10.14771,34.14336 3.84625,7.73843 5.81814,9.02013 5.81814,3.7817 0,-8.71877 8.35196,-27.71837 17.3736,-39.52264 6.37626,-8.34294 11.95846,-14.2322 13.49016,-14.2322 1.21781,0 1.62445,2.73679 2.16234,14.55319 0.76136,16.72557 3.00759,35.21963 5.79891,47.74468 2.46797,11.0741 8.01724,28.78848 8.09472,25.83995 0.19193,-7.30403 10.58845,-31.18152 18.7305,-43.01798 5.70944,-8.30007 11.08797,-14.48155 12.60045,-14.48155 0.95853,0 1.40889,1.28222 1.40889,4.01121 0,6.84553 2.07692,19.36825 4.73159,28.52894 5.40368,18.64699 15.99815,36.26932 30.40987,50.58233 l 9.14254,9.07992 2.29586,-8.64854 c 1.26272,-4.7567 4.17736,-12.72105 6.47697,-17.69856 4.12868,-8.9365 14.5718,-25.34107 20.37839,-32.01138 3.0786,-3.53652 5.20308,-3.56598 5.20308,-0.0721 0,2.51977 10.32946,22.52682 16.83687,32.6112 2.71849,4.21277 10.03804,14.98131 16.26568,23.93009 l 11.32298,16.27051 1.20189,-13.97891 c 0.66104,-7.6884 2.17834,-19.08266 3.37178,-25.32057 3.15098,-16.46966 9.82263,-36.6458 12.11767,-36.6458 0.51378,0 3.06411,3.79504 5.6674,8.43342 6.10269,10.8734 18.77524,27.95387 31.14869,41.9832 l 9.78764,11.09747 2.21732,-5.0593 c 6.21028,-14.17008 12.6006,-46.02894 12.61056,-62.86982 0.006,-10.06178 1.131,-10.68887 8.41864,-4.69253 25.58125,21.04853 41.22454,39.86819 51.60677,62.08557 l 4.53471,9.70401 2.89831,-3.5325 c 7.40068,-9.02006 16.74134,-31.24846 21.22549,-50.51122 2.80749,-12.06031 5.27823,-32.4319 5.27823,-43.51981 0,-6.32581 0.37949,-9.00303 1.32775,-9.36691 1.62572,-0.62385 9.06466,8.03871 16.73959,19.49307 6.594,9.84113 12.03619,21.70948 13.79058,30.0745 0.67738,3.22979 1.50941,5.87234 1.84897,5.87234 1.55661,0 11.75309,-34.80108 14.81174,-50.55319 3.6561,-18.82897 3.81813,-41.29433 0.34463,-47.78461 -1.68541,-3.14922 1.19654,-4.34021 3.54555,-1.46522 17.42962,21.33234 27.36622,40.77548 27.16466,53.15364 l -0.0861,5.28768 -1.94931,-8.64253 c -2.48547,-11.01971 -10.23622,-26.95487 -18.34443,-37.71527 -3.43174,-4.55427 -6.32016,-8.28003 -6.41871,-8.27946 -0.0986,5.7e-4 -0.18477,8.38781 -0.19161,18.6383 -0.0105,15.68449 -0.38711,20.33621 -2.37729,29.36066 -5.33071,24.17198 -15.33888,55.75352 -16.62814,52.47135 -0.71583,-1.82233 -0.76065,-1.81612 -0.89711,0.12439 -0.079,1.12341 -0.97856,-1.91517 -1.99903,-6.75239 -3.00282,-14.23404 -12.41648,-32.16419 -23.97833,-45.67142 l -4.66086,-5.44509 v 8.02878 c 0,25.46558 -9.06636,64.45262 -19.07134,82.01034 -6.52511,11.45089 -10.85163,17.3617 -12.70819,17.3617 -1.05743,0 -1.92259,-0.67484 -1.92259,-1.49964 0,-3.13772 -12.52341,-25.95602 -19.07502,-34.75568 -7.48054,-10.04734 -24.87932,-27.79557 -34.85701,-35.55712 l -6.32329,-4.91883 0,6.65375 c 0,9.26315 -2.65772,28.81417 -5.56951,40.97114 -3.23716,13.51534 -8.58371,28.0937 -10.5849,28.86163 -1.77427,0.68085 -8.24846,-6.00093 -21.21082,-21.89091 -7.66243,-9.39304 -24.93264,-34.45318 -24.93264,-36.1788 0,-2.78007 -1.92567,-0.079 -4.25897,5.97403 -5.40504,14.02158 -9.67549,36.03062 -10.70064,55.14894 -0.48949,9.12872 -1.0239,12.51064 -1.97694,12.51064 -1.63821,0 -9.63253,-10.85906 -24.43521,-33.19149 -11.84616,-17.872 -19.80766,-31.87023 -21.90454,-38.51346 l -1.1963,-3.79005 -2.85224,3.27941 c -5.00085,5.74984 -12.36402,17.16556 -16.89193,26.18893 -4.64261,9.25195 -9.74067,24.01492 -9.74067,28.20704 0,4.53237 -3.49388,2.78893 -12.89725,-6.4357 -20.74376,-20.34948 -32.83801,-45.72307 -35.64001,-74.77233 l -0.73533,-7.62339 -2.5225,3.02765 c -12.13734,14.56793 -22.72132,36.2377 -26.33016,53.9087 -1.30309,6.38068 -4.724,-0.10053 -9.28303,-17.58749 -3.97839,-15.25985 -6.43146,-31.63848 -7.76558,-51.84916 l -1.22487,-18.55559 -4.14106,4.6535 c -13.45383,15.1187 -21.7803,31.59997 -24.20679,47.91453 -0.7057,4.74482 -1.56224,7.46725 -2.27738,7.23843 -2.96443,-0.94852 -10.95852,-17.72839 -13.94184,-29.26439 -5.65008,-21.8479 -7.41161,-54.82521 -4.63126,-86.70119 0.94691,-10.85611 1.99092,-20.50718 2.32001,-21.4468 1.51311,-4.32025 -6.01976,7.54244 -10.28466,16.19617 -14.39735,29.21305 -21.06806,64.59807 -18.09162,95.96774 3.80447,40.09657 17.23155,76.39095 39.29334,106.21277 5.58183,7.54518 21.50907,26.43953 29.60995,35.12603 l 6.56625,7.04093 0.6978,-6.01965 c 1.01248,-8.7343 3.31021,-17.27907 6.83663,-25.42391 3.11466,-7.19383 7.36848,-13.78723 8.89501,-13.78723 0.4524,0 1.57037,3.03034 2.48436,6.7341 4.22743,17.13073 17.53707,34.82265 37.4687,49.80553 l 6.53147,4.9098 1.13599,-4.93749 c 0.6248,-2.71561 2.18846,-7.00556 3.4748,-9.53322 3.06196,-6.01676 10.19353,-15.31915 11.74423,-15.31915 0.67088,0 2.26728,2.52725 3.54753,5.6161 3.30908,7.98374 12.18999,21.77783 20.24938,31.45196 6.13789,7.36763 6.93989,8.0099 7.21807,5.78047 1.24295,-9.96144 13.69384,-42.84115 16.22498,-42.84613 0.67032,-0.001 3.65217,2.64015 6.62632,5.86994 2.97416,3.22979 12.97424,13.44589 22.22241,22.70245 l 16.81487,16.83012 1.19475,-8.14927 c 0.65711,-4.48209 2.11565,-10.90671 3.24119,-14.27692 1.12554,-3.37021 2.3177,-7.27659 2.64925,-8.68085 0.96618,-4.09219 7.90124,-14.43574 9.45088,-14.09586 0.7739,0.16975 3.89372,4.65971 6.93293,9.9777 3.0392,5.31799 9.59388,15.29564 14.56594,22.17255 l 9.04012,12.50348 1.16535,-7.52228 c 1.56562,-10.10595 2.69616,-13.49212 8.79902,-26.35474 3.36627,-7.09487 5.77673,-10.97802 6.81381,-10.97675 0.88264,0.001 3.15678,2.27909 5.05365,5.06222 5.41214,7.94085 22.94821,24.55283 25.91865,24.55283 1.36241,0 10.67301,-20.16924 12.4933,-27.06383 0.88979,-3.37021 1.89732,-9 2.23895,-12.51064 0.35789,-3.67773 1.10792,-6.38298 1.76967,-6.38298 1.9251,0 19.14103,15.73171 25.04649,22.88717 3.05481,3.70142 5.88758,6.72985 6.29504,6.72985 2.21951,0 20.04078,-25.6184 26.46142,-38.03877 1.95892,-3.78941 4.02124,-6.89004 4.58294,-6.89028 1.29924,-5.7e-4 10.18733,15.47457 13.33284,23.21392 1.31559,3.23694 2.59179,5.88535 2.83601,5.88535 0.24422,0 2.26866,-2.20806 4.49877,-4.90679 5.06546,-6.12992 13.4303,-20.68882 16.96925,-29.53481 3.66078,-9.15051 7.80701,-26.72223 7.80862,-33.09292 8.3e-4,-3.28699 0.54359,-5.6867 1.45782,-6.44544 1.19791,-0.99418 1.83252,-0.35873 3.57447,3.57924 1.16488,2.63341 2.11797,5.32013 2.11797,5.97049 0,0.65035 1.58521,5.07278 3.52269,9.82762 3.82382,9.38418 6.69007,19.36584 6.69007,23.29803 0,2.30807 0.22126,2.20523 3.20796,-1.49116 8.46663,-10.47842 19.63637,-29.18622 25.81107,-43.23003 14.21311,-32.32644 19.00213,-63.77603 15.87945,-104.28072 -2.95735,-38.36018 -12.13582,-68.72868 -28.01226,-92.68327 -4.64342,-7.00606 -13.77578,-17.95045 -14.43139,-17.29484 -0.20112,0.20112 0.76506,4.04762 2.14707,8.54777 5.17725,16.85837 10.93404,44.34765 13.23188,63.18364 2.44294,20.02537 2.20959,60.52736 -0.42071,73.02128 -0.6748,3.2053 -0.75169,0.57891 -0.25413,-8.68085 1.01321,-18.8561 0.67582,-47.09918 -0.71981,-60.25532 -2.25956,-21.30026 -8.3574,-50.30027 -14.81734,-70.46808 -3.03242,-9.46719 -3.21976,-10.83759 -1.10864,-8.11009 1.51168,1.95305 1.52567,1.95216 0.94421,-0.0601 -0.90439,-3.12984 10.3913,9.26418 15.82314,17.3617 18.58596,27.707 27.23711,57.7552 29.69753,103.14893 2.20894,40.75419 -4.31582,74.55413 -20.69891,107.22572 -7.52166,14.99989 -22.92314,37.28491 -25.7681,37.28491 -0.86598,0 -1.70172,-1.52623 -2.09713,-3.82978 -1.01153,-5.89298 -2.9853,-12.24573 -6.5841,-21.19149 -1.80774,-4.49362 -4.00556,-10.46809 -4.88405,-13.2766 l -1.59726,-5.10638 -1.3634,9.19149 c -2.72371,18.36211 -8.88332,35.17779 -18.22062,49.74212 -5.02223,7.83368 -11.38859,15.10894 -13.22137,15.10894 -0.59671,0 -1.93423,-2.41277 -2.97225,-5.3617 -1.03802,-2.94894 -4.23039,-9.57848 -7.09414,-14.73232 l -5.20683,-9.37062 -4.31182,8.06987 c -4.94138,9.24812 -16.87864,26.9181 -22.68703,33.5822 l -3.94645,4.52785 -2.43888,-2.55398 c -1.34138,-1.40469 -4.19502,-4.71786 -6.34141,-7.36259 -2.1464,-2.64473 -7.88042,-8.28631 -12.74228,-12.53683 l -8.83973,-7.72824 -1.70564,8.52042 c -0.9381,4.68622 -2.497,10.81828 -3.46423,13.62679 -2.59079,7.52284 -9.9849,22.13625 -11.49342,22.71512 -3.05649,1.17289 -19.28607,-12.65924 -26.95179,-22.97044 -2.19234,-2.94894 -4.42538,-5.3617 -4.9623,-5.3617 -1.38597,0 -7.67653,12.84192 -10.69459,21.83258 -1.40349,4.18091 -2.89892,10.70737 -3.32317,14.50322 -0.42426,3.79586 -1.29185,7.0743 -1.92798,7.28543 -2.25545,0.74859 -21.90161,-26.59295 -28.58453,-39.78105 -2.53346,-4.99955 -2.7458,-5.16674 -4.16274,-3.27764 -5.34274,7.12312 -11.14434,23.8884 -12.347,35.68002 -0.53742,5.26913 -1.14585,7.21636 -2.32552,7.44264 -1.59028,0.30503 -24.01689,-21.07432 -38.61994,-36.81649 l -7.36526,-7.93979 -3.6258,7.93979 c -4.82889,10.57435 -9.67308,25.1298 -10.45537,31.41555 -0.86418,6.94366 -2.77899,7.01323 -8.50652,0.30908 z M 336.24679,384.75761 C 323.7536,372.25516 313.5319,361.45516 313.5319,360.75762 c 0,-0.9918 10.24114,-1.26827 46.97872,-1.26827 25.8383,0 46.97873,0.34843 46.97873,0.77428 0,1.16967 -46.32941,47.22572 -47.50603,47.22572 -0.5619,0 -11.24333,-10.22928 -23.73653,-22.73174 z m 45.71064,-1.26826 21.93963,-21.95745 h -43.89707 -43.89708 l 21.93963,21.95745 c 12.0668,12.07659 21.94765,21.95744 21.95745,21.95744 0.01,0 9.89065,-9.88085 21.95744,-21.95744 z m -194.54673,-85.27014 -16.31003,-16.33396 22.9603,-23.33959 c 13.48116,-13.70387 23.80356,-23.40121 25.00285,-23.48883 1.23424,-0.0902 6.89242,3.9142 14.29787,10.11882 6.74043,5.64742 27.48571,22.97222 46.10063,38.49956 20.61303,17.19404 33.64679,28.74886 33.33754,29.55475 -0.40694,1.06048 -11.28688,1.32322 -54.79345,1.32322 h -54.28568 z m 119.77376,11.39119 c -1.84508,-1.59513 -18.72915,-15.72705 -37.52015,-31.40426 -18.79101,-15.67721 -37.86335,-31.60465 -42.38298,-35.3943 l -8.21751,-6.89028 -22.97872,22.99022 -22.97872,22.99023 15.38652,15.30431 15.38653,15.30431 h 53.32986 53.32986 z m 99.28361,3.28177 c 0,-1.55999 93.4707,-124.97728 94.65217,-124.97728 1.61266,0 47.30527,60.62386 47.30527,62.7635 0,0.83693 -6.90086,11.8676 -15.33525,24.51261 -10.86884,16.29479 -15.99981,23.13621 -17.61702,23.48978 -4.82013,1.05381 -103.53353,14.8651 -106.19666,14.8583 -1.54468,-0.004 -2.80851,-0.29505 -2.80851,-0.64691 z m 58.7234,-8.88951 51.06383,-7.32182 15.34103,-23.03382 15.34103,-23.03381 -22.93948,-30.66481 -22.93948,-30.6648 -14.40219,19.48585 c -7.92121,10.71723 -28.28488,37.95868 -45.25261,60.53657 -16.96774,22.57789 -30.85042,41.30555 -30.85042,41.61702 0,0.89859 0.91932,0.78215 54.63829,-6.92038 z M 328.85105,170.07705 c 13.61748,-2.66154 21.7901,-6.06862 30.88325,-12.87492 4.90782,-3.67354 14.05455,-13.49657 14.05175,-15.09072 -6.4e-4,-0.36554 -4.33213,-2.1446 -9.62554,-3.95349 -16.30671,-5.5724 -32.72686,-14.14818 -39.85242,-20.81378 -8.92683,-8.35062 -12.13832,-14.65849 -12.13631,-23.837641 0.004,-18.466583 10.15129,-29.237239 30.29069,-32.151642 3.46691,-0.501701 7.56709,-1.402458 9.11152,-2.001683 6.40183,-2.483861 9.01058,-13.486205 4.82535,-20.350802 -2.90976,-4.77257 -7.40679,-6.321522 -18.35312,-6.321522 -8.31991,0 -9.89441,0.321234 -15.60727,3.184245 -14.81135,7.422733 -25.38468,17.227977 -31.78348,29.474612 -5.51679,10.558574 -6.76472,16.242168 -7.74108,35.256033 -1.26282,24.59243 -5.61599,41.80823 -13.30037,52.59994 -1.12176,1.57537 -2.03956,3.55001 -2.03956,4.38809 0,2.24523 6.27115,7.35887 11.45025,9.33678 11.36098,4.3388 35.84224,5.88969 49.82634,3.1565 z"
       id="path1" />
  </g>
</svg>
