<?xml version="1.0" encoding="UTF-8" standalone="no"?>
<!-- Created with Inkscape (http://www.inkscape.org/) -->

<svg
   version="1.1"
   id="svg1"
   width="751.65955"
   height="751.65955"
   viewBox="0 0 751.65955 751.65955"
   sodipodi:docname="JackOlanternLines.svg"
   inkscape:version="1.3 (0e150ed6c4, 2023-07-21)"
   xmlns:inkscape="http://www.inkscape.org/namespaces/inkscape"
   xmlns:sodipodi="http://sodipodi.sourceforge.net/DTD/sodipodi-0.dtd"
   xmlns="http://www.w3.org/2000/svg"
   xmlns:svg="http://www.w3.org/2000/svg">
  <defs
     id="defs1">
    <clipPath
       clipPathUnits="userSpaceOnUse"
       id="clipPath37">
      <path
         id="path38"
         style="fill:#ff0000;fill-opacity:1;fill-rule:nonzero;stroke:none"
         d="M 45.908203,35.494141 V 679.80469 H 674.22852 V 35.494141 Z M 326.27344,130.20508 c 1.55684,-0.0484 1.62579,0.58072 1.10156,1.47851 0.664,0.50239 1.27909,0.91189 1.83203,1.27735 0.73372,-0.21584 1.45774,-0.47292 2.21485,-0.59766 0.90206,-0.18233 2.40837,-0.52218 3.58984,-0.51172 0.15502,-0.0653 0.3085,-0.13261 0.46484,-0.19531 0.37719,-0.15127 0.74725,-0.32426 1.13867,-0.43359 0.53775,-0.15021 1.10882,-0.51182 1.64063,-0.3418 1.25761,0.40206 2.29135,1.30943 3.4375,1.96484 0.0946,0.8593 0.37406,1.71822 0.28516,2.57813 -0.009,0.0874 -0.0254,0.17395 -0.0449,0.25976 1.13877,0.0387 2.50731,-0.1145 3.3086,0.67774 0.0737,0.0728 0.13577,0.14049 0.20312,0.21094 0.456,0.22482 0.67005,0.50448 0.73828,0.89453 0.12263,0.18147 0.21985,0.35391 0.29883,0.52148 2.40711,-0.86384 4.83939,-1.64605 7.38086,-2.03125 2.96956,-0.47506 5.9536,-0.81739 8.94531,-1.12109 4.09665,-0.47885 8.18342,-1.09632 12.31641,-1.16602 1.8601,-0.0562 3.73264,-0.0836 5.5957,-0.0273 5.58921,0.16889 11.09901,1.10257 15.96289,4.34961 2.5619,1.71027 4.59739,4.09848 6.89649,6.14843 1.47876,2.70077 3.27214,5.25268 4.43554,8.10352 0.80382,1.96965 1.13275,4.11542 1.41016,6.22461 0.85185,6.47664 -0.683,12.91147 -2.92773,18.93359 -3.90432,9.16295 -8.98364,17.68495 -15.65235,25.13868 -3.6332,4.13774 -4.65697,5.43457 -8.63867,9.41796 -6.22703,6.22977 -13.05212,11.82214 -19.64258,17.65235 -4.83141,4.15627 -9.71339,8.24959 -14.73633,12.1582 -0.19544,1.17616 -0.32153,2.36561 -0.60937,3.52344 -0.46027,1.85144 -1.72213,3.40708 -2.67383,5.06055 -2.54007,4.41299 -5.93275,8.33294 -8.26172,12.88281 -2.93973,5.08167 -5.67796,10.27951 -8.11523,15.61328 0.7113,0.006 1.42164,0.0357 2.13281,0.0449 1.25865,-0.85422 2.52533,-1.6955 3.77344,-2.56641 7.36613,-4.8674 14.75396,-9.7006 22.29101,-14.30078 13.79254,-6.68583 15.53532,-5.85872 26.21094,12.83985 2.31491,-0.78988 4.6263,-1.59035 6.95899,-2.32617 1.44831,-0.45689 2.97328,-0.88348 4.45117,-1.33204 3.86689,-6.47323 7.5785,-12.27678 12.16992,-19.46484 4.04163,-6.19833 8.22418,-12.30282 12.34961,-18.44531 1.29509,-2.56824 2.70918,-5.22317 4.21484,-8.0293 1.74855,-2.95419 3.42202,-5.95199 5.24414,-8.86133 3.19208,-5.09652 7.45696,-11.21755 11.03516,-16.10547 1.47678,-2.01728 2.23416,-4.99435 4.5332,-5.97656 12.14029,-5.18654 19.71044,-8.57149 24.75586,-9.90039 2.43049,-3.37553 5.46912,-6.17265 9.76758,-6.75586 1.17357,-0.15923 2.35227,-0.25083 3.53516,-0.28125 8.28019,-0.21291 16.71916,2.55266 24.3457,5.80274 3.70827,1.58024 8.50733,14.20433 10.41602,18.55468 1.99605,4.19058 3.89758,8.46443 6.21289,12.50196 7.48208,1.01074 13.22156,4.0884 20.03515,9.97265 5.90668,5.10106 7.95832,11.72219 10.95508,18.51368 0.21571,0.81848 0.39868,1.6389 0.60938,2.45703 3.44709,-4.87751 8.30108,-8.3049 15.26562,-10.56446 5.32839,-1.72873 8.72561,-0.75087 14.26758,-0.22265 2.42979,0.92379 4.95375,1.62972 7.28906,2.77148 6.8992,3.37313 11.85642,9.62695 16.16602,15.74219 5.11225,7.66026 8.83694,16.08591 12.10547,24.66015 3.69822,10.40051 6.28406,21.12575 8.30078,31.9629 1.45876,8.78709 2.82577,17.59021 4.125,26.40234 0.89292,6.15693 2.25975,12.22811 3.46289,18.32812 1.02315,5.37344 2.01148,10.74687 2.73242,16.16993 0.70452,5.28245 1.61251,10.53446 2.42578,15.80078 0.72666,4.9843 1.47127,9.96568 2.11914,14.96093 0.69297,5.50858 1.15431,11.04158 1.32617,16.58985 0.0601,7.02635 -0.68503,14.01515 -1.79883,20.94141 -1.4629,8.61976 -4.31658,16.85887 -7.66015,24.90429 -3.08164,7.117 -6.92439,13.86416 -10.60156,20.68164 -3.66113,7.01904 -7.23415,14.07776 -11.20313,20.92969 -0.72007,1.25812 -1.50765,2.46551 -2.29492,3.67188 -0.98618,2.38048 -1.92685,4.78073 -2.97852,7.13281 -1.9985,4.32383 -4.09764,8.60662 -6.45117,12.75 -2.42055,4.27423 -4.74063,8.61783 -7.51953,12.67578 -5.53473,7.61643 -11.10554,12.83762 -20.45703,15.53711 -4.44654,0.682 -6.50814,1.34033 -11.17773,0.49414 -1.76488,-0.31982 -3.47205,-0.82038 -5.1211,-1.44727 -2.88955,5.46025 -6.00888,10.80282 -10.50976,15.11524 -1.02617,0.89729 -1.99654,1.86369 -3.07813,2.69336 -7.23182,5.5474 -15.32248,7.76632 -24.38281,6.3125 -0.98679,-0.28668 -1.96962,-0.58583 -2.96094,-0.85938 -2.51225,7.81358 -5.85048,15.01031 -12.05078,20.77149 -3.79396,3.03805 -4.76002,4.22905 -8.98242,6.19726 -7.96078,3.71076 -16.1076,4.0129 -24.33203,1.1836 -3.89111,-1.60098 -7.5656,-3.57602 -11.01953,-5.90625 -2.35608,4.35274 -5.54428,8.20778 -10.28516,11.56835 -2.88151,1.27758 -5.55666,3.20148 -8.64453,3.83399 -10.79884,2.21199 -19.25017,-1.08903 -27.24024,-7.71289 -0.19059,-0.16678 -0.37938,-0.33557 -0.57031,-0.50195 -1.04555,4.85319 -2.30997,9.86317 -4.85742,13.76367 -1.41926,2.17308 -3.16928,4.11236 -4.75391,6.16797 -2.43736,1.7131 -4.65144,3.79912 -7.3125,5.13867 -8.43369,4.24544 -18.26303,3.11887 -26.32226,-1.2168 -1.30621,-0.7027 -2.47848,-1.63282 -3.7168,-2.44922 -0.99087,-0.8354 -2.01456,-1.63307 -2.97266,-2.50586 -2.69817,-2.45791 -4.95855,-5.34602 -7.14257,-8.26758 -6.62612,4.60225 -14.38589,6.78609 -22.4668,6.32032 -1.63885,-0.25452 -3.2987,-0.3964 -4.91602,-0.76367 -5.15313,-1.17023 -9.87556,-3.63173 -14.30468,-6.4375 -3.93512,-2.55053 -7.77323,-5.25081 -11.53516,-8.05079 -1.06963,2.75415 -2.1943,5.48777 -3.57617,8.10743 -5.07325,8.49386 -10.6464,14.58356 -20.89844,16.73437 -2.0304,0.42597 -4.13206,0.39269 -6.19727,0.58984 -2.69725,-0.4438 -5.43963,-0.66808 -8.09179,-1.33007 -1.48915,-0.37169 -2.87102,-1.09439 -4.25781,-1.75196 -4.34346,-2.05939 -8.05987,-5.26687 -11.22657,-8.83007 -0.84966,-1.17033 -1.7712,-2.29233 -2.54883,-3.51172 -1.55467,-2.43795 -2.66877,-5.08277 -3.5996,-7.79883 -5.00783,2.41491 -10.49446,3.6462 -16.05079,3.75976 -1.26369,-0.0613 -2.53275,-0.0509 -3.79101,-0.18359 -5.42729,-0.57222 -10.65448,-2.35201 -15.36328,-5.0957 -2.74028,-1.54263 -5.58789,-2.87604 -8.34766,-4.38282 -6.53365,-3.95977 -11.64127,-8.59439 -15.51562,-15.28124 -0.13816,-0.25884 -0.23758,-0.53309 -0.37305,-0.79297 -7.2579,1.48153 -14.50804,0.61406 -21.31055,-2.25391 -3.30495,-1.58056 -6.50636,-3.3437 -9.50586,-5.45703 -0.23215,-0.15044 -0.46505,-0.30081 -0.69726,-0.45117 -0.0658,-0.0426 -0.0846,-0.0649 -0.19532,-0.13086 -5.6892,-0.95524 -11.14513,-2.78006 -15.80273,-6.32617 -0.90586,-0.74421 -1.86909,-1.42464 -2.71875,-2.23243 -3.29466,-3.13229 -5.92005,-6.77799 -7.79102,-10.91796 -1.8807,-3.85897 -3.64652,-7.77078 -5.26367,-11.74805 -1.37011,-3.2127 -2.672,-6.45837 -4.15429,-9.61914 -2.44204,-3.52162 -5.78668,-6.3431 -8.64844,-9.50586 -3.74371,-3.79089 -7.438656,-7.63412 -11.281252,-11.32422 -5.552212,-4.5603 -11.736406,-8.38213 -16.591797,-13.75586 -5.076819,-5.82976 -9.509,-12.13363 -13.097656,-18.99805 -1.352156,-2.58935 -2.681229,-5.03372 -3.837891,-7.73242 -2.905759,-6.77961 -4.667721,-13.90926 -5.138672,-21.28125 -0.413582,-11.84858 0.447465,-23.65669 2.208985,-35.38281 1.790217,-13.39513 3.836647,-26.75372 5.513672,-40.16406 1.827711,-14.21862 3.604559,-28.48852 7.09375,-42.41797 1.394597,-5.37104 2.193652,-8.88503 4.052734,-14.17578 3.305569,-9.40732 8.021265,-18.28689 14.349609,-26.01563 5.270334,-5.75962 6.230922,-7.40632 13.009768,-12.08203 5.53595,-3.81844 12.52326,-6.50913 19.22851,-8.08398 -1.33155,-5.73448 -2.03546,-11.79268 -0.67773,-17.50782 0.64064,-2.69661 1.81516,-5.2365 2.72266,-7.85547 1.02349,-1.62576 1.94888,-3.31895 3.07031,-4.8789 4.23834,-5.8958 10.45681,-10.02909 16.78125,-13.36133 3.94549,-1.87454 4.44831,-2.20929 8.625,-3.78711 6.98353,-2.6382 14.23446,-4.4565 21.40039,-6.50976 15.53372,-4.14074 31.30086,-7.58781 47.37109,-8.76954 14.92558,-1.2827 29.8771,-2.21269 44.83008,-3.10937 11.73252,-0.74737 23.50349,-1.4425 35.10742,-3.41992 2.70915,-0.44593 5.4456,-0.83191 8.17188,-1.28711 5.73842,-3.83491 11.1469,-8.10322 16.42578,-12.54297 -2.01785,0.51429 -4.02779,1.06373 -6.03125,1.63086 -3.26408,1.03914 -6.50815,2.09878 -9.83203,2.9375 -3.769,0.93895 -7.59238,1.59143 -11.45117,2.00976 -4.60637,0.3894 -9.22154,0.16303 -13.80274,-0.3789 -2.37412,-0.34673 -4.76044,-0.58909 -7.13867,-0.9043 -1.50848,-0.19139 -3.02127,-0.35312 -4.53125,-0.5332 -2.40164,-0.25359 -4.76078,-0.74874 -7.08984,-1.375 -1.60243,-0.54085 -2.01473,-0.67115 -2.43555,-0.83789 -1.26078,-0.0364 -3.55277,-0.34347 -4.21485,-0.42188 -1.3903,-0.17441 -2.76559,-0.43986 -4.13085,-0.75195 -0.26687,-0.061 -0.53294,-0.13021 -0.79883,-0.19531 -0.1175,-0.0288 -0.4697,-0.11212 -0.35156,-0.0859 0.28653,0.0633 0.57155,0.13292 0.85742,0.19922 1.94718,0.43988 3.93421,0.44215 5.91406,0.34375 0.18553,-0.009 0.32282,-0.0306 0.50391,-0.041 -0.11774,-0.0517 -0.29415,-0.13008 -0.22071,-0.0976 0.0904,0.0398 0.18193,0.054 0.27149,0.0918 44.11596,-2.57648 -43.20999,-40.9477 -10.83008,-47.31054 0.11265,-1.5853 0.70786,-2.52111 2.01758,-3.31836 1.19315,-0.73327 2.44241,-1.38347 3.81054,-1.72461 0.51304,-0.10447 1.02995,-0.18913 1.54883,-0.25196 0.0241,-0.0848 0.0421,-0.15235 0.0703,-0.24804 0.0455,-0.1544 0.14595,-0.28811 0.21875,-0.43164 0.34413,-0.63505 0.92731,-1.03681 1.45704,-1.4961 0.0775,-0.0664 0.18377,-0.16151 0.28125,-0.2539 0.0661,-0.16762 0.17891,-0.26885 0.6914,-1.13477 0.53891,-0.91055 0.95188,-1.28209 1.2793,-1.2832 0.73334,-0.002 1.03466,1.8518 1.33594,3.66992 0.62284,0.2799 1.17377,0.68872 1.57226,1.2793 0.27091,0.43258 0.47909,0.91303 0.59375,1.41015 0.10691,-0.15558 0.2187,-0.32925 0.33789,-0.53906 0.88949,-1.56569 0.47356,-0.58491 0.76758,-1.68555 0.14587,-0.54605 -0.18638,1.16574 -0.14648,0.68555 -0.19435,0.58958 -0.46359,1.1456 -0.85938,1.62891 -0.0214,0.026 -0.0447,0.0504 -0.0664,0.0762 0.0755,0.40518 0.0862,0.81829 0.0156,1.22656 0.23309,0.49607 0.46164,0.99478 0.71484,1.47852 -0.10489,0.26895 -0.1959,0.54304 -0.29492,0.81445 2.12794,0.28769 4.32055,0.17137 6.42188,0.67383 2.72824,0.56024 3.30987,0.58511 5.85937,1.45117 0.42255,0.14354 0.83421,0.31811 1.25,0.48047 0.21289,-0.12001 0.43885,-0.0465 0.66797,0.0976 1.30521,0.15 2.61148,0.29537 3.91406,0.4668 2.24929,0.30429 4.51109,0.51422 6.75586,0.85352 1.03449,0.16388 2.08534,0.20171 3.1211,0.22851 1.35365,0.23047 3.17808,-0.77228 4.54297,-0.83008 2.80234,-0.63471 5.44677,-1.82185 8.23632,-2.51562 4.23956,-1.19869 8.48905,-2.37754 12.80469,-3.27539 0.52538,-0.11138 3.41235,-0.95478 3.75586,-0.90235 1.40109,-0.76066 2.77398,-1.57572 4.21875,-2.2539 1.75691,-0.93598 3.5565,-1.78753 5.33398,-2.6836 0.61803,-0.51883 1.23558,-1.03816 1.85743,-1.55273 -0.50887,-0.0529 -0.88664,-0.21685 -1.26953,-0.66797 -0.176,0.048 -0.352,0.0882 -0.5254,0.11133 -0.53918,0.072 -1.18957,0.34153 -1.63086,0.0234 -0.5886,-0.42423 -1.06868,-0.96893 -1.52148,-1.54297 -0.0275,0.005 -0.0545,0.0123 -0.082,0.0176 -0.72428,0.1012 -1.44671,0.22036 -2.15234,0.41406 -0.4846,0.1389 -0.95305,0.32567 -1.42969,0.48828 -1.82539,0.53798 -2.1488,0.0472 -2.54492,-1.54297 -0.20002,-0.0606 -0.38606,-0.13212 -0.5586,-0.20508 -0.39741,-0.0473 -0.78388,-0.1535 -1.1582,-0.29492 -2.32949,-1.04646 -1.54693,-1.66074 -1.93945,-5.02148 0.61917,-1.08842 1.59464,-1.61924 2.68945,-2.10157 0.28569,-0.10689 0.54354,-0.26282 0.80078,-0.42187 0.25328,-0.16167 0.51051,-0.31794 0.77148,-0.4668 0.40704,-0.25032 0.85849,-0.39578 1.32032,-0.50195 l 0.61328,-0.0664 c 0.2104,-0.0226 0.40161,-0.0357 0.57422,-0.041 z m -46.49805,24.28515 c -0.19862,-0.0228 -0.39712,-0.0472 -0.5957,-0.0703 0.36299,0.14239 0.73017,0.27422 1.09179,0.41992 -0.1665,-0.14587 -0.33092,-0.24566 -0.49609,-0.34961 z m -0.5957,-0.0703 c -0.024,-0.009 -0.0483,-0.018 -0.0723,-0.0273 -0.009,0.005 -0.0169,0.0102 -0.0254,0.0156 0.0326,0.004 0.0651,0.008 0.0977,0.0117 z m -19.65235,-9.86328 c -0.002,0.005 -0.004,0.0104 -0.006,0.0156 0.0116,-0.11328 -0.10642,0.44234 -0.0781,0.33203 0.0448,-0.17477 0.0599,-0.24602 0.084,-0.34766 z m -0.41601,0.53711 c -0.0651,-0.003 -0.13503,0.002 -0.21094,0.0137 -0.0464,0.009 -0.0896,0.0262 -0.13477,0.0391 -0.0766,0.0527 -0.15463,0.1093 -0.23632,0.17188 -0.39871,0.36017 -0.7015,0.7895 -0.89649,1.26953 0.15091,-0.018 0.30188,-0.0351 0.45313,-0.0488 0.17714,-0.74355 0.5327,-1.30129 1.08594,-1.43554 -0.0207,-0.003 -0.0386,-0.009 -0.0605,-0.01 z m 5.1914,2.53125 c -0.005,-0.0168 -0.0277,0.0457 -0.0488,0.14648 0.008,0.0124 0.0158,0.0247 0.0234,0.0371 0.0194,-0.10228 0.0289,-0.17188 0.0254,-0.18359 z m 97.59766,10.74805 c -0.0136,-0.0914 -0.13826,0.13591 -0.16406,0.22461 -0.0835,0.28688 -0.10857,0.57343 -0.17188,0.85937 0.0682,-0.17436 0.15977,-0.33551 0.22461,-0.51172 0.0372,-0.19057 0.13983,-0.38019 0.11133,-0.57226 z M 259.0957,263.74414 c -0.013,8.1e-4 -0.026,7e-4 -0.0391,0.002 l 0.0137,0.0137 c 0.008,-0.005 0.0171,-0.0102 0.0254,-0.0156 z m 337.34766,2.17969 c -0.0306,-0.21636 -0.15897,0.4145 -0.16797,0.63281 -0.003,0.0785 0.008,0.29924 0.008,0.43164 0.0372,-0.15153 0.10564,-0.29483 0.13868,-0.44726 0.007,-0.20544 0.0503,-0.41365 0.0215,-0.61719 z m -47.23047,14.77929 c -9.25125,12.73207 -12.63575,17.14774 -18.68359,14.49415 -0.80176,1.30675 -1.61857,2.60333 -2.56836,3.80468 -2.20264,2.78603 -5.48768,5.67658 -8.77539,8.35547 -0.63974,0.96665 -1.26159,2.03231 -1.89844,2.88672 -1.62947,2.1861 -3.68134,4.02318 -5.52149,6.03516 -2.18476,1.92787 -4.27598,3.96917 -6.55468,5.78515 -4.79349,3.82011 -10.13097,7.38203 -15.60742,10.15625 -2.35128,1.1911 -4.72623,2.37974 -7.19727,3.28711 -1.53611,1.487 -3.19725,2.88856 -5.24805,4.06641 -4.10672,2.35866 -8.38734,5.30776 -13.12109,5.44922 -6.88661,0.20578 -14.72646,-0.24745 -20.18359,-4.45313 -4.46111,-3.438 -7.11039,-6.51937 -8.7754,-9.52343 -1.40634,1.94065 -2.78871,3.90047 -4.19531,5.83984 -1.93025,2.59505 -3.9342,5.13403 -5.87304,7.72266 -2.5121,8.94684 -8.1709,16.93729 -15.89844,22.0996 -0.49666,0.33179 -1.05224,0.56668 -1.57031,0.86329 -14.70111,19.15568 -29.60472,38.15461 -45.0918,56.6875 -19.03715,18.62835 -10.81828,16.63538 -46.83789,-18.14063 -1.62945,-1.5732 1.62183,-4.23781 2.63476,-6.26367 0.0936,-0.18719 0.35906,-0.58931 0.47461,-0.80469 -4.83324,-0.0362 -6.64798,-1.16816 -7.14062,-4.0664 -0.99608,-1.98346 -1.73235,-5.44561 -2.08203,-11.29493 -0.20551,-0.0544 -0.48016,-0.0228 -0.62696,-0.1582 -18.10762,12.37078 -35.86964,3.62643 -36.44726,-14.06641 -3.78169,-0.24997 -7.87114,-0.93763 -12.28516,-2.20117 -3.97447,-1.13773 -7.92346,-2.71414 -11.31445,-5.12695 -1.52004,-1.08157 -3.15628,-2.08492 -4.35352,-3.51563 -1.98788,-2.37553 -3.60845,-5.02966 -5.29882,-7.63086 -7.7067,1.10278 -15.30897,0.009 -23.81836,-5.47656 -2.33204,-1.50322 -4.52469,-3.70387 -6.59571,-6.06445 -2.9823,0.93764 -6.04178,1.47018 -9.1289,1.58398 -1.48217,0.84285 -2.95596,1.55214 -4.41602,2.11524 -0.35016,2.08893 -0.84006,4.14442 -1.73242,6.04101 -2.01544,4.28365 -5.38964,7.78517 -8.08399,11.67774 -11.33346,-4.12191 -23.56769,-6.38604 -34.40039,-11.54102 -0.86252,7.67408 -1.50479,15.37258 -1.7207,23.09375 -0.0582,3.37428 0.0351,6.74868 0.0664,10.12305 1.0969,-1.11381 2.23033,-2.09879 3.39648,-2.81641 2.76441,-1.70113 5.49963,-4.1901 8.74414,-4.2832 6.94017,-0.19914 13.69546,2.29563 20.54297,3.44336 3.45236,5.26593 7.1058,10.4047 10.35742,15.79687 0.33669,0.5587 0.23063,1.28519 0.33203,1.92969 0.46232,2.93842 0.72437,5.90418 1.04883,8.85938 0.23562,2.34589 0.40278,4.69797 0.62695,7.04492 3.70815,-2.03394 7.6004,-4.27779 11.76954,-4.19336 6.19611,0.12553 11.87426,3.5599 17.81054,5.33984 1.91999,2.09131 3.95969,4.08008 5.75977,6.27539 0.68115,0.83073 1.14007,1.82136 1.65234,2.76563 1.46007,2.69134 2.53588,5.55359 3.58985,8.41992 0.79714,2.12801 1.5194,4.32839 2.73632,6.25977 3.66002,4.9244 7.49283,9.7199 11.03516,14.73242 3.29731,4.49014 6.7151,8.88734 10.10938,13.30273 2.03527,-5.66017 4.72082,-13.37944 8.92382,-17.5664 2.69202,-2.68176 5.41903,-5.80529 9.04688,-6.93555 5.71013,-1.77901 11.92168,-0.97 17.88281,-1.45508 3.4711,1.93821 7.20644,3.46587 10.41406,5.81445 4.48255,3.2821 7.87319,10.81387 10.53321,15.6875 3.42676,6.87661 6.79835,13.78081 10.0625,20.73633 0.5671,1.2139 1.13786,2.4266 1.70117,3.64258 0.41995,-4.47277 1.09087,-8.91256 2.38867,-13.24805 0.0473,-0.0889 0.0765,-0.15404 0.12305,-0.24218 -1.23005,-1.57263 -2.25006,-3.15971 -1.48828,-4.71875 5.70441,-11.675 15.21608,-21.06771 22.82421,-31.60157 4.22077,1.05574 8.50221,1.8915 12.66211,3.16602 0.91786,0.28122 1.66198,0.96278 2.47657,1.4707 2.92334,1.82283 5.66853,3.92479 8.61914,5.70703 5.37254,3.35173 10.95178,6.27629 17.00976,8.21875 1.96608,0.70039 3.94005,1.38002 5.91211,2.06446 0.94323,-2.60192 1.95631,-5.17776 3.16211,-7.67774 0.64917,-1.22575 1.22307,-2.49475 1.94727,-3.67773 3.28699,-5.36939 7.82177,-10.63513 13.89258,-12.98438 3.23018,-1.25002 6.67315,-2.30616 10.13671,-2.28906 3.9157,0.0193 7.66663,1.59779 11.5,2.39648 4.94857,2.56881 9.50358,5.7575 13.16602,10.01954 3.25491,3.61061 6.31252,7.38926 9.38867,11.15234 4.42985,5.46896 8.83658,10.96113 12.95117,16.67383 2.11451,2.99448 4.11493,6.06231 6.07422,9.15429 0.91042,-0.63592 1.82132,-1.27057 2.72656,-1.91406 2.38248,-7.5624 4.59354,-15.1829 5.97852,-22.99805 1.50742,-8.3725 2.73682,-16.78843 3.92969,-25.21093 1.19856,-7.29422 2.36218,-14.98006 6.79883,-21.1836 5.64184,-7.88872 8.25993,-7.32254 17.41015,-11.14453 3.99579,0.26241 8.09753,-0.1681 11.98633,0.78711 3.76569,0.92497 6.98744,2.90874 9.82617,5.39844 1.01736,-3.76901 2.03693,-7.53636 3.06055,-11.30469 2.64101,-10.01014 5.13709,-20.12218 9.50586,-29.55664 3.73232,-7.64369 8.14536,-15.2663 15.95117,-19.44726 1.70005,-0.9106 3.53342,-1.53665 5.34766,-2.20313 -2.49584,-5.65391 -5.25115,-11.19178 -7.97071,-16.74023 -3.47292,-6.95534 -6.5107,-14.11402 -9.36914,-21.33985 -2.75169,-6.90822 -4.65659,-14.09247 -6.13281,-21.36719 z m -384.73437,0.004 c -1.80738,0.98286 -1.25584,1.38911 0,0 z m 28.82617,63.11328 c -0.17988,0.0475 -0.33875,0.0409 -0.51563,0.0801 -0.72874,2.18326 -0.1703,1.64824 0.51563,-0.0801 z m 167.96679,78.35157 c -0.35983,0.62185 -0.77005,1.21252 -1.12109,1.83984 -0.34979,0.62507 1.4673,-1.24441 1.12109,-1.83984 z m -255.50976,13.4375 c -0.87031,7.08776 -1.56315,14.19927 -1.17578,21.34179 0.30006,3.17385 1.99942,5.75794 3.46094,8.50586 1.884,3.25363 3.72661,6.60148 6.375,9.30664 3.66859,2.7622 7.35792,5.49245 10.93945,8.36914 5.38128,4.66224 10.25849,9.86623 15.25781,14.92774 4.47765,4.44729 8.71633,9.10164 12.61719,14.06054 4.53235,6.0923 7.31017,13.15285 10.26367,20.07618 0.34138,0.84389 0.75494,1.65516 1.11133,2.49218 2.65942,-5.24965 7.08171,-8.99015 14.30859,-12.74804 6.65204,-3.45899 12.59727,-0.83649 18.69141,0.96679 9.21633,4.48154 13.55248,10.38582 17.92773,19.38477 2.53118,5.7028 4.38095,11.67135 6.3086,17.5957 0.32602,0.98562 0.67903,1.96255 1.00976,2.94727 3.30397,-5.59571 8.14961,-10.07895 14.11719,-12.73438 1.48903,-0.66258 3.08203,-1.06124 4.62305,-1.59179 9.227,-2.05009 17.78057,-0.43136 25.44531,5.19335 1.2741,0.93499 2.37683,2.08627 3.56445,3.12891 0.59109,0.59465 1.08107,1.25729 1.6211,1.88672 2.75074,-3.19988 5.92129,-6.01262 9.67773,-8.13086 1.21308,-0.68405 2.49987,-1.22808 3.75,-1.8418 6.91453,-2.75841 14.20783,-2.88593 21.12305,-0.49218 -3.9221,-6.08748 -7.69955,-12.26656 -11.29492,-18.55274 -2.03523,-3.5822 -3.86313,-7.27035 -5.6836,-10.96094 -0.34398,0.74643 -0.70257,1.48656 -1.03906,2.23633 -0.60938,1.35176 -1.06926,2.76103 -1.57813,4.15235 0.14961,2.24664 0.57238,4.90849 -1.25781,5.21484 -15.1414,2.53451 -30.70912,1.93694 -46.04101,1.15039 -1.22961,-0.0631 -0.64995,-2.37484 -0.97461,-3.5625 -0.15404,-1.26467 -0.37049,-2.52425 -0.46289,-3.79492 -0.0127,-0.17467 0.0375,-0.34684 0.0293,-0.52149 -0.49639,-0.78143 -1.27473,-2.37686 -1.42187,-2.64843 -0.72748,-1.34262 -1.68801,-3.05775 -2.41992,-4.37305 -2.82949,-5.55405 -6.01576,-10.86222 -9.70118,-15.88477 -4.69695,-6.13906 -9.42912,-12.24814 -14.0332,-18.45703 -1.15283,2.37017 -2.30701,4.73957 -3.49219,7.09375 -1.251,2.27673 -2.10841,3.9818 -3.63476,6.12696 -4.1723,5.86377 -11.29232,12.9044 -19.06446,12.79492 -7.22088,-0.10172 -13.83756,-4.14378 -20.75586,-6.21485 -1.87625,-2.267 -3.98148,-4.36101 -5.62695,-6.80078 -3.76097,-5.57646 -5.40557,-13.62508 -6.52734,-20.90234 -4.29416,2.8772 -9.5428,4.53989 -16.42969,4.39062 -4.89414,-0.10608 -9.11178,-3.58072 -13.66797,-5.37109 -1.96088,-2.05424 -4.1138,-3.9405 -5.88281,-6.16211 -4.66385,-5.85703 -6.7086,-15.25882 -8.32031,-22.44531 -0.69759,-3.03109 -1.17898,-6.09808 -1.73633,-9.15234 z m 399.58984,1.56445 c 0.007,0.27835 0.27878,0.48801 0.4668,0.69336 0.0924,0.10085 0.20018,0.18563 0.29102,0.28906 -0.29968,-0.48594 -0.76739,-1.37055 -0.75782,-0.98242 z m -341.67187,31.32812 c -0.0816,0.13261 -0.24205,0.25137 -0.31446,0.38477 -0.0393,0.0724 0.12385,-0.10936 0.18555,-0.16406 0.0428,-0.0737 0.0862,-0.14698 0.12891,-0.22071 z m 181.28906,28.92969 c -0.12546,-0.0768 0.13001,0.29397 0.26367,0.35547 0.25957,0.11943 0.51458,0.26789 0.77149,0.40039 -0.33853,-0.26171 -0.6708,-0.53271 -1.03516,-0.75586 z m 31.36914,26.80664 c 0.074,0.14722 0.1395,0.29874 0.21484,0.44531 0.022,0.0428 0.17214,0.059 0.14454,0.0195 -0.11203,-0.16067 -0.2459,-0.30519 -0.35938,-0.46484 z m -1.69922,1.60547 c -0.10522,2.24539 -0.16023,4.49247 -0.30469,6.73633 -0.85429,8.06037 -2.38534,16.31187 -5.96289,23.66797 3.37716,1.74223 5.27122,3.71584 7.7461,6.16992 2.06679,-3.25419 4.55166,-6.22217 7.6914,-8.56641 1.83347,-1.36892 3.87631,-2.43224 5.81446,-3.64844 1.7988,-0.68419 3.52942,-1.58591 5.39648,-2.05273 0.85048,-0.21264 1.66225,-0.24415 2.49805,-0.39062 -1.05514,-1.20643 -2.08128,-2.44182 -3.16992,-3.61329 -1.21468,-2.21236 -2.62008,-4.3301 -3.64454,-6.63671 -0.0411,-0.0925 -0.0554,-0.19244 -0.0957,-0.28516 -5.90383,-2.31182 -11.35366,-6.95919 -15.96875,-11.38086 z m -49.74219,9.39844 c -0.18547,0.30779 -0.38355,0.60801 -0.53906,0.93164 -0.0925,0.19261 -0.31764,0.56236 -0.11523,0.63086 0.20718,0.0701 0.27178,-0.3482 0.36328,-0.54688 0.14853,-0.32269 0.17818,-0.68156 0.29101,-1.01562 z m -115.24414,15.90234 c -0.0508,0.22219 -0.0976,0.44492 -0.14453,0.66797 0.0419,-0.16841 0.0655,-0.34838 0.11914,-0.50977 0.0166,-0.0509 0.0373,-0.2105 0.0254,-0.1582 z m 313.32032,3.0918 c 0.0654,-0.1704 -0.24851,0.26694 -0.37305,0.40039 -0.0127,0.016 -0.0187,0.0348 -0.0312,0.0508 0.13821,-0.17956 0.35338,-0.31862 0.4043,-0.45117 z m -55.01758,14.39453 c -0.12892,0.30276 -0.18465,0.63157 -0.27735,0.94726 -0.0127,0.0609 -0.0206,0.12269 -0.0332,0.1836 0.10249,-0.29263 0.22967,-0.5745 0.32422,-0.86914 0.0266,-0.0829 0.0204,-0.34172 -0.0137,-0.26172 z m -316.98828,13.8457 c 0.0723,0.023 0.13764,0.0918 0.21484,0.0879 0.0754,-0.004 -0.0911,-0.05 -0.20898,-0.0879 -0.002,-3e-4 -0.004,3.1e-4 -0.006,0 z m 158.73437,6.28906 c -0.12226,0.19431 -0.19652,0.41363 -0.30859,0.61329 0.15877,-0.21403 0.37436,-0.36108 0.51758,-0.59375 0.0365,-0.0592 -0.41489,0.47556 -0.20899,-0.0195 z" />
    </clipPath>
  </defs>
  <sodipodi:namedview
     id="namedview1"
     pagecolor="#ffffff"
     bordercolor="#111111"
     borderopacity="1"
     inkscape:showpageshadow="0"
     inkscape:pageopacity="0"
     inkscape:pagecheckerboard="1"
     inkscape:deskcolor="#d1d1d1"
     showgrid="false"
     inkscape:zoom="1.0337127"
     inkscape:cx="209.43924"
     inkscape:cy="350.19402"
     inkscape:window-width="1920"
     inkscape:window-height="991"
     inkscape:window-x="-9"
     inkscape:window-y="-9"
     inkscape:window-maximized="1"
     inkscape:current-layer="g1" />
  <g
     inkscape:groupmode="layer"
     inkscape:label="Image"
     id="g1">
    <path
       style="fill:#000000"
       d="M 275.075,677.82413 C 244.28652,671.62539 205.60241,654.34942 171.63003,631.62654 148.3486,616.05445 119.48849,589.77735 103.45033,569.54898 73.819525,532.17671 54.919895,487.55481 48.298635,439.33622 c -2.21987,-16.16594 -3.21905,-75.46052 -1.57468,-93.44681 5.14837,-56.31363 20.71898,-102.46219 45.786653,-135.70362 21.852712,-28.97817 51.138952,-48.58028 86.387032,-57.82128 14.42301,-3.78128 41.27011,-7.37909 71.0851,-9.52619 9.61302,-0.69227 9.63275,-0.69935 10.48078,-3.75741 2.10989,-7.60847 3.94937,-21.73013 4.78911,-36.76595 1.02128,-18.286189 2.80672,-25.327475 9.02339,-35.585731 7.15482,-11.806311 22.78561,-24.612255 36.31615,-29.752973 3.95766,-1.503653 6.62318,-1.740644 14.11699,-1.255141 11.61558,0.752541 15.90289,2.758576 19.04669,8.911971 2.71827,5.320492 2.90271,9.660819 0.6498,15.291395 -2.33407,5.833412 -6.13401,8.111341 -16.5142,9.899681 -14.55643,2.50784 -20.42052,5.940949 -25.22462,14.767659 -4.20405,7.72422 -4.71621,17.126139 -1.33523,24.511179 1.38281,3.02045 4.5429,7.48951 7.02242,9.93124 5.00967,4.93332 12.43067,10.34454 14.18661,10.34454 0.6271,0 4.68046,-2.04171 9.00748,-4.53714 20.93564,-12.07376 39.98684,-19.41978 60.35334,-23.27186 17.34086,-3.27981 46.9464,-3.27671 63.15055,0.007 24.54591,4.97357 43.5445,11.57685 68.26073,23.72515 85.56824,42.05774 137.13035,116.1924 149.16128,214.4602 2.34712,19.1712 2.33673,62.72373 -0.0196,82.21277 -7.49571,61.99582 -28.6197,114.16544 -64.3031,158.8085 -9.11097,11.39862 -33.45936,35.18051 -45.07981,44.03097 -47.17434,35.9293 -99.40953,54.9983 -150.63478,54.99082 -17.92994,-0.003 -26.17205,-1.62547 -46.46809,-9.14944 -7.86383,-2.91521 -16.59574,-5.52684 -19.40425,-5.80363 -5.36461,-0.5287 -6.45772,-0.0982 -22.00244,8.66495 -3.1141,1.75555 -8.629,3.89122 -12.25531,4.74593 -8.81503,2.07769 -25.72309,1.87856 -37.23161,-0.43849 z m 38.65092,-2.41879 c 2.72183,-0.84979 9.15587,-3.97426 14.29787,-6.94327 14.60442,-8.43265 16.9409,-8.30087 47.08825,2.65584 15.18099,5.51736 25.69232,7.0496 43.45232,6.33408 52.27195,-2.10595 106.2477,-24.05102 151.14893,-61.45303 10.30196,-8.58138 30.59663,-29.61778 39.00193,-40.42739 22.20188,-28.55264 40.34884,-64.1781 50.29735,-98.74191 4.89589,-17.00964 9.3326,-40.6447 11.35168,-60.47216 2.34308,-23.00914 1.64269,-63.51022 -1.46586,-84.76596 -7.33999,-50.1895 -26.43329,-95.51246 -55.71548,-132.25531 -7.2273,-9.06871 -27.35131,-29.43694 -36.19031,-36.62951 -41.81816,-34.02878 -92.8923,-56.19996 -140.60742,-61.03741 -9.02062,-0.91453 -14.8561,-0.9053 -25.24484,0.0399 -28.6717,2.60874 -46.6434,8.30252 -75.72403,23.99081 l -11.14804,6.0141 8.08421,3.90534 c 4.44632,2.14795 12.56507,5.34754 18.04167,7.11021 5.47659,1.76267 9.95744,3.67662 9.95744,4.25323 0,2.30476 -4.55269,8.17963 -10.53692,13.59701 -7.03439,6.36807 -19.12045,12.7703 -29.29286,15.51702 -9.51518,2.56926 -40.18188,2.54914 -51.18036,-0.0336 -12.57073,-2.95191 -21.73364,-10.31782 -18.45569,-14.83621 1.75641,-2.42106 8.38787,-15.81999 8.0145,-16.19336 -1.2457,-1.2457 -55.81657,4.57095 -69.61249,7.41992 -20.75148,4.28536 -45.09852,14.58245 -60.25532,25.48379 -14.53484,10.45402 -29.920852,26.60371 -40.819412,42.8455 -6.635983,9.88939 -19.022613,35.60802 -23.392573,48.57047 -10.72318,31.80782 -16.97511,71.52117 -16.95243,107.68484 0.0249,39.75516 2.85052,68.6164 9.15956,93.5582 18.9503,74.91698 72.176295,138.48194 149.718525,178.80083 23.23642,12.08202 50.32361,22.28432 68.32888,25.73584 4.49362,0.86141 9.08936,1.79175 10.21277,2.06742 3.95024,0.96937 23.5452,-0.26766 28.43815,-1.7953 z m -38.3534,-64.19919 c -8.15933,-9.5506 -16.14929,-21.40009 -20.68199,-30.67239 l -4.41481,-9.03114 -3.12314,3.78891 c -4.39441,5.33118 -8.88724,14.25106 -10.35346,20.55532 -0.68584,2.94894 -1.73471,5.3617 -2.33081,5.3617 -2.06515,0 -16.01785,-11.24993 -23.73652,-19.13852 -4.26502,-4.35892 -9.8674,-11.07473 -12.44974,-14.92403 -4.9756,-7.41678 -10.41066,-19.88958 -10.52352,-24.15021 -0.0664,-2.50528 -0.0973,-2.51486 -1.64967,-0.51064 -5.65461,7.30065 -11.17034,22.93562 -12.23463,34.68051 -0.46629,5.14567 -1.12525,7.70247 -1.98515,7.70247 -1.70767,0 -19.33383,-18.57929 -28.58208,-30.12766 -32.97909,-41.18123 -47.328362,-78.96913 -50.027652,-131.74468 -1.2993,-25.40348 5.76266,-57.67481 18.325922,-83.74467 2.97757,-6.17873 6.85584,-13.18724 8.61837,-15.57447 3.76223,-5.0957 6.72254,-5.86977 5.8585,-1.53192 -2.16799,10.88434 -3.17017,27.60956 -3.16684,52.85107 0.003,23.47105 0.34287,30.42598 1.89598,38.8085 2.59076,13.98302 6.25471,26.31087 10.14771,34.14336 3.84625,7.73843 5.81814,9.02013 5.81814,3.7817 0,-8.71877 8.35196,-27.71837 17.3736,-39.52264 6.37626,-8.34294 11.95846,-14.2322 13.49016,-14.2322 1.21781,0 1.62445,2.73679 2.16234,14.55319 0.76136,16.72557 3.00759,35.21963 5.79891,47.74468 2.46797,11.0741 8.01724,28.78848 8.09472,25.83995 0.19193,-7.30403 10.58845,-31.18152 18.7305,-43.01798 5.70944,-8.30007 11.08797,-14.48155 12.60045,-14.48155 0.95853,0 1.40889,1.28222 1.40889,4.01121 0,6.84553 2.07692,19.36825 4.73159,28.52894 5.40368,18.64699 15.99815,36.26932 30.40987,50.58233 l 9.14254,9.07992 2.29586,-8.64854 c 1.26272,-4.7567 4.17736,-12.72105 6.47697,-17.69856 4.12868,-8.9365 14.5718,-25.34107 20.37839,-32.01138 3.0786,-3.53652 5.20308,-3.56598 5.20308,-0.0721 0,2.51977 10.32946,22.52682 16.83687,32.6112 2.71849,4.21277 10.03804,14.98131 16.26568,23.93009 l 11.32298,16.27051 1.20189,-13.97891 c 0.66104,-7.6884 2.17834,-19.08266 3.37178,-25.32057 3.15098,-16.46966 9.82263,-36.6458 12.11767,-36.6458 0.51378,0 3.06411,3.79504 5.6674,8.43342 6.10269,10.8734 18.77524,27.95387 31.14869,41.9832 l 9.78764,11.09747 2.21732,-5.0593 c 6.21028,-14.17008 12.6006,-46.02894 12.61056,-62.86982 0.006,-10.06178 1.131,-10.68887 8.41864,-4.69253 25.58125,21.04853 41.22454,39.86819 51.60677,62.08557 l 4.53471,9.70401 2.89831,-3.5325 c 7.40068,-9.02006 16.74134,-31.24846 21.22549,-50.51122 2.80749,-12.06031 5.27823,-32.4319 5.27823,-43.51981 0,-6.32581 0.37949,-9.00303 1.32775,-9.36691 1.62572,-0.62385 9.06466,8.03871 16.73959,19.49307 6.594,9.84113 12.03619,21.70948 13.79058,30.0745 0.67738,3.22979 1.50941,5.87234 1.84897,5.87234 1.55661,0 11.75309,-34.80108 14.81174,-50.55319 3.6561,-18.82897 3.81813,-41.29433 0.34463,-47.78461 -1.68541,-3.14922 1.19654,-4.34021 3.54555,-1.46522 17.42962,21.33234 27.36622,40.77548 27.16466,53.15364 l -0.0861,5.28768 -1.94931,-8.64253 c -2.48547,-11.01971 -10.23622,-26.95487 -18.34443,-37.71527 -3.43174,-4.55427 -6.32016,-8.28003 -6.41871,-8.27946 -0.0986,5.7e-4 -0.18477,8.38781 -0.19161,18.6383 -0.0105,15.68449 -0.38711,20.33621 -2.37729,29.36066 -5.33071,24.17198 -15.33888,55.75352 -16.62814,52.47135 -0.71583,-1.82233 -0.76065,-1.81612 -0.89711,0.12439 -0.079,1.12341 -0.97856,-1.91517 -1.99903,-6.75239 -3.00282,-14.23404 -12.41648,-32.16419 -23.97833,-45.67142 l -4.66086,-5.44509 v 8.02878 c 0,25.46558 -9.06636,64.45262 -19.07134,82.01034 -6.52511,11.45089 -10.85163,17.3617 -12.70819,17.3617 -1.05743,0 -1.92259,-0.67484 -1.92259,-1.49964 0,-3.13772 -12.52341,-25.95602 -19.07502,-34.75568 -7.48054,-10.04734 -24.87932,-27.79557 -34.85701,-35.55712 l -6.32329,-4.91883 v 6.65375 c 0,9.26315 -2.65772,28.81417 -5.56951,40.97114 -3.23716,13.51534 -8.58371,28.0937 -10.5849,28.86163 -1.77427,0.68085 -8.24846,-6.00093 -21.21082,-21.89091 -7.66243,-9.39304 -24.93264,-34.45318 -24.93264,-36.1788 0,-2.78007 -1.92567,-0.079 -4.25897,5.97403 -5.40504,14.02158 -9.67549,36.03062 -10.70064,55.14894 -0.48949,9.12872 -1.0239,12.51064 -1.97694,12.51064 -1.63821,0 -9.63253,-10.85906 -24.43521,-33.19149 -11.84616,-17.872 -19.80766,-31.87023 -21.90454,-38.51346 l -1.1963,-3.79005 -2.85224,3.27941 c -5.00085,5.74984 -12.36402,17.16556 -16.89193,26.18893 -4.64261,9.25195 -9.74067,24.01492 -9.74067,28.20704 0,4.53237 -3.49388,2.78893 -12.89725,-6.4357 -20.74376,-20.34948 -32.83801,-45.72307 -35.64001,-74.77233 l -0.73533,-7.62339 -2.5225,3.02765 c -12.13734,14.56793 -22.72132,36.2377 -26.33016,53.9087 -1.30309,6.38068 -4.724,-0.10053 -9.28303,-17.58749 -3.97839,-15.25985 -6.43146,-31.63848 -7.76558,-51.84916 l -1.22487,-18.55559 -4.14106,4.6535 c -13.45383,15.1187 -21.7803,31.59997 -24.20679,47.91453 -0.7057,4.74482 -1.56224,7.46725 -2.27738,7.23843 -2.96443,-0.94852 -10.95852,-17.72839 -13.94184,-29.26439 -5.65008,-21.8479 -7.41161,-54.82521 -4.63126,-86.70119 0.94691,-10.85611 1.99092,-20.50718 2.32001,-21.4468 1.51311,-4.32025 -6.01976,7.54244 -10.28466,16.19617 -14.397352,29.21305 -21.068062,64.59807 -18.091622,95.96774 3.80447,40.09657 17.231552,76.39095 39.293342,106.21277 5.58183,7.54518 21.50907,26.43953 29.60995,35.12603 l 6.56625,7.04093 0.6978,-6.01965 c 1.01248,-8.7343 3.31021,-17.27907 6.83663,-25.42391 3.11466,-7.19383 7.36848,-13.78723 8.89501,-13.78723 0.4524,0 1.57037,3.03034 2.48436,6.7341 4.22743,17.13073 17.53707,34.82265 37.4687,49.80553 l 6.53147,4.9098 1.13599,-4.93749 c 0.6248,-2.71561 2.18846,-7.00556 3.4748,-9.53322 3.06196,-6.01676 10.19353,-15.31915 11.74423,-15.31915 0.67088,0 2.26728,2.52725 3.54753,5.6161 3.30908,7.98374 12.18999,21.77783 20.24938,31.45196 6.13789,7.36763 6.93989,8.0099 7.21807,5.78047 1.24295,-9.96144 13.69384,-42.84115 16.22498,-42.84613 0.67032,-10e-4 3.65217,2.64015 6.62632,5.86994 2.97416,3.22979 12.97424,13.44589 22.22241,22.70245 l 16.81487,16.83012 1.19475,-8.14927 c 0.65711,-4.48209 2.11565,-10.90671 3.24119,-14.27692 1.12554,-3.37021 2.3177,-7.27659 2.64925,-8.68085 0.96618,-4.09219 7.90124,-14.43574 9.45088,-14.09586 0.7739,0.16975 3.89372,4.65971 6.93293,9.9777 3.0392,5.31799 9.59388,15.29564 14.56594,22.17255 l 9.04012,12.50348 1.16535,-7.52228 c 1.56562,-10.10595 2.69616,-13.49212 8.79902,-26.35474 3.36627,-7.09487 5.77673,-10.97802 6.81381,-10.97675 0.88264,0.001 3.15678,2.27909 5.05365,5.06222 5.41214,7.94085 22.94821,24.55283 25.91865,24.55283 1.36241,0 10.67301,-20.16924 12.4933,-27.06383 0.88979,-3.37021 1.89732,-9 2.23895,-12.51064 0.35789,-3.67773 1.10792,-6.38298 1.76967,-6.38298 1.9251,0 19.14103,15.73171 25.04649,22.88717 3.05481,3.70142 5.88758,6.72985 6.29504,6.72985 2.21951,0 20.04078,-25.6184 26.46142,-38.03877 1.95892,-3.78941 4.02124,-6.89004 4.58294,-6.89028 1.29924,-5.7e-4 10.18733,15.47457 13.33284,23.21392 1.31559,3.23694 2.59179,5.88535 2.83601,5.88535 0.24422,0 2.26866,-2.20806 4.49877,-4.90679 5.06546,-6.12992 13.4303,-20.68882 16.96925,-29.53481 3.66078,-9.15051 7.80701,-26.72223 7.80862,-33.09292 8.3e-4,-3.28699 0.54359,-5.6867 1.45782,-6.44544 1.19791,-0.99418 1.83252,-0.35873 3.57447,3.57924 1.16488,2.63341 2.11797,5.32013 2.11797,5.97049 0,0.65035 1.58521,5.07278 3.52269,9.82762 3.82382,9.38418 6.69007,19.36584 6.69007,23.29803 0,2.30807 0.22126,2.20523 3.20796,-1.49116 8.46663,-10.47842 19.63637,-29.18622 25.81107,-43.23003 14.21311,-32.32644 19.00213,-63.77603 15.87945,-104.28072 -2.95735,-38.36018 -12.13582,-68.72868 -28.01226,-92.68327 -4.64342,-7.00606 -13.77578,-17.95045 -14.43139,-17.29484 -0.20112,0.20112 0.76506,4.04762 2.14707,8.54777 5.17725,16.85837 10.93404,44.34765 13.23188,63.18364 2.44294,20.02537 2.20959,60.52736 -0.42071,73.02128 -0.6748,3.2053 -0.75169,0.57891 -0.25413,-8.68085 1.01321,-18.8561 0.67582,-47.09918 -0.71981,-60.25532 -2.25956,-21.30026 -8.3574,-50.30027 -14.81734,-70.46808 -3.03242,-9.46719 -3.21976,-10.83759 -1.10864,-8.11009 1.51168,1.95305 1.52567,1.95216 0.94421,-0.0601 -0.90439,-3.12984 10.3913,9.26418 15.82314,17.3617 18.58596,27.707 27.23711,57.7552 29.69753,103.14893 2.20894,40.75419 -4.31582,74.55413 -20.69891,107.22572 -7.52166,14.99989 -22.92314,37.28491 -25.7681,37.28491 -0.86598,0 -1.70172,-1.52623 -2.09713,-3.82978 -1.01153,-5.89298 -2.9853,-12.24573 -6.5841,-21.19149 -1.80774,-4.49362 -4.00556,-10.46809 -4.88405,-13.2766 l -1.59726,-5.10638 -1.3634,9.19149 c -2.72371,18.36211 -8.88332,35.17779 -18.22062,49.74212 -5.02223,7.83368 -11.38859,15.10894 -13.22137,15.10894 -0.59671,0 -1.93423,-2.41277 -2.97225,-5.3617 -1.03802,-2.94894 -4.23039,-9.57848 -7.09414,-14.73232 l -5.20683,-9.37062 -4.31182,8.06987 c -4.94138,9.24812 -16.87864,26.9181 -22.68703,33.5822 l -3.94645,4.52785 -2.43888,-2.55398 c -1.34138,-1.40469 -4.19502,-4.71786 -6.34141,-7.36259 -2.1464,-2.64473 -7.88042,-8.28631 -12.74228,-12.53683 l -8.83973,-7.72824 -1.70564,8.52042 c -0.9381,4.68622 -2.497,10.81828 -3.46423,13.62679 -2.59079,7.52284 -9.9849,22.13625 -11.49342,22.71512 -3.05649,1.17289 -19.28607,-12.65924 -26.95179,-22.97044 -2.19234,-2.94894 -4.42538,-5.3617 -4.9623,-5.3617 -1.38597,0 -7.67653,12.84192 -10.69459,21.83258 -1.40349,4.18091 -2.89892,10.70737 -3.32317,14.50322 -0.42426,3.79586 -1.29185,7.0743 -1.92798,7.28543 -2.25545,0.74859 -21.90161,-26.59295 -28.58453,-39.78105 -2.53346,-4.99955 -2.7458,-5.16674 -4.16274,-3.27764 -5.34274,7.12312 -11.14434,23.8884 -12.347,35.68002 -0.53742,5.26913 -1.14585,7.21636 -2.32552,7.44264 -1.59028,0.30503 -24.01689,-21.07432 -38.61994,-36.81649 l -7.36526,-7.93979 -3.6258,7.93979 c -4.82889,10.57435 -9.67308,25.1298 -10.45537,31.41555 -0.86418,6.94366 -2.77899,7.01323 -8.50652,0.30908 z m 45.39609,-220.64422 c -12.49319,-12.50245 -22.71489,-23.30245 -22.71489,-23.99999 0,-0.9918 10.24114,-1.26827 46.97872,-1.26827 25.8383,0 46.97873,0.34843 46.97873,0.77428 0,1.16967 -46.32941,47.22572 -47.50603,47.22572 -0.5619,0 -11.24333,-10.22928 -23.73653,-22.73174 z m 45.71064,-1.26826 21.93963,-21.95745 h -43.89707 -43.89708 l 21.93963,21.95745 c 12.0668,12.07659 21.94765,21.95744 21.95745,21.95744 0.01,0 9.89065,-9.88085 21.95744,-21.95744 z m -194.54673,-85.27014 -16.31003,-16.33396 22.9603,-23.33959 c 13.48116,-13.70387 23.80356,-23.40121 25.00285,-23.48883 1.23424,-0.0902 6.89242,3.9142 14.29787,10.11882 6.74043,5.64742 27.48571,22.97222 46.10063,38.49956 20.61303,17.19404 33.64679,28.74886 33.33754,29.55475 -0.40694,1.06048 -11.28688,1.32322 -54.79345,1.32322 h -54.28568 z m 119.77376,11.39119 c -1.84508,-1.59513 -18.72915,-15.72705 -37.52015,-31.40426 -18.79101,-15.67721 -37.86335,-31.60465 -42.38298,-35.3943 l -8.21751,-6.89028 -22.97872,22.99022 -22.97872,22.99023 15.38652,15.30431 15.38653,15.30431 h 53.32986 53.32986 z m 99.28361,3.28177 c 0,-1.55999 93.4707,-124.97728 94.65217,-124.97728 1.61266,0 47.30527,60.62386 47.30527,62.7635 0,0.83693 -6.90086,11.8676 -15.33525,24.51261 -10.86884,16.29479 -15.99981,23.13621 -17.61702,23.48978 -4.82013,1.05381 -103.53353,14.8651 -106.19666,14.8583 -1.54468,-0.004 -2.80851,-0.29505 -2.80851,-0.64691 z m 58.7234,-8.88951 51.06383,-7.32182 15.34103,-23.03382 15.34103,-23.03381 -22.93948,-30.66481 -22.93948,-30.6648 -14.40219,19.48585 c -7.92121,10.71723 -28.28488,37.95868 -45.25261,60.53657 -16.96774,22.57789 -30.85042,41.30555 -30.85042,41.61702 0,0.89859 0.91932,0.78215 54.63829,-6.92038 z M 313.37287,175.88137 c 13.61748,-2.66154 21.7901,-6.06862 30.88325,-12.87492 4.90782,-3.67354 14.05455,-13.49657 14.05175,-15.09072 -6.4e-4,-0.36554 -4.33213,-2.1446 -9.62554,-3.95349 -16.30671,-5.5724 -32.72686,-14.14818 -39.85242,-20.81378 -8.92683,-8.35062 -12.13832,-14.65849 -12.13631,-23.83764 0.004,-18.466579 10.15129,-29.237239 30.29069,-32.151642 3.46691,-0.501701 7.56709,-1.402458 9.11152,-2.001683 6.40183,-2.483861 9.01058,-13.486205 4.82535,-20.350802 -2.90976,-4.77257 -7.40679,-6.321522 -18.35312,-6.321522 -8.31991,0 -9.89441,0.321234 -15.60727,3.184245 -14.81135,7.422733 -25.38468,17.227977 -31.78348,29.474612 -5.51679,10.558573 -6.76472,16.242173 -7.74108,35.256032 -1.26282,24.59243 -5.61599,41.80823 -13.30037,52.59994 -1.12176,1.57537 -2.03956,3.55001 -2.03956,4.38809 0,2.24523 6.27115,7.35887 11.45025,9.33678 11.36098,4.3388 35.84224,5.88969 49.82634,3.1565 z"
       id="path1"
       clip-path="url(#clipPath37)" />
  </g>
</svg>
