<?xml version="1.0" encoding="UTF-8" standalone="no"?>
<!-- Created with Inkscape (http://www.inkscape.org/) -->

<svg
   version="1.1"
   id="svg1"
   width="751.65955"
   height="751.65955"
   viewBox="0 0 751.65955 751.65955"
   sodipodi:docname="jackOLantern.svg"
   inkscape:version="1.3 (0e150ed6c4, 2023-07-21)"
   xmlns:inkscape="http://www.inkscape.org/namespaces/inkscape"
   xmlns:sodipodi="http://sodipodi.sourceforge.net/DTD/sodipodi-0.dtd"
   xmlns="http://www.w3.org/2000/svg"
   xmlns:svg="http://www.w3.org/2000/svg">
  <defs
     id="defs1" />
  <sodipodi:namedview
     id="namedview1"
     pagecolor="#ffffff"
     bordercolor="#111111"
     borderopacity="1"
     inkscape:showpageshadow="0"
     inkscape:pageopacity="0"
     inkscape:pagecheckerboard="1"
     inkscape:deskcolor="#d1d1d1"
     inkscape:zoom="1.0337127"
     inkscape:cx="489.98142"
     inkscape:cy="375.82977"
     inkscape:window-width="1920"
     inkscape:window-height="991"
     inkscape:window-x="-9"
     inkscape:window-y="-9"
     inkscape:window-maximized="1"
     inkscape:current-layer="g1" />
  <g
     inkscape:groupmode="layer"
     inkscape:label="Image"
     id="g1">
    <path
       style="fill:#000000"
       d="m 303.61422,692.29325 c -10.67624,-1.60505 -24.95348,-5.38929 -24.30309,-6.44163 0.35061,-0.5673 0.0922,-0.67564 -0.59646,-0.25006 -1.52454,0.94223 -26.33964,-7.57806 -25.25001,-8.66961 0.24523,-0.24565 -0.54953,-0.51401 -1.76612,-0.59634 -2.79189,-0.18895 -18.2973,-7.33633 -19.30272,-8.89779 -0.41268,-0.6409 -0.75736,-0.81936 -0.76596,-0.39657 -0.009,0.42279 -3.67291,-1.14597 -8.14292,-3.48614 -4.47001,-2.34016 -7.84581,-4.71028 -7.50178,-5.26692 0.3677,-0.59495 0.0995,-0.68701 -0.65066,-0.22338 -0.73676,0.45534 -2.42222,-0.0467 -3.98758,-1.18777 -1.49128,-1.08706 -3.5448,-2.28687 -4.56338,-2.66625 -1.01859,-0.37938 -1.56918,-1.14733 -1.22356,-1.70657 0.3757,-0.60789 -0.0763,-0.74635 -1.12408,-0.3443 -1.20573,0.46268 -1.51722,0.29183 -0.99841,-0.54764 0.41475,-0.67107 0.37525,-1.11769 -0.0878,-0.99249 -1.77773,0.48071 -5.43717,-1.39408 -4.78401,-2.45091 0.40276,-0.65168 0.2077,-0.81163 -0.47513,-0.38962 -0.63711,0.39376 -3.81025,-1.25449 -7.05141,-3.66277 -3.24116,-2.40829 -7.50153,-5.48025 -9.46749,-6.8266 -1.96596,-1.34634 -4.37872,-3.374 -5.3617,-4.5059 -0.98298,-1.13191 -1.78723,-1.72714 -1.78723,-1.32274 0,0.4044 -2.06338,-0.95551 -4.58529,-3.02202 -2.5219,-2.06651 -4.28919,-4.23637 -3.92731,-4.82191 0.36189,-0.58554 0.20229,-0.78299 -0.35466,-0.43878 -1.47712,0.91291 -5.5898,-2.27439 -4.77333,-3.69928 0.38031,-0.66369 0.31539,-0.86602 -0.14426,-0.44962 -1.05555,0.95623 -3.74625,-1.1887 -3.00193,-2.39303 0.30384,-0.49162 -0.1608,-0.62017 -1.03252,-0.28566 -1.41713,0.54381 -2.06723,-0.55072 -1.71815,-2.89272 0.0598,-0.40106 -0.48926,-0.49974 -1.2201,-0.2193 -1.77677,0.68181 -5.18534,-3.17732 -4.20598,-4.76196 0.48481,-0.78443 0.34182,-0.97973 -0.38736,-0.52908 -1.45426,0.89879 -8.58374,-5.46874 -7.95568,-7.10543 0.25531,-0.66531 -0.10365,-1.15189 -0.79769,-1.08128 -1.70838,0.17381 -12.925,-12.75086 -12.15167,-14.00212 0.33774,-0.54648 0.14491,-0.70364 -0.42851,-0.34924 -1.46221,0.90369 -4.75114,-2.98615 -3.811,-4.50731 0.46047,-0.74507 0.34229,-0.98003 -0.29488,-0.58624 -0.58484,0.36146 -1.63127,-0.0271 -2.3254,-0.86348 -0.69412,-0.83637 -0.88932,-1.52067 -0.43378,-1.52067 0.45554,0 -0.0627,-0.89709 -1.15155,-1.99352 -8.43095,-8.48939 -28.446763,-43.32668 -34.647913,-60.30435 -12.71168,-34.8023 -17.08893,-59.90943 -18.42842,-105.70212 -1.31037,-44.79676 3.76713,-85.62296 15.03052,-120.85475 4.78286,-14.96074 12.81542,-33.86865 14.38827,-33.86865 0.59511,0 0.77522,-0.3068 0.40025,-0.68177 -0.81686,-0.81686 5.063243,-11.51132 7.386973,-13.43509 0.89937,-0.74457 1.04911,-1.05557 0.33275,-0.69113 -0.71636,0.36445 -0.027,-1.32548 1.53192,-3.7554 6.35793,-9.91031 9.65126,-14.12763 10.58278,-13.55193 0.54068,0.33416 0.85678,0.16951 0.70243,-0.36588 -0.6938,-2.40675 20.57118,-24.33755 23.32919,-24.05964 0.76422,0.077 1.1594,-0.23227 0.87818,-0.68728 -0.848,-1.37211 14.40313,-11.86986 24.97698,-17.19232 22.13018,-11.13945 43.6531,-16.29886 83.30098,-19.96867 21.1605,-1.95861 26.35822,-2.16752 28.04169,-1.12708 0.92699,0.57291 1.14098,0.46585 0.65158,-0.32601 -0.40079,-0.64849 -0.23064,-1.17907 0.37812,-1.17907 2.91455,0 6.03041,-16.61983 7.16228,-38.2033 1.02017,-19.45326 2.51562,-25.883843 8.49466,-36.527811 6.04875,-10.768042 18.10086,-21.726257 31.12711,-28.301887 5.78449,-2.920002 7.11491,-3.177934 16.28565,-3.157337 16.21457,0.03642 21.73125,3.91963 21.73125,15.296719 0,10.009997 -4.06591,13.770871 -16.74756,15.49112 -12.70852,1.723894 -22.11669,7.334243 -26.10101,15.564754 -5.09426,10.523342 -4.51747,22.054612 1.54419,30.871302 5.95366,8.65961 21.60738,19.66348 23.5352,16.5442 0.44598,-0.72161 0.27123,-0.8907 -0.456,-0.44125 -0.64849,0.40079 -1.17908,0.48114 -1.17908,0.17856 0,-1.14617 8.29198,-4.72206 9.38431,-4.04697 0.65911,0.40735 0.86097,0.24902 0.47621,-0.37353 -0.66257,-1.07205 16.65328,-10.46904 19.29132,-10.46904 0.72394,0 1.46944,-0.39013 1.65667,-0.86695 0.43169,-1.09935 13.15343,-6.1877 16.33392,-6.53312 1.31422,-0.14273 2.61927,-0.55647 2.90012,-0.91943 0.28086,-0.36296 6.02554,-1.91542 12.76596,-3.44992 15.01171,-3.41751 43.09686,-4.66417 57.60039,-2.5568 14.98486,2.17731 39.6405,8.51865 49.63365,12.7656 1.68511,0.71614 6.74043,2.7887 11.23404,4.60569 12.83105,5.1882 29.05709,13.57016 28.3825,14.66167 -0.33714,0.54551 -0.0927,0.6703 0.54312,0.27732 0.99439,-0.61457 3.18555,0.51189 13.68863,7.03721 2.57661,1.60079 13.44266,9.01356 14.57724,9.94452 0.5617,0.46089 2.85957,2.17074 5.10638,3.79965 2.24681,1.62891 4.08511,3.5682 4.08511,4.30953 0,0.74132 0.76051,1.34847 1.69001,1.34921 0.92951,7.4e-4 4.53422,2.52901 8.01047,5.61837 3.47625,3.08936 7.01283,6.16091 7.85906,6.82567 0.86668,0.68081 1.20204,1.75323 0.76791,2.45566 -0.50549,0.81791 -0.34484,0.98383 0.46687,0.48216 1.60361,-0.99108 8.65133,6.15417 7.65702,7.763 -0.433,0.70061 -0.2749,0.89428 0.39303,0.48148 1.89153,-1.16903 20.30239,19.89746 19.09564,21.85002 -0.35477,0.57403 -0.19917,0.9174 0.34577,0.76306 2.10283,-0.59559 17.09654,21.9647 15.89257,23.91275 -0.38869,0.62892 -0.2528,0.86296 0.30197,0.52009 1.27915,-0.79056 10.80196,17.44223 9.8849,18.92607 -0.37445,0.60587 -0.20987,0.81052 0.36574,0.45478 0.84857,-0.52445 6.96777,11.96867 7.91574,16.161 0.12701,0.5617 0.73199,2.2384 1.3444,3.726 3.29701,8.00878 6.44442,18.55311 5.93456,19.88177 -0.32071,0.83577 -0.19432,1.2793 0.28088,0.98561 1.12605,-0.69594 5.66401,18.11823 8.25374,34.21967 5.51767,34.30569 5.52453,75.41863 0.0184,110.20822 -2.68888,16.98915 -7.23295,36.81481 -8.28849,36.16245 -0.46619,-0.28812 -0.59708,0.12901 -0.29088,0.92696 0.51892,1.35229 -7.08326,26.52737 -8.69165,28.78293 -0.40053,0.5617 -1.55423,3.31915 -2.56377,6.12766 -3.71936,10.34715 -14.88063,32.27591 -16.05754,31.54855 -0.68238,-0.42174 -0.87644,-0.26089 -0.47292,0.39201 0.84685,1.37023 -9.83228,19.20293 -16.95632,28.31475 -0.43916,0.56171 -2.22315,2.85958 -3.96442,5.10639 -1.74128,2.24681 -3.49749,3.99574 -3.90271,3.88652 -0.40521,-0.10922 -0.73675,0.41497 -0.73675,1.16486 0,2.23264 -4.03856,6.72388 -22.11604,24.59504 -11.38677,11.25681 -17.68954,16.78821 -18.69134,16.40379 -0.83131,-0.31901 -1.24823,-0.15407 -0.92648,0.36652 0.32174,0.52059 -1.60758,2.57661 -4.28739,4.56892 -2.6798,1.99232 -5.33194,3.98999 -5.89364,4.43927 -5.59741,4.47714 -20.34074,13.38054 -21.27311,12.8467 -0.65724,-0.37631 -0.85322,-0.30706 -0.43552,0.15389 1.05182,1.16071 -3.0421,3.86224 -4.49351,2.96522 -0.78268,-0.48373 -0.89708,-0.27423 -0.34131,0.62502 0.61206,0.99035 0.36658,1.17251 -0.91653,0.68014 -0.96387,-0.36988 -1.50542,-0.27274 -1.20346,0.21586 0.96422,1.56013 -29.45586,15.87902 -31.81294,14.97452 -0.77932,-0.29905 -1.1532,-0.11698 -0.83084,0.4046 0.32235,0.52158 -5.05378,2.77335 -11.94696,5.00395 -44.28086,14.32904 -83.11802,16.01877 -108.53305,4.72206 -1.68511,-0.74902 -7.31828,-2.79494 -12.51816,-4.5465 -11.07276,-3.72983 -19.5099,-4.33932 -24.62716,-1.77906 -1.89376,0.94748 -3.96185,1.42661 -4.59575,1.06471 -0.6339,-0.36189 -0.79311,-0.26316 -0.35381,0.21939 1.20302,1.32145 -9.12938,7.42259 -16.35834,9.65937 -7.59578,2.35028 -21.89515,3.30248 -30.39784,2.02421 z m 64.3564,-83.72283 c 2.77582,-9.14276 6.40547,-17.22807 9.59649,-21.37683 l 1.90997,-2.48322 2.66967,5.26835 c 4.51411,8.90817 16.1355,26.1364 24.52211,36.35302 l 4.1006,4.99537 1.2392,-8.56983 c 0.68157,-4.71342 1.99094,-10.86771 2.90972,-13.67622 1.97002,-6.02191 10.67326,-24.00088 11.61694,-23.99803 0.35935,10e-4 2.26187,2.37199 4.22783,5.26869 5.48438,8.08083 24.27733,25.36763 27.57783,25.36763 1.06109,0 9.95484,-19.26948 12.25552,-26.55319 1.15325,-3.65106 2.37914,-9.72713 2.72419,-13.50238 l 0.62737,-6.86407 3.86331,3.05979 c 8.02032,6.35221 19.13962,17.39455 22.49305,22.33737 1.914,2.82116 3.97423,5.14124 4.57828,5.15572 2.53492,0.0608 17.52308,-20.56528 26.4207,-36.35903 l 5.3717,-9.53507 5.33387,9.62825 c 2.93362,5.29553 6.25884,12.06593 7.38937,15.04532 1.13053,2.9794 2.19828,5.56207 2.37278,5.73927 0.54592,0.55441 5.54941,-5.16203 10.30954,-11.77855 10.36075,-14.4013 19.60163,-39.16813 20.58922,-55.18193 0.28579,-4.63405 0.8208,-8.42554 1.18892,-8.42554 0.73263,0 2.844,4.87708 4.20021,9.70213 0.47364,1.68511 2.45727,6.97021 4.40805,11.74468 1.95078,4.77447 4.09138,11.66809 4.75689,15.31915 0.66551,3.65106 1.4014,7.25666 1.6353,8.01243 0.24875,0.80374 2.68072,-1.52789 5.85877,-5.61702 5.52613,-7.11036 13.96002,-19.26191 13.96002,-20.1136 0,-0.25771 1.62085,-3.33616 3.6019,-6.84098 10.76069,-19.0376 18.8727,-44.13808 22.37132,-69.22211 4.03695,-28.94373 0.16794,-74.94836 -8.75804,-104.13782 -4.53829,-14.84095 -13.30688,-32.48712 -22.53874,-45.3576 -4.00419,-5.58239 -13.10427,-15.40184 -13.71112,-14.79499 -0.22795,0.22794 1.21942,6.11073 3.21638,13.07286 4.67796,16.30909 8.92943,35.52813 11.83689,53.50948 1.97269,12.20023 2.32196,18.34331 2.38068,41.87233 0.0379,15.16596 -0.3476,31.25107 -0.85655,35.74468 l -0.92536,8.17022 -1.34069,-6.37752 c -2.50864,-11.93343 -10.02806,-27.3929 -19.2515,-39.57993 -5.94901,-7.86048 -10.07154,-12.76214 -10.43113,-12.40255 -0.19944,0.19944 0.33012,3.30139 1.17679,6.89322 4.5011,19.09499 -0.083,48.75302 -14.01955,90.70304 l -3.19568,9.61924 -1.19272,-7.06605 c -2.29463,-13.59413 -12.54593,-33.24697 -24.95862,-47.84835 l -5.61703,-6.60745 -0.23828,6.33317 c -1.47866,39.29939 -10.70608,73.77212 -25.68328,95.95019 -4.49665,6.6586 -6.24865,8.24622 -6.24865,5.66239 0,-2.46925 -7.71608,-17.88038 -13.12046,-26.20516 -6.88444,-10.60462 -13.60955,-18.81605 -23.58571,-28.79837 -7.48124,-7.48586 -23.70951,-21.38226 -24.97029,-21.38226 -0.34177,0 -0.62141,2.65628 -0.62141,5.90284 0,7.15422 -2.52122,28.08215 -4.60889,38.2571 -1.86073,9.06888 -8.32344,29.53206 -10.08974,31.94762 -1.15048,1.57337 -2.40095,0.49065 -11.60201,-10.04561 -15.7345,-18.01776 -30.90115,-39.13696 -34.04574,-47.40784 -1.41622,-3.72494 -2.95329,-2.42351 -5.6687,4.79964 -6.06638,16.13694 -10.40877,38.01754 -11.30653,56.97178 -0.32592,6.88085 -0.87039,12.4932 -1.20994,12.47188 -0.71972,-0.0452 -2.31825,-2.31626 -19.2753,-27.38488 -14.18397,-20.96901 -23.82863,-37.65101 -25.76375,-44.56256 -0.70982,-2.53525 -1.57554,-4.60783 -1.92382,-4.60573 -0.80225,0.005 -8.94159,10.18421 -13.34922,16.69505 -7.39872,10.92922 -17.41167,35.03988 -17.41167,41.9264 0,1.45823 -0.41931,2.65133 -0.93181,2.65133 -1.75314,0 -18.98354,-17.86303 -23.89052,-24.76768 -12.41933,-17.47536 -20.16512,-39.19327 -21.51551,-60.32593 -0.24482,-3.83127 -0.66076,-7.18159 -0.92432,-7.44514 -0.69534,-0.69534 -7.95226,8.23784 -12.95139,15.94301 -6.49584,10.01205 -14.01738,26.21813 -16.5363,35.62948 l -2.24634,8.39287 -1.86936,-4.90479 c -5.4874,-14.39772 -11.89713,-49.91379 -12.18146,-67.49704 -0.061,-3.77001 -0.40564,-9.59649 -0.76596,-12.94773 l -0.65511,-6.09317 -4.55508,4.86833 c -7.03916,7.52324 -12.9353,15.77652 -17.26636,24.16907 -5.44515,10.5514 -7.21564,15.66867 -8.66558,25.04636 l -1.24602,8.05878 -4.81914,-9.65895 c -5.73643,-11.49746 -8.25401,-19.79862 -10.93205,-36.04592 -3.73534,-22.66187 -3.68148,-56.46784 0.13747,-86.27437 0.59836,-4.67011 0.86452,-8.71452 0.59148,-8.98756 -0.81263,-0.81263 -8.79356,11.75668 -13.05786,20.56506 -14.42173,29.78966 -20.49619,63.77882 -17.36016,97.13729 4.9661,52.82525 25.37235,94.92468 66.91897,138.05825 11.1079,11.53219 11.56813,11.61894 11.71446,2.20819 0.0988,-6.35601 3.58975,-18.44832 7.85894,-27.22285 4.92232,-10.1169 5.95748,-10.76667 7.47448,-4.69172 3.20617,12.83945 11.36793,25.98475 23.70913,38.18584 7.17983,7.09832 20.86568,18.22622 22.44519,18.25008 0.35749,0.005 0.9691,-2.11816 1.35913,-4.71902 0.39002,-2.60086 1.22688,-5.93277 1.85969,-7.40426 1.66796,-3.87856 7.75066,-13.52754 10.2334,-16.23324 l 2.1323,-2.32379 4.14124,8.45145 c 2.27769,4.64829 6.2914,11.66846 8.91935,15.60038 5.48422,8.20541 16.94648,21.95744 18.30144,21.95744 0.50275,0 0.91408,-1.2837 0.91408,-2.85266 0,-4.54618 4.86978,-20.22216 9.90071,-31.87074 2.54725,-5.89787 4.74663,-10.85307 4.88752,-11.01156 0.14089,-0.15848 3.61363,3.28833 7.7172,7.65958 4.10357,4.37125 14.62071,14.99608 23.37142,23.61074 l 15.91039,15.66303 0.73275,-7.49281 c 0.40302,-4.12105 1.91877,-11.3992 3.36833,-16.17366 z m 43.23175,-227.99999 c 0.0861,-0.42128 -20.9839,-0.76596 -46.8222,-0.76596 -25.83829,0 -46.97872,0.34101 -46.97872,0.7578 0,0.4168 10.44812,11.21334 23.21804,23.99232 l 23.21804,23.23452 23.60416,-23.22637 c 12.98228,-12.77449 23.67459,-23.57104 23.76068,-23.99231 z m -94.87178,-47.48936 c -0.0273,-0.42128 -2.58583,-2.83405 -5.68567,-5.36171 -3.09985,-2.52766 -6.40945,-5.28656 -7.35467,-6.1309 -0.94522,-0.84434 -5.62497,-4.74681 -10.39943,-8.67215 -4.77447,-3.92534 -9.32089,-7.74811 -10.10315,-8.49504 -0.78227,-0.74693 -4.45886,-3.79105 -8.17022,-6.76472 -3.71135,-2.97366 -13.41174,-11.02562 -21.55642,-17.89323 -19.95841,-16.82898 -29.36669,-24.55459 -29.90267,-24.55459 -1.11432,0 -46.71669,46.39723 -46.43448,47.24385 0.17507,0.52523 7.18093,7.80385 15.56857,16.1747 l 15.25026,15.21974 h 54.41873 c 29.93031,0 54.39642,-0.34468 54.36915,-0.76595 z m 133.32618,-4.76414 c 21.34468,-3.03978 46.1617,-6.56183 55.14893,-7.82678 l 16.34043,-2.29992 13.78723,-20.7544 c 7.58298,-11.41492 14.61794,-22.11182 15.63326,-23.77087 l 1.84602,-3.01647 -22.01159,-29.22515 C 518.29467,225.3495 507.91162,211.30535 507.3276,210.2141 c -0.58402,-1.09125 -1.4071,-1.98409 -1.82908,-1.98409 -0.76786,0 -8.8429,10.24873 -20.92144,26.55319 -26.05814,35.1751 -71.67461,95.69493 -72.82919,96.62322 -1.22342,0.98364 -1.91485,2.44378 -1.15495,2.43899 0.14042,-8.8e-4 17.71915,-2.4887 39.06383,-5.52848 z"
       id="path1" />
  </g>
</svg>
