<?xml version="1.0" encoding="UTF-8" standalone="no"?>
<!-- Created with Inkscape (http://www.inkscape.org/) -->

<svg
   version="1.1"
   id="svg337"
   width="883.20001"
   height="865.91998"
   viewBox="0 0 883.20001 865.91998"
   sodipodi:docname="misfits-logo-high-resolution-5.svg"
   inkscape:version="1.1.1 (3bf5ae0d25, 2021-09-20)"
   xmlns:inkscape="http://www.inkscape.org/namespaces/inkscape"
   xmlns:sodipodi="http://sodipodi.sourceforge.net/DTD/sodipodi-0.dtd"
   xmlns="http://www.w3.org/2000/svg"
   xmlns:svg="http://www.w3.org/2000/svg">
  <defs
     id="defs341" />
  <sodipodi:namedview
     id="namedview339"
     pagecolor="#ffffff"
     bordercolor="#666666"
     borderopacity="1.0"
     inkscape:pageshadow="2"
     inkscape:pageopacity="0.0"
     inkscape:pagecheckerboard="0"
     showgrid="false"
     inkscape:zoom="0.65017555"
     inkscape:cx="469.10408"
     inkscape:cy="439.11218"
     inkscape:window-width="1330"
     inkscape:window-height="768"
     inkscape:window-x="36"
     inkscape:window-y="0"
     inkscape:window-maximized="1"
     inkscape:current-layer="g343" />
  <g
     inkscape:groupmode="layer"
     inkscape:label="Image"
     id="g343">
    <path
       style="fill:none;stroke-width:0.96;fill-opacity:1;stroke:#000000;stroke-opacity:1"
       d="M 0,432.96 V 0 H 441.6 883.20001 V 432.96 865.92 H 441.6 0 Z m 491.52001,414.84016 c 9.83712,-0.86608 23.8589,-4.93539 27.77546,-8.06079 3.15285,-2.51596 7.65826,-4.53937 10.10755,-4.53937 6.84949,0 10.7127,-1.9881 17.87592,-9.19946 3.89016,-3.9163 7.73183,-7.13428 8.53704,-7.15107 0.80522,-0.0168 2.3026,-0.66479 3.32751,-1.44 1.02492,-0.77521 2.8546,-1.40947 4.06597,-1.40947 4.58539,0 19.53231,-9.05707 27.74329,-16.81101 2.07199,-1.95666 6.33954,-4.85742 9.48343,-6.44612 8.04426,-4.06501 20.33636,-15.38976 21.09528,-19.43512 0.32235,-1.71829 1.44164,-3.89842 2.48732,-4.84474 1.04568,-0.94632 1.90123,-2.4676 1.90123,-3.38063 0,-3.55334 8.10799,-17.78391 12.65717,-22.21495 2.54256,-2.47653 4.62283,-5.33453 4.62283,-6.35114 0,-1.0166 1.07507,-3.43256 2.38904,-5.36881 1.31397,-1.93626 3.0913,-4.91254 3.9496,-6.61397 0.8583,-1.70143 2.62995,-4.23757 3.937,-5.63585 1.95521,-2.0917 2.19103,-2.8888 1.3304,-4.49689 -0.57533,-1.07499 -1.04604,-3.39228 -1.04604,-5.14951 0,-2.67719 1.20653,-4.45451 7.44486,-10.96688 4.09468,-4.27454 8.07338,-9.0212 8.84157,-10.54814 0.76819,-1.52694 5.62083,-7.00697 10.78364,-12.17786 5.16281,-5.17092 9.8083,-10.18897 10.32331,-11.15126 0.65049,-1.21546 0.45457,-3.44331 -0.64166,-7.29686 l -1.57805,-5.5472 3.29316,-2.82628 c 5.29306,-4.54264 14.33317,-13.56696 14.33317,-14.30813 0,-0.37474 1.01569,-1.90248 2.25708,-3.39499 1.2414,-1.49252 2.54419,-4.65765 2.89511,-7.03366 2.18521,-14.7959 3.87387,-30.38954 4.05443,-37.44 0.2803,-10.94528 1.27241,-19.64487 2.89369,-25.37424 1.39719,-4.93743 1.75724,-11.78061 0.75698,-14.38723 -0.98436,-2.56521 -2.29729,-1.686 -2.29729,1.53838 0,2.82621 -1.37884,6.58715 -5.56642,15.18309 -1.46223,3.00157 -2.14872,3.42471 -6.43521,3.96661 -5.48412,0.6933 -10.08794,2.57343 -10.05788,4.1075 0.0202,1.02806 6.23805,5.85484 10.04107,7.79461 1.64302,0.83803 1.89833,1.78645 1.67526,6.22325 -0.22331,4.44184 -0.75082,5.74591 -3.48335,8.61128 -1.77109,1.85721 -5.00067,6.95201 -7.17682,11.32177 -3.09079,6.20634 -3.95665,9.0241 -3.95665,12.87596 0,6.90554 -4.14399,13.34102 -10.04081,15.59303 -3.86531,1.47617 -4.49146,1.4869 -7.13063,0.12213 -1.59314,-0.82385 -5.27042,-1.49613 -8.18349,-1.49613 -4.20596,0 -5.69147,0.43063 -7.24767,2.101 -2.23211,2.39588 -2.42007,3.8807 -0.86026,6.79525 1.36484,2.55024 1.45179,16.77881 0.11072,18.11987 -0.54252,0.54253 -2.00547,0.84186 -3.25096,0.66515 -1.65403,-0.23465 -2.39649,-1.088 -2.75391,-3.16519 -0.55625,-3.23272 -5.66439,-7.23609 -9.23296,-7.23609 -2.86393,0 -8.59206,5.7044 -9.26547,9.22709 -0.28436,1.48758 -0.29561,4.06913 -0.025,5.73675 0.27836,1.71539 0.0292,3.31812 -0.57377,3.69078 -0.58619,0.36228 -1.08112,2.9012 -1.09983,5.64204 -0.0187,2.74084 -0.5587,5.87819 -1.2,6.97189 -2.52675,4.30932 -9.88728,12.94022 -11.46171,13.43992 -2.25451,0.71556 -3.44645,-0.0684 -10.5828,-6.96097 -5.61817,-5.42622 -6.11852,-6.23534 -5.86289,-9.48123 0.15372,-1.9518 0.9833,-4.62291 1.84352,-5.93576 1.04234,-1.59083 1.36755,-3.39165 0.97495,-5.39877 -0.32401,-1.65646 -0.56936,-3.44375 -0.54523,-3.97174 0.0241,-0.528 0.13936,-2.47201 0.25604,-4.32001 0.1762,-2.79071 -0.11316,-3.36 -1.70785,-3.36 -1.49914,0 -1.86333,0.55383 -1.66146,2.52652 0.1763,1.72283 -0.71716,3.62861 -2.80867,5.99101 -3.47119,3.92078 -5.24806,8.10609 -6.98064,16.44248 -1.5239,7.33237 -3.42434,10.95392 -7.7336,14.73749 -3.83519,3.36735 -4.71613,3.54224 -8.17563,1.62308 -1.32,-0.73228 -3.5707,-1.09843 -5.00155,-0.81367 -2.03601,0.40517 -3.26369,-0.14444 -5.64765,-2.52839 l -3.04611,-3.04612 0.6106,-7.86619 c 0.65211,-8.40086 0.01,-10.66289 -2.87033,-10.10626 -1.371,0.265 -1.80496,1.1866 -1.80496,3.83315 0,4.19578 -2.35759,7.11119 -7.68,9.49712 -2.112,0.94675 -5.12134,2.78214 -6.6874,4.0786 -2.60319,2.15502 -2.74689,2.5778 -1.67552,4.92921 0.64453,1.4146 0.9214,3.57002 0.61525,4.7898 -1.03634,4.12914 -9.48148,8.48705 -12.56364,6.48316 -0.5507,-0.35803 -1.51313,-1.62299 -2.13876,-2.81098 -0.73749,-1.40043 -2.02142,-2.16 -3.65117,-2.16 -1.71853,0 -3.68177,-1.26525 -6.20623,-3.99973 -2.03092,-2.19985 -3.69256,-4.44001 -3.69256,-4.97813 0,-1.59552 -4.04766,-5.42214 -5.73534,-5.42214 -2.09195,0 -3.86466,1.89159 -3.86466,4.1238 0,1.0009 -0.85939,3.0267 -1.90973,4.50178 -2.66595,3.74399 -9.36073,4.83019 -20.46322,3.3201 -3.73372,-0.50785 -4.9887,-0.28799 -6.58438,1.15345 -1.58579,1.4325 -3.25313,1.73172 -8.52346,1.52962 -3.66871,-0.14069 -6.81615,0.17616 -7.15226,0.71999 -1.14206,1.8479 -5.78221,0.90631 -9.53797,-1.93544 -2.27669,-1.72264 -4.93959,-2.85473 -6.72,-2.85689 -1.62194,-0.002 -4.41066,-0.8947 -6.19715,-1.98383 -3.94253,-2.40356 -4.82654,-1.73266 -5.98711,4.54372 -1.30677,7.06701 -5.04298,8.60195 -9.97783,4.09917 -1.0632,-0.9701 -3.6552,-2.47361 -5.76,-3.34111 -2.10479,-0.86753 -5.1972,-2.21737 -6.87202,-2.99969 -2.28663,-1.06808 -3.52629,-1.16485 -4.97689,-0.38853 -3.09853,1.65829 -6.99237,1.11275 -12.13799,-1.70059 l -4.8,-2.62436 0.29484,-4.7606 c 0.31567,-5.09689 1.34019,-6.41059 8.43359,-10.81398 5.56934,-3.45731 8.5586,-3.7209 10.39596,-0.91676 0.8484,1.29484 2.63681,2.85281 3.97425,3.46219 2.90951,1.32565 21.18924,1.49436 21.9874,0.20292 0.30764,-0.49777 -1.28843,-1.7224 -3.54682,-2.72138 -5.36652,-2.37388 -10.99511,-7.74833 -11.8396,-11.30506 -1.00207,-4.22035 -4.10368,-7.15131 -7.54695,-7.13171 -2.20386,0.0126 -4.16996,1.1815 -7.75267,4.6094 -2.64,2.52593 -5.55177,5.54236 -6.4706,6.70319 -1.47276,1.86065 -2.58481,2.11059 -9.39013,2.11059 -8.65788,0 -10.42013,1.29921 -6.90262,5.08886 4.28639,4.61799 3.20072,17.06722 -1.7048,19.54887 -3.12839,1.58262 -5.74346,0.31839 -9.46163,-4.57415 -3.89346,-5.12316 -10.45496,-8.09611 -14.15146,-6.41188 -1.81691,0.82784 -3.12246,0.67749 -6.21109,-0.71528 -2.15084,-0.9699 -6.18485,-1.79337 -8.96447,-1.82993 -3.9705,-0.0522 -5.79566,-0.63239 -8.51447,-2.70649 -4.39456,-3.35246 -5.92576,-3.31562 -9.9754,0.24001 -1.80408,1.584 -3.96442,2.87999 -4.80077,2.87999 -1.55468,0 -11.26538,-7.23132 -15.41963,-11.48262 -1.26978,-1.29946 -2.80791,-4.22918 -3.41807,-6.51048 -1.26634,-4.7347 -3.857,-5.30465 -4.3586,-0.95892 -0.35032,3.03515 -5.86338,7.76813 -8.06457,6.92346 -1.99726,-0.76643 -4.90195,-4.92055 -7.72625,-11.04968 -1.32847,-2.88297 -3.97466,-6.60888 -5.88042,-8.27984 -1.90576,-1.67093 -3.46502,-3.85811 -3.46502,-4.86037 0,-1.00228 -1.34184,-3.09114 -2.98186,-4.64193 -2.91752,-2.75876 -2.97001,-2.96464 -2.43243,-9.54082 0.67842,-8.29914 -0.4322,-10.86411 -5.82771,-13.45897 -4.59419,-2.20947 -9.6212,-7.40617 -10.63292,-10.99185 -0.37679,-1.33538 -0.68508,-7.02662 -0.68508,-12.64718 0,-8.70211 0.27149,-10.51921 1.82879,-12.23999 2.63059,-2.90679 4.87045,-2.51401 9.47266,1.66109 2.2322,2.02503 4.81829,3.9569 5.74686,4.29305 0.92857,0.33615 2.17288,1.81131 2.76513,3.27812 0.59227,1.46681 2.31653,5.15725 3.8317,8.20098 1.51518,3.04371 2.75486,6.35492 2.75486,7.35823 0,3.29832 14.59229,12.47465 19.92,12.52665 2.87039,0.028 2.7496,-0.8662 -1.2,-8.88335 -2.21928,-4.50482 -3.36,-8.18516 -3.36,-10.84041 0,-4.47473 -1.89314,-6.79608 -5.19011,-6.36403 -2.65207,0.34753 -6.32989,-3.10682 -6.32989,-5.94526 0,-3.76009 -2.04668,-8.60677 -4.92874,-11.67158 -1.54266,-1.64046 -2.75126,-3.99997 -2.75126,-5.37121 0,-3.33258 -2.57895,-5.40451 -8.70499,-6.99359 -2.8368,-0.73584 -5.30746,-1.78683 -5.49035,-2.33552 -0.18289,-0.54869 -1.19912,-2.0993 -2.25828,-3.4458 -2.38865,-3.03668 -5.89275,-3.16635 -7.78761,-0.28816 -0.78213,1.18799 -3.84316,4.75199 -6.80232,7.92 -6.28389,6.72741 -7.09609,9.46733 -5.56129,18.76087 0.59666,3.61293 1.08484,9.09934 1.08484,12.19205 0,3.09268 0.40723,6.03347 0.90495,6.53508 2.09983,2.11619 4.1588,14.52654 4.02303,24.24865 -0.0643,4.60707 0.37298,7.73897 1.27347,9.12 0.97645,1.49754 1.43417,5.69785 1.5892,14.58333 0.11976,6.86401 0.61481,13.2804 1.1001,14.25864 1.1509,2.31992 4.54925,19.23989 4.54925,22.65015 0,1.45374 1.296,4.43222 2.88,6.61887 1.584,2.18665 2.88,4.64603 2.88,5.46528 0,2.33185 6.78812,12.19724 13.53671,19.67337 7.77923,8.61785 16.88198,22.18216 18.29716,27.26519 1.17722,4.22834 5.59248,14.16821 6.64008,14.94851 0.35444,0.264 1.4548,1.81336 2.44525,3.44301 0.99044,1.62965 2.9962,4.43765 4.45724,6.24 1.46103,1.80235 5.47533,7.23926 8.92066,12.08203 7.6549,10.75975 12.45454,15.22608 17.88322,16.64136 12.83145,3.34518 14.13059,3.91751 17.28703,7.61578 2.72902,3.19748 18.14046,14.45782 19.78765,14.45782 0.31437,0 2.40794,1.944 4.65238,4.32 2.24444,2.37601 4.48057,4.32 4.96916,4.32 0.48861,0 1.41748,0.63756 2.06419,1.41678 2.14888,2.58923 11.93404,6.6148 18.25927,7.51178 5.82971,0.82668 19.16916,1.54697 28.57636,1.54301 2.253,-9.6e-4 6.573,0.6475 9.6,1.44099 3.02701,0.79352 8.31164,1.70597 11.74364,2.02772 3.43201,0.32173 7.32001,1.17857 8.64001,1.9041 2.6601,1.46207 23.54202,1.28202 42.24,-0.36422 z M 470.82482,673.04927 c 0.29598,-0.47888 -0.38648,-3.28688 -1.51657,-6.24 -2.54415,-6.64826 -3.31037,-6.7152 -14.26824,-1.24632 -10.61706,5.29879 -10.73576,6.83374 -0.55396,7.16309 4.18332,0.13532 7.81932,0.45932 8.08,0.72 0.83564,0.83565 7.70094,0.50584 8.25877,-0.39677 z M 438.72,649.59611 c 3.43201,-1.80804 7.53601,-3.97981 9.12001,-4.82616 3.18382,-1.70113 12.5936,-10.65569 14.0721,-13.39132 1.53315,-2.83675 -0.48939,-4.06119 -7.05487,-4.27101 -3.33148,-0.10645 -7.56638,-0.63323 -9.4109,-1.17058 -1.84451,-0.53737 -6.61811,-0.97704 -10.608,-0.97704 -4.2514,0 -7.71844,-0.4641 -8.3755,-1.12116 -2.14302,-2.14302 -8.42205,-3.97389 -15.06146,-4.3917 -4.63131,-0.29144 -7.39314,-0.9823 -9.00947,-2.2537 -1.28196,-1.0084 -3.36645,-1.83343 -4.63221,-1.83343 -3.02183,0 -8.14248,-2.17596 -9.7869,-4.15884 -0.79279,-0.95596 -1.06685,-2.53387 -0.69642,-4.00974 0.61841,-2.46396 12.32958,-14.87142 14.03684,-14.87142 0.50973,0 0.92678,-1.01295 0.92678,-2.25099 0,-1.23805 0.85339,-4.80205 1.8964,-7.91999 3.47996,-10.40289 1.76603,-18.41706 -5.02099,-23.4777 -2.56375,-1.91162 -4.25517,-2.32548 -9.55202,-2.33715 -6.34269,-0.0139 -6.50085,0.0489 -10.83838,4.30337 -4.27358,4.19182 -9.12501,12.87916 -9.12501,16.33994 0,0.93801 -1.3273,4.38068 -2.94957,7.65035 -3.02031,6.08751 -3.11954,8.65217 -0.33475,8.65217 0.86678,0 3.45208,1.836 5.74513,4.08 2.29306,2.24399 4.83744,4.63703 5.6542,5.31784 2.28866,1.90776 1.79818,5.57644 -1.04447,7.81247 -3.05826,2.40563 -8.28053,2.58948 -13.35295,0.47009 -2.63689,-1.10176 -5.11078,-1.3484 -8.99724,-0.89698 -2.94819,0.34245 -8.13549,0.59531 -11.52733,0.56193 -7.20803,-0.071 -8.67731,0.89045 -11.11473,7.27273 -1.98352,5.19377 -1.44886,11.65798 1.1196,13.53607 0.94889,0.69385 3.46154,1.76278 5.58368,2.37539 2.12214,0.61264 4.8887,1.8961 6.1479,2.85217 1.52936,1.16117 3.94629,1.73829 7.27989,1.73829 9.42722,0 16.04774,1.85514 19.3155,5.41245 2.44088,2.65712 3.66091,3.22754 6.90334,3.22754 2.16617,0 4.20548,0.43201 4.5318,0.96 1.10189,1.78289 14.98346,1.11027 20.65356,-1.00074 7.20638,-2.68299 12.59311,-1.90218 16.66566,2.41569 1.65043,1.74985 4.29678,3.84555 5.88078,4.65708 2.47377,1.2674 3.15083,1.28763 4.8,0.14348 1.056,-0.73263 4.728,-2.81135 8.16,-4.6194 z m 59.09166,-2.3161 c 4.78123,-4.9121 7.14835,-9.89515 7.14835,-15.04799 0,-5.40674 -0.70195,-5.81641 -12.5148,-7.3041 -4.99686,-0.62929 -10.62129,-1.34887 -12.49873,-1.59909 -2.18712,-0.29149 -3.76604,0.006 -4.39469,0.82813 -2.01892,2.64009 -4.19178,10.13878 -4.19178,14.46607 v 4.47886 l 5.52,1.60258 c 3.036,0.88143 7.68,2.61541 10.32,3.8533 2.64,1.23789 5.3192,2.26681 5.95378,2.28647 0.63459,0.0197 2.73063,-1.58424 4.65787,-3.56423 z M 318.72,635.68733 c 0,-3.29933 -4.16499,-5.95566 -11.00881,-7.02115 -4.57985,-0.71302 -6.77428,-0.70708 -7.50168,0.0203 -1.58971,1.58972 1.85407,4.75982 6.42294,5.91251 2.16016,0.545 4.79155,1.37794 5.84755,1.85098 3.36919,1.50927 6.24,1.15841 6.24,-0.76263 z m 301.35842,-6.54249 c 2.7471,-3.12088 3.93336,-5.34908 3.9609,-7.44 0.0525,-3.98738 4.09743,-9.30912 10.25754,-13.49545 4.03706,-2.74352 5.923,-3.40938 9.65652,-3.40938 2.59332,0 5.46155,-0.62165 6.50314,-1.40948 1.02492,-0.7752 2.86388,-1.4232 4.0866,-1.44001 3.29291,-0.0452 5.93689,-1.76948 5.93689,-3.87173 0,-2.17988 -2.68998,-8.39898 -4.67085,-10.79879 -2.05935,-2.49486 -5.1824,-2.04276 -8.28915,1.2 -1.51757,1.584 -3.11966,2.88001 -3.56019,2.88001 -0.44054,0 -2.41171,1.03709 -4.3804,2.30465 -2.97315,1.91432 -11.86399,4.02419 -16.05941,3.81106 -0.528,-0.0268 -4.0753,-0.33528 -7.88289,-0.6855 -6.77048,-0.62272 -6.99769,-0.57106 -10.32,2.34597 -3.13973,2.75671 -3.39634,3.39341 -3.38691,8.40325 0.01,4.86759 0.39985,5.91023 3.8298,10.22056 2.10077,2.64001 3.82419,5.5031 3.82979,6.36246 0.006,0.85935 0.60615,2.05703 1.33452,2.66153 0.72836,0.60448 1.58156,2.38539 1.896,3.95755 0.79921,3.99606 2.70402,3.57701 7.2581,-1.5967 z M 451.28601,608.95883 c 3.78642,-1.71414 4.64412,-2.65303 6.09927,-6.67672 2.4009,-6.63881 2.77175,-10.68394 1.57833,-17.2159 -0.83774,-4.58533 -1.65551,-6.21973 -4.16307,-8.32038 -1.71629,-1.4378 -4.06704,-2.6258 -5.22388,-2.64001 -1.15683,-0.0142 -2.40084,-0.50719 -2.76446,-1.09552 -0.39851,-0.64482 -2.16749,-0.86767 -4.45347,-0.56106 -3.14813,0.42226 -4.12455,0.12661 -5.74785,-1.74034 -1.07551,-1.23694 -3.26323,-2.79068 -4.8616,-3.45275 -2.60744,-1.08003 -3.07584,-0.99416 -4.55754,0.83567 -0.91491,1.12986 -1.95335,4.70805 -2.32839,8.02302 -0.37234,3.29097 -1.55688,7.70836 -2.63234,9.81642 -2.17541,4.26417 -1.93333,9.87209 0.77309,17.90875 2.4782,7.35892 3.10772,7.68682 14.17082,7.3814 7.34522,-0.20279 10.77644,-0.75296 14.11109,-2.26258 z m 46.29711,-3.33773 c 1.15328,-0.6044 3.71133,-2.36429 5.68453,-3.91088 3.46915,-2.71912 3.84965,-2.79507 11.52,-2.30005 4.3628,0.28158 10.41234,0.78522 13.44345,1.11923 4.66481,0.51401 6.58122,0.19108 12.48,-2.10305 3.83289,-1.49066 8.43319,-3.69043 10.22287,-4.88832 3.96948,-2.65696 4.03604,-2.6587 7.17611,-0.18871 3.50288,2.75535 11.85926,3.5234 17.16192,1.57737 2.24841,-0.82513 5.58855,-1.80472 7.42257,-2.17686 4.28446,-0.86939 9.78501,-4.35087 12.27527,-7.76943 1.9161,-2.6304 2.14357,-2.68275 11.78148,-2.71129 l 9.82766,-0.0291 8.27051,-8.88515 c 5.4424,-5.84686 8.96894,-8.88338 10.31297,-8.88 1.12335,0.003 2.58024,-0.64285 3.23755,-1.43484 0.6573,-0.79201 1.74051,-1.44001 2.40713,-1.44001 1.99883,0 4.53661,-4.73782 3.89887,-7.27882 -0.31722,-1.26389 -0.18219,-3.0592 0.30006,-3.98959 0.48226,-0.93036 1.64157,-3.54261 2.57624,-5.80497 2.60063,-6.29479 5.208,-8.65641 8.95074,-8.10709 2.03858,0.29921 3.39648,1.1682 3.90582,2.49956 1.32314,3.45856 4.49721,5.69537 7.14041,5.03197 2.60486,-0.65377 7.48019,-6.27875 11.41187,-13.16657 2.24151,-3.92687 3.19681,-4.64397 8.63232,-6.48 3.36155,-1.13547 6.81996,-2.06448 7.68537,-2.06448 1.85555,0 6.22225,-4.45625 7.05532,-7.20001 0.32062,-1.056 1.17308,-2.59454 1.89434,-3.41896 1.06476,-1.21705 1.09139,-2.08182 0.14158,-4.59815 -1.48776,-3.94155 -4.21698,-4.63935 -9.80239,-2.50626 -3.62535,1.38453 -6.04769,1.55218 -14.37127,0.99462 -13.9692,-0.93574 -15.31474,-0.14336 -18.73154,11.03096 -0.78703,2.5739 -1.93489,3.81451 -4.63065,5.00478 -1.97132,0.87043 -4.01622,2.57042 -4.54422,3.7778 -0.85003,1.94375 -1.63523,2.1956 -6.85457,2.19864 -5.10384,0.003 -6.16539,0.32493 -7.91353,2.40001 -1.13607,1.34854 -1.83126,3.23618 -1.58975,4.31656 0.23608,1.05601 -0.96194,5.37601 -2.66226,9.6 l -3.0915,7.68001 -3.80912,-0.23735 c -2.09502,-0.13054 -5.32791,-0.95932 -7.1842,-1.84172 -5.56832,-2.6469 -11.56097,-2.78826 -14.65507,-0.34568 -1.51365,1.19493 -2.64,3.02816 -2.64,4.29687 0,1.21702 -0.648,2.75056 -1.44,3.40788 -0.792,0.65729 -1.44,1.65855 -1.44,2.22501 0,0.56646 -1.16083,2.24156 -2.57961,3.72245 -3.23541,3.37703 -6.5802,3.46102 -12.5723,0.31565 -6.08113,-3.19207 -7.47633,-4.40021 -8.34589,-7.22681 -1.06871,-3.47398 -2.37869,-4.79633 -4.75143,-4.79633 -2.40554,0 -8.09724,5.45415 -8.64163,8.28098 -0.76999,3.99822 -3.34449,8.88616 -5.20476,9.88175 -2.67195,1.42999 -6.45545,1.29805 -9.61393,-0.33527 -2.75159,-1.42291 -10.25966,-1.06115 -11.25052,0.54208 -0.28229,0.45675 -3.40375,0.83707 -6.93659,0.84516 -3.53284,0.008 -6.87814,0.33208 -7.43402,0.71999 -1.54375,1.07732 -5.22932,7.46964 -5.22932,9.06984 0,0.77984 -0.88817,2.22166 -1.97371,3.20406 -1.71933,1.55598 -2.2422,1.61849 -4.05709,0.48509 -1.14587,-0.71561 -5.1177,-1.48269 -8.8263,-1.70462 -3.70859,-0.22196 -7.66018,-0.849 -8.78131,-1.39343 -2.24306,-1.0893 -4.78799,-7.4828 -3.89983,-9.79734 0.30908,-0.80545 -0.19512,-2.39942 -1.12044,-3.54216 l -1.68241,-2.07768 -5.49933,2.9346 c -3.02464,1.61404 -7.1059,3.06788 -9.06946,3.23079 -3.44514,0.2858 -3.56048,0.41379 -3.29467,3.65616 0.1515,1.848 0.40652,5.52001 0.56672,8.16 0.16464,2.71319 1.34781,6.88682 2.72145,9.6 1.61606,3.19198 2.2816,5.79417 1.98668,7.76765 -0.38614,2.5838 -0.0657,3.12419 2.47772,4.17768 2.57895,1.06824 3.25326,0.9736 5.7548,-0.80764 3.99428,-2.84419 9.16247,-2.68415 11.37236,0.35214 2.03327,2.79365 1.78176,2.71803 4.42793,1.33127 z M 301.28657,569.72377 c 0.1796,-0.16328 0.56044,-4.75795 0.84629,-10.21033 0.28585,-5.4524 0.98615,-10.49966 1.55621,-11.21612 0.73352,-0.92192 2.28102,-1.13211 5.29426,-0.71912 2.59454,0.35562 4.76539,0.16232 5.55723,-0.49485 1.87192,-1.55355 1.59856,-5.07334 -0.59779,-7.697 -1.04349,-1.2465 -2.60475,-4.72304 -3.46947,-7.72565 -1.55583,-5.40231 -2.99745,-6.95468 -5.54917,-5.97549 -0.94218,0.36154 -1.18245,1.68863 -0.84606,4.67309 0.52386,4.64762 -0.55418,5.80285 -7.76654,8.32271 -3.37357,1.17865 -3.80385,1.13089 -5.04,-0.55965 -0.74334,-1.01659 -1.35153,-3.49376 -1.35153,-5.50485 V 528.96 h -4.72321 c -4.53214,0 -4.92484,-0.22331 -9.70727,-5.52 -2.74123,-3.03599 -5.56721,-6.87045 -6.27996,-8.52103 -0.88625,-2.05237 -2.50974,-3.48671 -5.13583,-4.53747 -4.82053,-1.92878 -7.36115,-5.44747 -5.90195,-8.17401 1.40399,-2.62339 1.29224,-4.92748 -0.23898,-4.92748 -2.04083,0 -9.2928,6.70916 -9.2928,8.59725 0,0.95022 -0.55051,2.18453 -1.22334,2.74294 -0.77201,0.64069 -1.10888,2.72067 -0.91308,5.63754 0.73813,10.99579 0.67935,15.35098 -0.24189,17.92278 -0.88552,2.47206 -0.67607,2.9961 2.13831,5.3499 2.44773,2.04716 3.12,3.34626 3.12,6.02909 0,4.48654 3.35007,6.75688 10.77683,7.30341 3.04885,0.22435 5.98701,0.99514 6.59754,1.73079 0.6054,0.72947 1.83653,1.32629 2.73584,1.32629 2.02647,0 4.70185,2.93638 8.09074,8.88001 1.43,2.50799 2.70636,4.55999 2.83637,4.55999 0.13001,0 2.5958,0.85848 5.47954,1.90775 3.6157,1.31557 6.43506,1.72851 9.08314,1.33032 2.112,-0.31758 3.98696,-0.71102 4.16657,-0.8743 z M 522.5405,545.3227 c 3.87343,-1.85034 9.84215,-3.49699 17.15875,-4.73372 6.17058,-1.043 12.07928,-2.35667 13.13046,-2.91925 1.98572,-1.06271 4.9303,-0.4829 4.9303,0.97085 0,0.45933 1.10158,1.55695 2.44796,2.43912 2.38146,1.56039 2.53265,1.52188 5.5657,-1.41786 1.71476,-1.66201 3.64304,-3.02183 4.28507,-3.02183 0.64202,0 1.91746,-0.42208 2.83429,-0.93794 0.91684,-0.51587 3.43773,-1.37894 5.60198,-1.91797 5.02832,-1.25232 10.35099,-4.82873 10.80166,-7.25786 0.19247,-1.03743 0.78835,-2.42624 1.32418,-3.08624 1.6319,-2.01004 8.53305,-1.34095 12.73916,1.23511 5.90328,3.61552 6.11767,3.66467 10.39137,2.38179 2.20475,-0.6618 4.55843,-1.35855 5.2304,-1.54832 0.67198,-0.18976 1.45991,-1.11082 1.75096,-2.04681 0.29106,-0.93597 1.16882,-2.78177 1.9506,-4.10177 3.06388,-5.17327 4.20472,-8.81107 5.02366,-16.01895 0.55348,-4.87147 1.72793,-9.18373 3.35022,-12.30105 1.37389,-2.64 3.26406,-6.4156 4.20038,-8.39024 0.93633,-1.97463 2.37758,-3.59463 3.2028,-3.6 0.82522,-0.006 2.68716,-1.24847 4.13765,-2.76247 3.21281,-3.35345 5.31826,-11.86346 6.32556,-25.56729 1.05172,-14.30817 2.01609,-15.84 9.97206,-15.84 2.66357,0 5.16557,-0.77936 7.42,-2.31129 1.87076,-1.27121 4.93082,-2.95034 6.80015,-3.73138 1.86932,-0.78106 4.42334,-2.87297 5.67558,-4.64871 3.15157,-4.46904 9.55323,-9.38321 16.00861,-12.28886 1.188,-0.53473 2.16,-1.43028 2.16,-1.99012 0,-0.55983 1.89641,-1.83077 4.21423,-2.82431 2.31784,-0.99353 4.50334,-2.27418 4.85666,-2.84588 0.35333,-0.5717 1.58893,-1.04596 2.74577,-1.05391 3.82693,-0.0263 9.07033,-2.41305 11.85868,-5.39799 3.92588,-4.20267 8.22942,-6.20659 11.79679,-5.49312 1.6323,0.32646 3.20033,0.96976 3.48451,1.42956 0.28416,0.45981 1.56294,0.83601 2.84172,0.83601 1.64391,0 2.49197,-0.665 2.89478,-2.26995 0.67085,-2.6729 -0.0565,-12.50225 -1.04336,-14.09895 -0.37657,-0.6093 -0.86586,-6.13956 -1.08731,-12.28946 -0.22145,-6.1499 -1.0326,-14.80223 -1.80255,-19.22739 -0.76996,-4.42516 -1.39992,-13.52582 -1.39992,-20.22368 0,-6.69787 -0.45403,-14.63404 -1.00897,-17.63595 -0.88082,-4.7648 -1.28521,-15.48282 -0.80345,-21.29462 0.30529,-3.68283 -0.98975,-15.51029 -1.98487,-18.12766 -0.55334,-1.45537 -1.0093,-10.03095 -1.01741,-19.13484 -0.008,-9.07362 -0.33208,-16.97283 -0.72,-17.55379 -0.38792,-0.58096 -1.68549,-1.57254 -2.8835,-2.20352 -1.77281,-0.9337 -2.75553,-0.8456 -5.28,0.47337 -5.78086,3.02034 -6.43311,3.26644 -8.65677,3.26644 -1.22157,0 -2.65274,-0.43171 -3.1804,-0.95937 -1.34484,-1.34485 -8.19671,-1.47128 -10.58101,-0.19524 -1.50317,0.80448 -2.43185,0.75537 -3.8152,-0.20173 -3.91568,-2.70915 -6.05479,-2.73312 -9.18066,-0.10288 -1.64813,1.38682 -3.61541,2.28402 -4.37172,1.99379 -2.5159,-0.96543 -4.88424,1.24911 -5.54998,5.18957 -0.35582,2.10605 -1.58274,4.66956 -2.7265,5.6967 -1.14376,1.02713 -3.41948,3.08963 -5.05718,4.58333 -1.83472,1.67342 -3.99669,5.41451 -5.63267,9.7468 -1.46029,3.86704 -4.11637,9.20245 -5.90239,11.85648 -1.78603,2.65402 -3.24732,5.33707 -3.24732,5.96233 0,1.16209 -3.38868,5.61313 -7.68,10.08772 -1.32,1.37638 -4.128,4.69758 -6.24,7.38045 -8.52022,10.82321 -11.83328,13.94562 -16.97202,15.99542 -6.15435,2.4549 -19.6109,3.34763 -25.20927,1.67242 -2.07971,-0.62232 -5.10371,-1.29847 -6.72,-1.50256 -3.60504,-0.4552 -8.19207,-2.21134 -10.19359,-3.90259 -0.82218,-0.69474 -3.79048,-1.59559 -6.59622,-2.00189 -4.90137,-0.70978 -5.16478,-0.90105 -6.71938,-4.87903 -2.40914,-6.16459 -11.55582,-16.37572 -19.26952,-21.51208 -2.11055,-1.40535 -4.35082,-4.27813 -6.02449,-7.72546 -2.01549,-4.15136 -3.56237,-5.9462 -6.35071,-7.36872 -2.62731,-1.34035 -3.84537,-2.67625 -4.24021,-4.65045 -0.39372,-1.96866 -3.3469,-5.22053 -10.20928,-11.2419 -8.07201,-7.08276 -9.65531,-8.92916 -9.65531,-11.25969 0,-4.21506 -1.5325,-6.27271 -6.57478,-8.82782 -6.10479,-3.09354 -7.02687,-4.40628 -7.19918,-10.24918 l -0.14604,-4.95245 7.44585,-6.836 c 5.8845,-5.40249 7.44463,-7.39757 7.44,-9.51421 -0.008,-3.54414 3.48812,-10.28175 5.33478,-10.28175 0.80389,0 3.49511,-1.88809 5.98049,-4.19575 2.48538,-2.30765 7.24712,-5.60612 10.58164,-7.32995 3.33452,-1.72383 7.21231,-4.5749 8.61731,-6.33571 1.40499,-1.76082 3.75633,-3.46545 5.22521,-3.78807 1.46888,-0.32262 3.09769,-1.38447 3.61959,-2.35964 1.20995,-2.26081 14.03702,-13.31562 18.33088,-15.79817 6.46358,-3.737 16.53891,-6.13929 30.23576,-7.2092 5.33034,-0.41636 10.59394,-1.24 11.69689,-1.83028 3.29677,-1.76438 7.39629,-1.22893 11.35763,1.48345 2.05368,1.40618 5.24597,2.87581 7.09397,3.26586 1.848,0.39004 4.656,1.14749 6.24,1.68322 1.584,0.53572 5.688,1.932 9.12,3.10282 3.432,1.17082 10.25889,2.67659 15.17088,3.34618 6.62166,0.90265 9.91062,1.86579 12.72,3.72495 2.08401,1.37914 3.78912,2.85339 3.78912,3.2761 0,1.29099 6.60277,4.00419 9.74448,4.00419 2.63697,0 2.9095,0.26078 2.50172,2.39389 -0.25169,1.31666 0.0867,2.84562 0.7519,3.39772 0.66523,0.55209 2.17185,3.47084 3.34802,6.48609 3.87364,9.93048 6.09546,14.09681 8.55507,16.0423 1.33506,1.05599 5.49167,4.98366 9.23692,8.72815 3.74524,3.74449 8.25872,7.31334 10.02997,7.93081 3.63551,1.26735 9.50868,0.51498 10.20809,-1.30767 0.2546,-0.66345 -0.6439,-3.83587 -1.99664,-7.04985 -1.60568,-3.81493 -2.45953,-7.62826 -2.45953,-10.98438 0,-4.66808 2.63323,-14.28029 5.73582,-20.93771 1.41116,-3.02804 -0.12303,-6.39778 -7.59096,-16.67296 -2.67568,-3.6815 -4.86486,-7.09673 -4.86486,-7.5894 0,-0.49266 -1.11527,-2.35797 -2.47839,-4.1451 -1.55349,-2.03673 -2.78654,-5.29487 -3.30411,-8.73062 -1.57917,-10.48263 -3.52561,-14.76334 -9.77053,-21.48773 -2.39363,-2.57741 -5.3836,-4.7516 -7.02676,-5.10961 -3.60028,-0.78442 -9.67008,-3.059515 -13.42021,-5.030192 -7.7658,-4.080875 -12.14341,-6.016833 -13.6753,-6.047765 -0.92658,-0.01871 -2.7647,-0.651403 -4.0847,-1.405982 -1.32,-0.754581 -3.76556,-1.387273 -5.43458,-1.405983 -6.40399,-0.07179 -16.29365,-4.848381 -27.42517,-13.246036 C 628.89897,70.278826 624.28187,68.16 620.16001,68.16 c -1.61792,0 -4.54779,-0.700166 -6.51084,-1.555924 -7.00993,-3.055876 -20.32738,-5.398693 -30.92916,-5.441083 -13.56051,-0.05422 -31.9225,1.285237 -36,2.626103 -2.55993,0.841819 -9.5131,1.280439 -20.85837,1.315783 -12.14606,0.03784 -18.69582,0.482766 -22.87754,1.55407 -7.60476,1.948252 -25.83834,2.000201 -31.14409,0.08873 -2.112,-0.760874 -6.35508,-1.40237 -9.42907,-1.425546 -5.49809,-0.04145 -18.54081,-3.599416 -28.97094,-7.903071 -2.64,-1.089311 -8.04,-3.035394 -12,-4.324628 -3.96,-1.289235 -10.44,-3.545791 -14.4,-5.01457 -9.53511,-3.536608 -17.43997,-5.839867 -20.04262,-5.839867 -1.16262,0 -3.85977,-0.890697 -5.99367,-1.979327 -3.09245,-1.577652 -4.88676,-1.855607 -8.84175,-1.369675 -6.36888,0.782513 -19.87962,-0.922809 -23.91613,-3.018692 -2.80839,-1.458206 -4.21199,-1.504419 -13.8215,-0.455075 -5.88263,0.642375 -12.93105,2.017324 -15.66315,3.055443 -8.88221,3.374974 -19.33244,3.940278 -30.51213,1.650551 -6.37773,-1.306232 -7.25503,-1.287497 -10.63816,0.227174 -2.71308,1.214682 -4.21838,2.780857 -5.69782,5.928221 -2.29334,4.87887 -7.35292,9.700453 -12.38604,11.803429 -1.89283,0.790873 -6.30475,1.447439 -9.80426,1.459035 -4.25077,0.01408 -7.75185,0.651393 -10.5476,1.919999 -2.30167,1.044404 -4.80711,1.898918 -5.56767,1.898918 -2.23885,0 -7.0475,2.825948 -7.0475,4.141668 0,1.836694 -3.26733,7.86059 -6.0704,11.19186 -1.37127,1.629644 -2.77466,4.570273 -3.11868,6.534731 -0.34402,1.964457 -1.65721,5.376666 -2.9182,7.582688 -1.261,2.206019 -2.29272,4.880524 -2.29272,5.943341 0,1.062825 -0.43817,2.203214 -0.97372,2.534184 -0.53554,0.33099 -1.8613,2.34162 -2.94614,4.46808 -1.08483,2.12643 -3.87586,5.76969 -6.20228,8.09612 -2.32643,2.32643 -4.94785,5.63329 -5.8254,7.34859 -0.87753,1.7153 -2.83233,4.69292 -4.34399,6.61688 -1.51166,1.92399 -2.74847,4.35509 -2.74847,5.40247 0,1.04736 -0.62683,2.42453 -1.39295,3.06033 -0.76612,0.63583 -1.65622,3.17274 -1.97799,5.63757 -0.32178,2.46482 -0.99294,5.47818 -1.49148,6.69636 -1.28272,3.13438 0.22165,5.3862 5.21243,7.8022 2.3224,1.12426 5.46173,3.10981 6.97627,4.41234 4.07306,3.50289 7.2802,3.03362 14.96319,-2.18941 11.12376,-7.56213 18.4229,-11.75999 20.44793,-11.75999 0.46815,0 2.1838,-1.29161 3.81252,-2.87023 1.62873,-1.57864 5.7533,-4.27864 9.16571,-6.00001 6.66438,-3.36181 15.32437,-9.24332 15.32437,-10.40768 0,-0.39182 3.132,-1.91123 6.96,-3.37643 3.828,-1.4652 7.46813,-3.04183 8.08918,-3.50362 1.40527,-1.04486 9.35521,-1.18189 26.71082,-0.46039 16.17808,0.67256 25.5863,1.96168 34.56,4.73545 8.25519,2.55165 10.08105,3.63535 16.96873,10.07142 2.99681,2.80032 5.89457,5.09148 6.43948,5.09148 0.54491,0 4.57297,3.25208 8.95126,7.22686 4.37829,3.97475 10.87653,9.87054 14.44053,13.10176 3.564,3.2312 6.48,6.32705 6.48,6.87967 0,0.55261 4.03995,4.91681 8.97767,9.69823 6.32321,6.12305 10.05893,10.68042 12.63462,15.41349 2.01133,3.69599 4.22899,7.39494 4.92812,8.21988 1.29299,1.52563 5.87044,13.00054 6.7968,17.03842 0.39972,1.74236 -0.47298,3.1327 -4.06743,6.48001 -2.51698,2.34391 -4.90815,4.26168 -5.3137,4.26168 -0.40556,0 -1.48082,2.3636 -2.38947,5.25243 -1.30321,4.14325 -2.97963,6.56059 -7.93847,11.44692 l -6.28638,6.19446 1.22392,5.46907 c 1.12271,5.0168 1.06983,5.67777 -0.63943,7.99309 -1.02484,1.38822 -2.40887,4.80152 -3.07561,7.58511 -1.66831,6.96509 -8.69233,15.58115 -21.07886,25.85654 -4.423,3.66917 -14.64633,7.96238 -18.96058,7.96238 -2.3575,0 -7.0512,2.85582 -7.0512,4.29022 0,2.72696 -3.71859,4.17772 -9.43404,3.68055 -4.63959,-0.40358 -6.41868,-0.0337 -12.01545,2.49774 -3.61322,1.63433 -7.81157,2.97149 -9.32966,2.97149 -2.26263,0 -9.54733,-3.25119 -27.78085,-12.39872 -0.792,-0.39735 -2.304,-2.30661 -3.36,-4.24285 -2.69435,-4.94023 -6.90835,-6.25833 -11.98226,-3.74797 -3.99694,1.97752 -7.25381,1.82681 -16.41325,-0.75953 -3.46927,-0.97962 -4.78421,-1.96709 -6.24,-4.68605 -1.01447,-1.89469 -3.27831,-4.16091 -5.03078,-5.03608 -4.50527,-2.24988 -6.29918,-4.07975 -8.83702,-9.01411 -1.55408,-3.02164 -2.96616,-4.46802 -4.69919,-4.81336 -4.7863,-0.95374 -9.08221,-3.81636 -11.05013,-7.36334 -1.09306,-1.97008 -2.98989,-4.28396 -4.21519,-5.14193 -2.77537,-1.94334 -7.85218,-8.85582 -7.85218,-10.69137 0,-0.75197 2.44657,-3.93219 5.43682,-7.06716 l 5.43681,-5.69993 -1.95685,-2.1488 c -2.83078,-3.10846 -4.11678,-5.95683 -4.11678,-9.11835 0,-3.51707 -3.75474,-7.22998 -6.86605,-6.78953 -2.47943,0.351 -2.41827,0.083 -3.00053,13.14702 -0.27592,6.1906 -0.7188,8.22994 -1.93511,8.91061 -0.86751,0.4855 -2.26477,2.48894 -3.10501,4.45208 -0.84024,1.96316 -2.37354,5.1801 -3.40732,7.14879 -1.03379,1.96867 -1.81633,4.77667 -1.73899,6.24 0.0774,1.46332 -0.56307,4.2667 -1.42318,6.22974 -0.86009,1.96304 -1.56403,5.41905 -1.56429,7.68001 -2.7e-4,2.26095 -0.89196,6.45636 -1.98155,9.32312 -1.08958,2.86675 -2.19763,7.55696 -2.46232,10.42269 -0.2647,2.86573 -0.937,6.3522 -1.49402,7.74771 -1.88734,4.72842 -4.55772,19.786 -4.58976,25.88042 -0.0176,3.33472 -0.48812,6.91561 -1.04574,7.95756 -0.55764,1.04195 -1.1735,4.92656 -1.36858,8.63246 -0.19508,3.70591 -0.81394,7.29138 -1.37526,7.96771 -0.56131,0.67634 -1.42164,4.43133 -1.91186,8.34444 -0.49021,3.91309 -1.6382,10.52808 -2.55108,14.69996 -1.27927,5.84624 -1.40755,7.98914 -0.55957,9.34697 0.60512,0.96896 1.10022,2.28704 1.10022,2.92906 0,1.81595 5.93755,7.49873 7.83492,7.49873 0.93405,0 3.15365,1.27784 4.93244,2.83963 4.89209,4.29532 11.98014,7.48609 21.42983,9.64692 4.68755,1.07188 11.04279,2.62135 14.12276,3.44327 4.82526,1.28766 7.30405,1.33665 17.91824,0.35418 l 12.31828,-1.1402 6.08177,2.87193 c 13.32111,6.2905 20.82157,9.35351 26.27143,10.72861 5.58628,1.40953 7.22899,2.97085 7.82852,7.44069 0.44036,3.2831 0.17174,4.25913 -1.57595,5.72631 -3.71356,3.11755 -4.02705,4.63163 -1.95831,9.45781 1.05384,2.45851 1.91607,5.53142 1.91607,6.82868 0,5.77947 -7.52188,14.76217 -12.36145,14.76217 -3.90892,0 -8.75855,2.6404 -8.75855,4.76865 0,1.75826 0.53492,1.96768 4.6537,1.8219 2.55953,-0.0906 5.09227,0.10635 5.62831,0.43764 0.53604,0.33129 1.49547,2.44948 2.13205,4.70708 1.44542,5.12607 2.4897,6.49283 7.12359,9.32337 4.61197,2.81715 5.48595,1.78022 4.15844,-4.93372 -1.23967,-6.26969 0.21273,-7.72839 6.33751,-6.36499 5.02423,1.11841 5.81549,1.94893 7.85045,8.24007 0.89664,2.772 1.96885,5.04 2.38268,5.04 1.80764,0 4.13062,8.94294 3.61662,13.9231 -0.49331,4.77979 -0.34499,5.22821 2.70808,8.18736 3.50353,3.39575 3.94407,3.46003 19.64857,2.86671 5.75788,-0.21753 7.87299,0.10933 10.56,1.6319 24.19758,13.71137 22.17003,12.86934 32.8584,13.6461 9.18852,0.66777 9.96857,0.58504 11.4287,-1.21226 0.86191,-1.06093 3.88591,-2.51006 6.72,-3.22031 2.8341,-0.71024 7.41545,-1.99029 10.18079,-2.84458 4.06137,-1.25465 5.30702,-1.32156 6.48,-0.34807 2.30289,1.91122 1.80899,2.90132 -4.32119,8.66256 -5.70966,5.36602 -5.75211,5.44501 -3.85093,7.16557 4.04416,3.6599 33.8108,6.1001 47.28261,3.87609 3.65759,-0.60381 5.46208,-0.35184 9.29796,1.2983 6.25153,2.68934 10.75114,2.58293 19.83832,-0.46915 9.19746,-3.08911 16.6205,-2.83615 23.92699,0.81539 6.47047,3.23372 10.03792,3.19699 17.09885,-0.17601 z M 410.43432,459.38253 c -7.74902,-2.06529 -10.51962,-6.87109 -11.69507,-20.28595 -0.40708,-4.64582 -0.25024,-7.03827 0.49143,-7.49665 0.61602,-0.38072 1.10411,-3.25564 1.12335,-6.61659 0.0191,-3.33055 0.63715,-6.99842 1.40597,-8.34334 0.83237,-1.45607 1.38535,-5.14951 1.40598,-9.39083 0.0193,-3.96483 0.65733,-8.48262 1.47402,-10.43724 0.792,-1.89553 1.45374,-5.01365 1.47053,-6.92916 0.0168,-1.91553 0.6648,-4.32134 1.44,-5.34625 0.77521,-1.02492 1.40947,-3.31627 1.40947,-5.09189 0,-1.79684 1.27707,-5.52368 2.88,-8.40463 1.584,-2.84692 2.88,-6.08503 2.88,-7.19578 0,-2.65124 1.88881,-6.21791 9.25695,-17.48002 4.48764,-6.85933 7.81957,-10.692 12.63582,-14.5348 12.8548,-10.25664 21.43707,-14.57143 26.83553,-13.49174 1.89632,0.37926 5.25304,-0.17371 9.369,-1.54343 11.18486,-3.72207 13.74853,-2.42189 25.5657,12.96577 3.64936,4.752 8.89366,11.52306 11.65398,15.04679 4.66719,5.95799 11.23385,17.9057 14.15436,25.75321 0.68775,1.848 1.68203,3.92299 2.20951,4.61109 1.69407,2.20993 2.83203,9.99236 3.04562,20.82891 0.11447,5.808 0.69985,11.77612 1.30084,13.2625 1.44228,3.56709 1.38983,7.35881 -0.1073,7.75662 -6.87048,1.8256 -8.22233,3.35976 -13.20064,14.98088 -0.96834,2.26047 -2.18148,3.46501 -3.70719,3.6809 -1.2473,0.1765 -4.64964,1.9045 -7.56074,3.84 -5.57846,3.70895 -6.43408,4.26344 -11.70554,7.58581 -3.0473,1.92058 -3.48071,1.96591 -5.78451,0.60503 -1.36972,-0.80911 -3.46426,-3.16325 -4.65455,-5.23143 -2.42691,-4.21684 -5.25403,-4.92859 -6.95469,-1.7509 -0.59148,1.10518 -0.80427,3.0897 -0.47289,4.41003 0.45437,1.81036 -0.0133,3.01647 -1.90226,4.90538 -3.17845,3.17846 -5.40534,2.06606 -6.52382,-3.25886 -1.28445,-6.11513 -6.26917,-15.48437 -8.55636,-16.08248 -3.35113,-0.87634 -6.75908,1.99944 -11.01041,9.29111 -5.05612,8.672 -10.15323,14.67317 -12.98131,15.28376 -1.20181,0.25947 -5.6411,1.41028 -9.8651,2.55735 -4.224,1.14709 -8.328,2.25016 -9.12,2.45129 -0.792,0.20114 -3.58455,-0.20585 -6.20568,-0.90446 z m 201.6222,-220.792 c 1.02492,-0.7752 3.21121,-1.4232 4.85843,-1.44 1.64721,-0.0168 5.75121,-0.91971 9.12,-2.00648 3.36878,-1.08678 8.26759,-2.23767 10.88624,-2.55756 5.11059,-0.62426 9.18831,-3.62077 9.1214,-6.70286 -0.0206,-0.948 -2.34853,-4.29439 -5.17319,-7.43643 l -5.13577,-5.71279 -8.98681,-0.0472 c -8.87226,-0.0466 -8.99105,-0.0166 -9.3188,2.35279 -0.18259,1.32 -0.75202,2.91172 -1.26539,3.53716 -1.38006,1.68133 -8.27523,5.10286 -10.2834,5.10286 -2.37008,0 -4.81498,-2.90193 -5.97038,-7.08644 -1.13319,-4.10409 -2.44599,-4.29983 -7.20018,-1.07354 -1.94512,1.31999 -4.48935,2.39999 -5.65384,2.39999 -1.16449,0 -2.89915,0.86399 -3.85482,1.92 -0.95567,1.05599 -2.23254,1.92 -2.83749,1.92 -1.38501,0 -5.17864,7.73463 -4.60651,9.39194 0.23391,0.67756 2.96418,2.51356 6.06727,4.08 4.80022,2.42315 6.75607,2.85024 13.10935,2.86275 4.10706,0.008 8.11538,0.43347 8.90738,0.9453 2.12617,1.37404 6.09248,1.15708 8.21651,-0.44946 z M 312.17497,229.1234 c 3.00024,-0.63435 5.77224,-1.47061 6.16001,-1.85837 0.38776,-0.38776 2.17178,-0.70504 3.96447,-0.70504 1.79269,0 5.71669,-1.18799 8.72001,-2.63999 4.85361,-2.34656 6.74097,-2.67482 16.98054,-2.95324 6.336,-0.17229 11.84222,-0.6241 12.23603,-1.00403 1.30355,-1.25759 -7.34826,-8.60053 -12.51157,-10.61879 -3.0501,-1.19222 -7.29314,-1.98393 -10.63266,-1.98393 -4.65218,0 -5.916,0.382 -7.76098,2.3459 -1.21214,1.29025 -3.61603,3.01602 -5.34198,3.83505 -2.74026,1.30033 -3.547,1.31783 -6.36347,0.13791 -1.77395,-0.74317 -4.22495,-2.41814 -5.44664,-3.72214 -1.37233,-1.46479 -3.75721,-2.59493 -6.24,-2.95702 -2.21031,-0.32233 -6.88005,-1.53253 -10.37723,-2.68931 l -6.35851,-2.10322 -5.88665,5.21642 c -9.19918,8.15176 -8.97715,10.89694 1.15632,14.29704 7.03562,2.36065 7.70494,2.76295 9.14326,5.49555 1.63902,3.11391 9.1843,3.88929 18.55905,1.90721 z"
       id="path625" />
  </g>
</svg>
