<?xml version="1.0" encoding="UTF-8" standalone="no"?>
<!-- Created with Inkscape (http://www.inkscape.org/) -->

<svg
   version="1.1"
   id="svg1"
   width="257"
   height="196"
   viewBox="0 0 257 196"
   sodipodi:docname="pumpkinmaybenotahunted.svg"
   inkscape:version="1.3 (0e150ed6c4, 2023-07-21)"
   xmlns:inkscape="http://www.inkscape.org/namespaces/inkscape"
   xmlns:sodipodi="http://sodipodi.sourceforge.net/DTD/sodipodi-0.dtd"
   xmlns="http://www.w3.org/2000/svg"
   xmlns:svg="http://www.w3.org/2000/svg">
  <defs
     id="defs1" />
  <sodipodi:namedview
     id="namedview1"
     pagecolor="#ffffff"
     bordercolor="#111111"
     borderopacity="1"
     inkscape:showpageshadow="0"
     inkscape:pageopacity="0"
     inkscape:pagecheckerboard="1"
     inkscape:deskcolor="#d1d1d1"
     inkscape:zoom="2.8031733"
     inkscape:cx="128.60425"
     inkscape:cy="97.924734"
     inkscape:window-width="1920"
     inkscape:window-height="991"
     inkscape:window-x="-9"
     inkscape:window-y="-9"
     inkscape:window-maximized="1"
     inkscape:current-layer="g1" />
  <g
     inkscape:groupmode="layer"
     inkscape:label="Image"
     id="g1">
    <path
       style="fill:#000000"
       d="m 97.283695,196.42023 c -2.2,-0.45477 -5.20265,-1.28991 -6.672555,-1.85587 -1.833881,-0.7061 -4.759883,-0.70405 -9.324119,0.007 -4.683357,0.72913 -8.5051,0.71277 -12.9156,-0.0553 C 42.887742,190.07782 22.269944,175.61371 12.345537,155.21147 1.9572787,133.85566 -0.75753683,104.98962 5.6883419,84.426952 8.3192523,76.03422 15.923388,63.314767 20.786084,59.17293 24.95937,55.618302 34.121897,49.899993 37.283695,48.876814 c 1.1,-0.355968 -0.431693,0.795811 -3.403762,2.559508 C 21.308125,58.896733 10.029561,74.188694 7.2096278,87.597067 5.1268559,97.500345 4.8097729,101.23075 5.1469329,111.86418 c 0.9022749,28.45614 11.7065991,52.37721 29.8503731,66.08953 7.179,5.4256 18.534106,11.18556 23.745472,12.04507 1.947505,0.3212 4.215917,0.82693 5.040917,1.12384 2.682196,0.96532 9.318472,0.83083 9.65521,-0.19567 0.180425,-0.55 -1.481651,-2.03368 -3.693502,-3.29708 -2.211852,-1.26339 -3.775744,-2.6948 -3.475316,-3.1809 0.300428,-0.4861 0.01936,-1.20944 -0.624588,-1.60743 -0.731227,-0.45192 -0.902922,-0.29014 -0.457295,0.4309 1.113984,1.80247 -0.997583,1.35427 -2.532064,-0.53745 -1.168882,-1.441 -1.164127,-1.56641 0.03206,-0.84549 0.960532,0.57889 1.175771,0.47636 0.680902,-0.32435 -0.397984,-0.64395 -1.080134,-0.95048 -1.515889,-0.68116 -1.191736,0.73653 -23.149195,-22.20446 -26.858694,-28.06177 -8.581625,-13.55041 -11.667676,-28.05944 -10.931702,-51.39527 0.371566,-11.781356 1.002573,-17.258227 2.630158,-22.828629 5.566356,-19.050829 14.891133,-29.951076 30.17364,-35.271632 9.198233,-3.202335 26.958956,-3.247356 34.976894,-0.08866 3.0579,1.20467 6.4329,2.863889 7.5,3.687153 1.067097,0.823264 -0.705973,0.313111 -3.940162,-1.133673 -10.93251,-4.890556 -30.279071,-4.069979 -42.498137,1.802541 -18.147875,8.721925 -28.52827,37.410612 -25.086644,69.332901 1.469508,13.6302 4.565872,24.58885 9.039445,31.9924 7.342546,12.15156 21.373027,26.08966 31.42568,31.21877 2.75,1.40312 5.33061,3.05461 5.734688,3.66998 0.404078,0.61537 0.741578,0.78319 0.75,0.37293 0.0084,-0.41026 2.335243,0.13558 5.170713,1.21297 2.835471,1.0774 5.490094,1.75205 5.899163,1.49923 0.409069,-0.25282 -1.798362,-3.05998 -4.905401,-6.23813 -3.107039,-3.17815 -7.412926,-8.24214 -9.568638,-11.2533 -2.974745,-4.15522 -0.909813,-2.40165 8.566941,7.27515 10.001615,10.21275 13.033427,12.75 15.235216,12.75 3.817844,0 6.334013,-1.55146 8.121203,-5.0075 1.49292,-2.88699 1.42856,-3.07847 -3.09904,-9.22036 C 86.989573,157.29413 79.541625,132.34509 81.220095,111.65886 82.93476,90.526546 92.412476,69.415155 104.2837,60.285226 c 1.83919,-1.41449 0.97578,-0.06892 -2.23143,3.477502 -16.185968,17.897946 -21.908702,48.727002 -14.231018,76.664222 3.038237,11.05541 10.006728,24.70944 15.299688,29.97816 2.47433,2.46299 4.3293,4.75236 4.12218,5.0875 -0.20713,0.33513 1.51668,2.36996 3.83067,4.52184 l 4.20727,3.9125 -3.44485,-3.75 c -4.00487,-4.35962 -3.50315,-4.73582 1.71893,-1.28889 5.59569,3.69355 12.20387,5.80427 13.86241,4.4278 3.09574,-2.56923 3.44961,-8.15025 1.2999,-20.5011 -1.69922,-9.76261 -4.83269,-36.74275 -4.91324,-42.30447 -0.0656,-4.53094 1.26908,1.58298 3.49046,15.98891 6.2132,40.29352 11.30571,49.71745 23.98903,44.3929 1.85208,-0.77751 1.88906,-0.69634 0.5,1.09762 -1.39261,1.79854 -1.37298,1.83754 0.27416,0.54473 0.97579,-0.76587 1.55743,-1.60924 1.29253,-1.87414 -0.26491,-0.2649 0.35435,-1.21328 1.37613,-2.1075 9.29463,-8.13431 15.54367,-62.16648 9.49819,-82.125858 -3.85301,-12.720863 -11.24777,-23.608138 -21.01965,-30.947131 -7.59568,-5.704591 -8.72626,-6.796135 -4.60394,-4.444966 6.61302,3.771744 15.19492,11.551008 19.6863,17.845108 9.20197,12.895406 11.68699,22.961137 11.63481,47.127457 -0.0397,18.3775 -1.77079,31.16627 -5.99811,44.31162 -3.21718,10.00423 -2.90903,11.68549 2.32158,12.66676 10.25676,1.92418 18.60187,-7.02162 26.64119,-28.55885 3.85058,-10.31566 3.58232,-7.75054 -0.61926,5.92133 -3.22413,10.49125 -3.71129,15.65682 -1.40369,14.88372 0.50079,-0.16778 2.8893,-1.88005 5.3078,-3.80505 7.33019,-5.83443 13.32468,-19.03686 17.74462,-39.08122 3.24362,-14.70976 3.31,-34.443616 0.14942,-44.418778 -6.26377,-19.769166 -22.02782,-35.056466 -41.40644,-40.154171 -11.644,-3.06305 -26.38346,-2.01528 -43.37564,3.083401 -1.1,0.330067 -0.42509,-0.128645 1.49981,-1.019358 7.32842,-3.391099 18.32503,-5.526171 28.50019,-5.533523 17.94139,-0.01296 30.24216,4.93101 42.6042,17.123651 13.54742,13.361782 19.68876,30.134315 18.46271,50.423268 -1.08354,17.9305 -5.07355,33.12217 -13.94034,53.07673 -1.46635,3.3 -2.04509,5.2125 -1.28609,4.25 0.759,-0.9625 2.02904,-1.75 2.82232,-1.75 3.0623,0 16.49424,-15.01152 23.26416,-26 1.52483,-2.475 2.44783,-3.6 2.05111,-2.5 -0.39672,1.1 -1.9038,5.24028 -3.34908,9.20061 -3.35904,9.20442 -2.39483,10.8173 4.16766,6.97143 8.79338,-5.15326 15.1865,-15.48159 18.42489,-29.7661 2.42588,-10.70053 2.43665,-38.975361 0.0183,-47.905938 -6.19857,-22.889868 -21.12472,-37.728285 -45.7398,-45.470964 -20.11226,-6.32631 -43.66652,-3.458313 -61.5429,7.49354 -4.19657,2.571002 -4.49683,2.650134 -1.9571,0.515774 4.56402,-3.835562 16.69265,-9.411799 25.29675,-11.630398 23.17693,-5.976253 53.50724,1.829631 70.16925,18.058932 17.87998,17.415652 23.79836,46.121864 16.55961,80.319974 -4.78608,22.61095 -26.09351,43.56668 -51.0847,50.24153 -4.71419,1.2591 -8.38457,3.0398 -11.44091,5.55061 -2.475,2.03323 -5.96102,4.43302 -7.7467,5.33286 -5.11827,2.57921 -17.84878,4.01068 -25.66857,2.88627 -5.95322,-0.85601 -7.00881,-0.75239 -9.10107,0.89338 -6.3979,5.03259 -18.35173,6.39181 -25.98366,2.95451 -3.80296,-1.7128 -4.19705,-1.71685 -8,-0.0823 -4.96729,2.13502 -13.71054,3.02294 -19.000005,1.92953 z m -1.25,-3.65556 c -0.6875,-0.27741 -1.8125,-0.27741 -2.5,0 -0.6875,0.27741 -0.125,0.50439 1.25,0.50439 1.375,0 1.9375,-0.22698 1.25,-0.50439 z m 13.479165,0.0581 c -0.33229,-0.3323 -1.19479,-0.36782 -1.91666,-0.0789 -0.79774,0.31922 -0.56078,0.55618 0.60416,0.60416 1.05417,0.0434 1.64479,-0.19292 1.3125,-0.52521 z m -19.229165,-1.39584 c -2.749085,-1.18132 -4.327966,-1.18132 -2.5,0 0.825,0.53316 2.175,0.94464 3,0.9144 0.989056,-0.0362 0.818741,-0.34772 -0.5,-0.9144 z m 22.374025,-0.34821 c 0.85864,-1.0346 0.59636,-1.79058 -1.12756,-3.25 -2.24074,-1.89694 -2.24204,-1.89652 -0.51012,0.16187 1.33939,1.59187 1.46513,2.33487 0.55,3.25 -0.65249,0.65249 -0.92644,1.18634 -0.60879,1.18634 0.31766,0 1.08107,-0.60669 1.69647,-1.34821 z m -37.190911,-1.83929 c -0.319226,-0.79773 -0.556182,-0.56077 -0.604166,0.60417 -0.04342,1.05417 0.192927,1.64479 0.525219,1.3125 0.332292,-0.33229 0.367818,-1.19479 0.07895,-1.91667 z m 57.566891,0.48177 c -1.2375,-0.23835 -3.2625,-0.23835 -4.5,0 -1.2375,0.23835 -0.225,0.43337 2.25,0.43337 2.475,0 3.4875,-0.19502 2.25,-0.43337 z m -8.33334,-0.65881 c -0.22916,-0.2005 -1.54166,-0.90033 -2.91666,-1.55517 -2.35727,-1.12264 -2.38918,-1.10183 -0.55887,0.36455 1.59299,1.27625 4.84786,2.39128 3.47553,1.19062 z m 15.33334,-0.29774 c -0.6875,-0.27741 -1.8125,-0.27741 -2.5,0 -0.6875,0.27741 -0.125,0.50439 1.25,0.50439 1.375,0 1.9375,-0.22698 1.25,-0.50439 z m 5.75,-1.33772 c 1.82796,-1.18132 0.24908,-1.18132 -2.5,0 -1.31874,0.56668 -1.48906,0.87816 -0.5,0.9144 0.825,0.0302 2.175,-0.38124 3,-0.9144 z m 28.76165,-0.68708 c -0.95608,-0.25029 -2.75608,-0.25937 -4,-0.0202 -1.24391,0.23919 -0.46165,0.44398 1.73835,0.45508 2.2,0.0111 3.21774,-0.18461 2.26165,-0.4349 z m -7.03249,-0.91708 c -0.33229,-0.3323 -1.19479,-0.36782 -1.91666,-0.0789 -0.79774,0.31922 -0.56078,0.55618 0.60416,0.60416 1.05417,0.0434 1.64479,-0.19292 1.3125,-0.52521 z m 12,0 c -0.33229,-0.3323 -1.19479,-0.36782 -1.91666,-0.0789 -0.79774,0.31922 -0.56078,0.55618 0.60416,0.60416 1.05417,0.0434 1.64479,-0.19292 1.3125,-0.52521 z m -17.93763,-1.45269 c -1.0425,-0.60778 -1.46351,-1.63438 -1.08006,-2.63364 0.42049,-1.0958 0.24133,-1.39837 -0.54154,-0.91454 -1.54364,0.95403 -1.49587,3.30685 0.0801,3.94275 2.23251,0.90084 3.29641,0.62852 1.54153,-0.39457 z m 21.93763,0.45269 c -0.33229,-0.3323 -1.19479,-0.36782 -1.91666,-0.0789 -0.79774,0.31922 -0.56078,0.55618 0.60416,0.60416 1.05417,0.0434 1.64479,-0.19292 1.3125,-0.52521 z m 3.76376,-1.38438 c 0.35034,-0.56686 -0.0511,-0.73451 -0.94099,-0.39301 -1.73241,0.66479 -2.04938,1.38155 -0.61095,1.38155 0.51754,0 1.21591,-0.44484 1.55194,-0.98854 z m 4.50708,-3.51146 c 1.29174,-1.375 2.12362,-2.5 1.84862,-2.5 -0.275,0 -1.55688,1.125 -2.84862,2.5 -1.29175,1.375 -2.12363,2.5 -1.84863,2.5 0.275,0 1.55688,-1.125 2.84863,-2.5 z m 16.25,-8.20573 c -1.2375,-0.23835 -3.2625,-0.23835 -4.5,0 -1.2375,0.23835 -0.225,0.43337 2.25,0.43337 2.475,0 3.4875,-0.19502 2.25,-0.43337 z m 19.87755,-9.04427 c 1.24387,-1.58605 1.2085,-1.62142 -0.37755,-0.37755 -1.66575,1.30637 -2.19548,2.12755 -1.37245,2.12755 0.20766,0 0.99516,-0.7875 1.75,-1.75 z m 6.43535,-5.5 2.9371,-3.25 -3.25,2.93709 c -3.02946,2.73778 -3.70966,3.56291 -2.9371,3.56291 0.1721,0 1.6346,-1.4625 3.25,-3.25 z M 108.45305,57.583386 c -5.24174,-3.1805 -7.16081,-11.651105 -4.22922,-18.667388 0.79207,-1.895694 3.51227,-5.662006 6.04489,-8.369583 3.07475,-3.287151 4.17451,-5.09543 3.30987,-5.442217 -0.71219,-0.285643 -0.30791,-0.554877 0.8984,-0.598298 2.5737,-0.09264 5.30671,-3.575392 5.30671,-6.762499 0,-3.431992 -3.74098,-6.164843 -10.17057,-7.429788 -5.41312,-1.0649657 -5.82943,-1.343084 -5.82943,-3.8943211 0,-4.0693783 2.19327,-5.3737102 7.76393,-4.617182 12.53327,1.7020901 19.2534,6.4060207 19.21718,13.4515681 -0.0179,3.477428 -0.91863,5.2325 -8.04402,15.673274 -2.8159,4.12611 -2.31771,13.401498 0.90399,16.830847 2.40849,2.563713 2.19275,4.250051 -1.1263,8.803769 -1.6069,2.204649 -2.6928,2.634615 -6.65384,2.634615 -2.60346,0 -5.92968,-0.725758 -7.39159,-1.612797 z M 40.783695,47.426952 c 0.825,-0.533156 1.95,-0.969374 2.5,-0.969374 0.55,0 0.325,0.436218 -0.5,0.969374 -0.825,0.533156 -1.95,0.969375 -2.5,0.969375 -0.55,0 -0.325,-0.436219 0.5,-0.969375 z M 66.055686,35.706919 c 2.317863,-2.597861 10.176251,-6.839003 17.435302,-9.409765 4.063889,-1.43921 9.224851,-2.190034 17.292712,-2.515766 13.33551,-0.538408 13.33551,1.055567 0,1.947742 -9.760696,0.653012 -22.899402,4.432874 -31.000005,8.918361 -4.157129,2.301897 -5.067353,2.560565 -3.728009,1.059428 z M 178.2837,21.046451 c -3.62346,-1.919977 -5.60032,-2.119077 -21,-2.11502 -13.8294,0.0036 -17.6994,0.320512 -20.75,1.698973 -4.97537,2.248194 -4.81296,1.379475 0.22235,-1.189347 7.77512,-3.966573 26.18687,-4.930273 37.2617,-1.950337 2.05373,0.552604 4.97873,2.1001 6.5,3.438882 3.28618,2.891976 3.02869,2.905444 -2.23405,0.116849 z"
       id="path1" />
  </g>
</svg>
