<?xml version="1.0" encoding="UTF-8" standalone="no"?>
<!-- Created with Inkscape (http://www.inkscape.org/) -->

<svg
   version="1.1"
   id="svg1"
   width="133.12"
   height="133.12"
   viewBox="0 0 133.12 133.12"
   sodipodi:docname="VampFangs.svg"
   inkscape:version="1.3 (0e150ed6c4, 2023-07-21)"
   xmlns:inkscape="http://www.inkscape.org/namespaces/inkscape"
   xmlns:sodipodi="http://sodipodi.sourceforge.net/DTD/sodipodi-0.dtd"
   xmlns="http://www.w3.org/2000/svg"
   xmlns:svg="http://www.w3.org/2000/svg">
  <defs
     id="defs1" />
  <sodipodi:namedview
     id="namedview1"
     pagecolor="#ffffff"
     bordercolor="#111111"
     borderopacity="1"
     inkscape:showpageshadow="0"
     inkscape:pageopacity="0"
     inkscape:pagecheckerboard="1"
     inkscape:deskcolor="#d1d1d1"
     inkscape:zoom="5.8368392"
     inkscape:cx="66.559998"
     inkscape:cy="66.559998"
     inkscape:window-width="1920"
     inkscape:window-height="991"
     inkscape:window-x="-9"
     inkscape:window-y="-9"
     inkscape:window-maximized="1"
     inkscape:current-layer="g1" />
  <g
     inkscape:groupmode="layer"
     inkscape:label="Image"
     id="g1">
    <path
       style="fill:#000000"
       d="M 38.780785,85.503014 C 33.078396,77.77896 31.699529,75.100223 28.790104,66.094035 26.293118,58.364561 25.599796,55.136764 25.600496,51.244648 c 7.76e-4,-4.312104 1.055083,-5.789682 4.138471,-5.799932 2.858102,-0.0095 5.102373,1.714979 6.746838,5.18422 l 0.866939,1.828937 0.181104,-1.754722 c 0.320881,-3.10904 2.033007,-4.8746 5.245771,-5.409489 1.743802,-0.290324 3.284012,0.426557 4.411275,2.053199 1.0544,1.5215 2.30714,5.052176 2.616105,7.373137 l 0.234291,1.76 0.240913,-1.28 c 0.132501,-0.704 0.250014,-2 0.261138,-2.88 0.05974,-4.725912 2.472286,-7.156356 7.395726,-7.450602 3.897522,-0.232933 5.689221,1.024747 7.074414,4.965869 0.35217,1.001986 0.742054,2.690954 0.866409,3.753263 l 0.226101,1.93147 0.236367,-2.24 c 0.440416,-4.173725 1.715544,-6.881651 3.854705,-8.186048 1.385191,-0.844648 5.585379,-0.848776 7.402934,-0.0073 2.837965,1.313935 3.887223,3.427541 4.208307,8.477142 0.203198,3.195642 0.686735,5.590611 0.731409,3.62269 0.07138,-3.144255 2.063706,-9.05209 3.607473,-10.697222 2.1352,-2.275399 6.83995,-1.210863 8.455468,1.913204 0.852945,1.649414 0.49675,7.97784 -0.709747,12.609896 -0.824084,3.16387 -2.025354,3.956289 -5.957019,3.929551 -3.267253,-0.02222 -4.668738,-0.477015 -5.561301,-1.804697 l -0.687571,-1.02276 -0.365033,0.801161 c -0.434036,0.952603 -3.009194,2.215402 -5.469075,2.681909 -2.432364,0.461288 -5.933041,0.397835 -7.197431,-0.130461 -1.451731,-0.606571 -1.807561,-1.390974 -2.026743,-4.467808 -0.211386,-2.967397 -0.623703,-2.344964 -0.676839,1.021755 -0.01754,1.11157 -0.171696,2.282254 -0.342562,2.601519 -0.522727,0.976724 -2.677704,1.617444 -5.44006,1.617444 -5.565544,0 -9.235968,-1.635795 -9.314538,-4.151202 -0.02693,-0.862322 -0.119549,-0.707577 -0.438038,0.731903 -0.304745,1.377356 -2.245837,2.123517 -5.546977,2.132271 -2.734825,0.0073 -4.360246,-0.43244 -5.158992,-1.395558 -0.247099,-0.297949 -0.701708,-1.580255 -1.010244,-2.84957 l -0.560973,-2.307844 0.119445,7.2 c 0.154381,9.305968 0.968099,14.604847 3.187695,20.758085 0.927799,2.572077 0.931696,2.601914 0.339823,2.601914 -0.249439,0 -1.601999,-1.555642 -3.005689,-3.456983 z m 0.714989,-2.454712 c -1.458554,-5.462023 -1.786002,-8.335808 -2.061038,-18.088304 -0.198076,-7.023573 -0.399313,-9.931477 -0.78615,-11.36 -1.460356,-5.392838 -5.249568,-8.530656 -8.426404,-6.977842 -2.103904,1.028373 -2.468729,4.19062 -1.192666,10.337842 0.726301,3.498833 4.560701,15.177348 5.778597,17.599999 1.317392,2.620569 6.931623,11.2 7.329086,11.2 0.04548,0 -0.24316,-1.220263 -0.641425,-2.711695 z M 63.937215,64.832464 c 0.519875,-0.268838 1.034677,-0.721899 1.144005,-1.006803 0.408574,-1.064729 0.193443,-9.568164 -0.294434,-11.637941 -0.649889,-2.757107 -1.922456,-5.006287 -3.322019,-5.871455 -2.280538,-1.409761 -6.744166,-0.614823 -8.634073,1.537663 -1.283693,1.462045 -1.470696,2.581067 -1.470696,8.800618 0,6.052758 0.143369,6.49558 2.467234,7.620544 2.737926,1.325408 8.057627,1.618688 10.109983,0.557374 z m 11.351835,-0.01853 c 3.235649,-0.576833 5.167498,-1.688471 5.691023,-3.274769 0.461699,-1.398961 0.237236,-8.567935 -0.352443,-11.256446 -0.508751,-2.319539 -2.061918,-4.033686 -4.241296,-4.680892 -5.541373,-1.645611 -8.758306,1.187841 -9.116166,8.029458 -0.229125,4.380427 0.196154,9.591524 0.848515,10.397155 0.984552,1.215871 3.320704,1.47179 7.170367,0.785494 z M 48.58004,63.551003 c 0.536031,-0.277192 1.06534,-0.789875 1.176241,-1.139294 0.25132,-0.79184 -0.647855,-7.567513 -1.316188,-9.918043 -1.128721,-3.969717 -3.054686,-6.413668 -5.054316,-6.413668 -1.526618,0 -3.696667,1.266328 -4.392071,2.562984 -0.741896,1.383345 -0.780626,4.397269 -0.110987,8.637016 0.710114,4.496006 1.237819,5.695628 2.836412,6.447956 1.576038,0.741713 5.268573,0.646478 6.860909,-0.176951 z m 42.070235,0.33316 c 0.566347,-0.239709 1.290059,-0.728261 1.60825,-1.085671 0.839474,-0.942944 1.872246,-6.403279 1.931155,-10.210138 0.04381,-2.831098 -0.03501,-3.366568 -0.609456,-4.140228 -1.638818,-2.207166 -4.410818,-3.016541 -6.132513,-1.790585 -2.035335,1.449286 -3.610476,5.879539 -4.288677,12.062368 -0.357953,3.263273 -0.3474,3.748869 0.09099,4.187263 1.286822,1.286822 5.388754,1.828365 7.400247,0.976991 z m -8.518348,-4.444165 c -0.08877,-0.22 -0.161404,-0.04 -0.161404,0.4 0,0.44 0.07263,0.62 0.161404,0.4 0.08877,-0.22 0.08877,-0.58 0,-0.8 z m -31.673332,-0.94 c -0.102153,-0.255275 -0.177979,-0.179449 -0.193334,0.193333 -0.01389,0.337334 0.06174,0.526333 0.16807,0.42 0.106334,-0.106333 0.117702,-0.382333 0.02526,-0.613333 z m 40.421402,30.34863 c 0,-0.06125 0.562034,-1.825253 1.248965,-3.92 2.006287,-6.118033 2.60588,-10.441263 2.791658,-20.12863 0.170022,-8.865745 0.501754,-11.48584 1.816234,-14.34504 1.499068,-3.260707 3.831556,-5.019593 6.644176,-5.010242 3.09912,0.0103 4.1377,1.482169 4.13847,5.865015 2.8e-4,1.57744 -0.28118,4.197325 -0.63598,5.92 -0.72737,3.531519 -4.31848,14.744593 -5.56806,17.385993 -1.910065,4.037547 -9.087357,14.344273 -9.988917,14.344273 -0.245601,0 -0.446546,-0.05012 -0.446546,-0.111369 z m 5.58329,-7.888631 c 3.247745,-4.821418 4.551073,-7.542496 6.719883,-14.029684 2.77418,-8.297905 3.47161,-11.332779 3.50749,-15.26286 0.0338,-3.702598 -0.36182,-4.657282 -2.1785,-5.25684 -2.32944,-0.768784 -5.313425,1.015598 -6.900411,4.126348 -1.390921,2.726431 -1.641257,4.600019 -1.927105,14.423037 -0.285179,9.800044 -0.622958,12.778385 -2.050488,18.079999 l -0.775479,2.88 0.778421,-0.96 c 0.428132,-0.528 1.699917,-2.328 2.826189,-4 z"
       id="path1" />
  </g>
</svg>
